<svg xmlns="http://www.w3.org/2000/svg" width="221" height="72.875" viewBox="0 0 221 72.875"><g transform="translate(-580.446 -5166.851)"><g transform="translate(580.737 5153.958)"><path d="M4.77-.585A.6.6,0,0,0,5.355,0H23.4a.6.6,0,0,0,.585-.585V-1.3A.6.6,0,0,0,23.4-1.89H6.93V-15.21H21.195a.6.6,0,0,0,.585-.585v-.765a.6.6,0,0,0-.585-.585H6.93v-12.42H23.4a.6.6,0,0,0,.585-.585v-.765A.6.6,0,0,0,23.4-31.5H5.355a.6.6,0,0,0-.585.585Zm34.11,0A.6.6,0,0,0,39.465,0h.855A.6.6,0,0,0,40.9-.585v-27.36h.045C62.325.315,62.685.45,62.73.45h.585c.36,0,.72-.18.72-.585v-30.78a.6.6,0,0,0-.585-.585h-.9a.6.6,0,0,0-.585.585v27.09H61.92L40.32-31.95h-.765a.619.619,0,0,0-.675.585Zm46.665,0A.6.6,0,0,0,86.13,0h.81c.45,0,.72-.27.72-.585v-28.98H96.3a.567.567,0,0,0,.585-.585v-.765A.567.567,0,0,0,96.3-31.5H76.95a.567.567,0,0,0-.585.585v.675c0,.405.135.675.585.675h8.6Zm23.67,0A.6.6,0,0,0,109.8,0h.81c.45,0,.72-.27.72-.585V-12.15h8.28c.585,0,1.08,0,1.665-.045L127.8-.4a.637.637,0,0,0,.63.4h1.4c.45,0,.54-.45.315-.81l-6.57-11.655a9.848,9.848,0,0,0,7.425-9.405A9.762,9.762,0,0,0,120.96-31.5H109.8a.567.567,0,0,0-.585.585Zm2.16-13.455V-29.43h9.45a7.767,7.767,0,0,1,8.01,7.56,7.865,7.865,0,0,1-7.965,7.83ZM152.28-.585c0,.72.945.585,1.53.585a.6.6,0,0,0,.585-.585v-14.76l11.7-15.48c.27-.36.09-.675-.36-.675h-1.35a.726.726,0,0,0-.585.27l-10.44,14-10.26-14a.726.726,0,0,0-.585-.27h-1.35c-.45,0-.63.315-.36.675L152.28-15.3Z" transform="translate(0 47)" fill="#333"/><path d="M19.155,0,38.311,33.154H0Z" transform="translate(220.656 12.893) rotate(90)" fill="#fff"/><path d="M19.155,4,3.465,31.154h31.38L19.155,4m0-4L38.311,33.154H0Z" transform="translate(220.656 12.893) rotate(90)" fill="#333"/></g><path d="M0,0H221V9H0Z" transform="translate(580.446 5230.726)" fill="#fff"/><path d="M2,2V7H219V2H2M0,0H221V9H0Z" transform="translate(580.446 5230.726)" fill="#333"/></g></svg>