<svg xmlns="http://www.w3.org/2000/svg" width="221" height="72.875" viewBox="0 0 221 72.875">
  <g id="グループ_2806" data-name="グループ 2806" transform="translate(-580.446 -5166.851)">
    <g id="グループ_2690" data-name="グループ 2690" transform="translate(580.737 5153.958)">
      <path id="パス_849" data-name="パス 849" d="M4.77-.585A.6.6,0,0,0,5.355,0H23.4a.6.6,0,0,0,.585-.585V-1.3A.6.6,0,0,0,23.4-1.89H6.93V-15.21H21.195a.6.6,0,0,0,.585-.585v-.765a.6.6,0,0,0-.585-.585H6.93v-12.42H23.4a.6.6,0,0,0,.585-.585v-.765A.6.6,0,0,0,23.4-31.5H5.355a.6.6,0,0,0-.585.585Zm34.11,0A.6.6,0,0,0,39.465,0h.855A.6.6,0,0,0,40.9-.585v-27.36h.045C62.325.315,62.685.45,62.73.45h.585c.36,0,.72-.18.72-.585v-30.78a.6.6,0,0,0-.585-.585h-.9a.6.6,0,0,0-.585.585v27.09H61.92L40.32-31.95h-.765a.619.619,0,0,0-.675.585Zm46.665,0A.6.6,0,0,0,86.13,0h.81c.45,0,.72-.27.72-.585v-28.98H96.3a.567.567,0,0,0,.585-.585v-.765A.567.567,0,0,0,96.3-31.5H76.95a.567.567,0,0,0-.585.585v.675c0,.405.135.675.585.675h8.6Zm23.67,0A.6.6,0,0,0,109.8,0h.81c.45,0,.72-.27.72-.585V-12.15h8.28c.585,0,1.08,0,1.665-.045L127.8-.4a.637.637,0,0,0,.63.4h1.4c.45,0,.54-.45.315-.81l-6.57-11.655a9.848,9.848,0,0,0,7.425-9.405A9.762,9.762,0,0,0,120.96-31.5H109.8a.567.567,0,0,0-.585.585Zm2.16-13.455V-29.43h9.45a7.767,7.767,0,0,1,8.01,7.56,7.865,7.865,0,0,1-7.965,7.83ZM152.28-.585c0,.72.945.585,1.53.585a.6.6,0,0,0,.585-.585v-14.76l11.7-15.48c.27-.36.09-.675-.36-.675h-1.35a.726.726,0,0,0-.585.27l-10.44,14-10.26-14a.726.726,0,0,0-.585-.27h-1.35c-.45,0-.63.315-.36.675L152.28-15.3Z" transform="translate(0 47)" fill="#333"/>
      <g id="多角形_15" data-name="多角形 15" transform="translate(220.656 12.893) rotate(90)" fill="#fff">
        <path d="M 36.57812118530273 32.15359497070312 L 1.732697367668152 32.15359497070312 L 19.15540885925293 1.998906493186951 L 36.57812118530273 32.15359497070312 Z" stroke="none"/>
        <path d="M 19.15540885925293 3.997779846191406 L 3.465385437011719 31.15358543395996 L 34.84543228149414 31.15358543395996 L 19.15540885925293 3.997779846191406 M 19.15540885925293 -3.814697265625e-06 L 38.31081771850586 33.15358734130859 L 0 33.15358734130859 L 19.15540885925293 -3.814697265625e-06 Z" stroke="none" fill="#333"/>
      </g>
    </g>
    <g id="パス_850" data-name="パス 850" transform="translate(580.446 5230.726)" fill="#fff">
      <path d="M 220 8 L 1 8 L 1 1 L 220 1 L 220 8 Z" stroke="none"/>
      <path d="M 2 2 L 2 7 L 219 7 L 219 2 L 2 2 M 0 0 L 221 0 L 221 9 L 0 9 L 0 0 Z" stroke="none" fill="#333"/>
    </g>
  </g>
</svg>
