<svg xmlns="http://www.w3.org/2000/svg" width="180" height="36.721" viewBox="0 0 180 36.721">
  <g id="グループ_3024" data-name="グループ 3024" transform="translate(-18.583 -378.897)">
    <path id="パス_667" data-name="パス 667" d="M280.425,439.605V445.7h6.929l12.125-6.075h4.4l-12.908,6.838L303.94,453.3h-4.618l-12.093-6h-6.8v6.186h-3.118V439.605Z" transform="translate(-165.152 -38.752)"/>
    <path id="パス_668" data-name="パス 668" d="M134.628,439.938v1.6H121.743v12.244h-3.207V441.538H105.562v-1.6Z" transform="translate(-55.522 -38.964)"/>
    <g id="グループ_3020" data-name="グループ 3020" transform="translate(18.583 378.897)">
      <path id="パス_669" data-name="パス 669" d="M27.919,412.95a9.329,9.329,0,0,1-6.686-2.443h0c-2.442-2.376-3.231-6.135-2.221-10.585A27.794,27.794,0,0,1,26.4,387.127c7.83-8.041,18.256-10.637,23.24-5.787,2.442,2.375,3.231,6.135,2.222,10.585a27.789,27.789,0,0,1-7.386,12.8C39.317,410.016,33.032,412.95,27.919,412.95Zm15.01-33.282c-4.878,0-10.951,2.867-15.962,8.013A27,27,0,0,0,19.784,400.1c-.946,4.17-.235,7.665,2,9.841h0a8.584,8.584,0,0,0,6.157,2.241c4.879,0,10.952-2.866,15.964-8.011a26.991,26.991,0,0,0,7.18-12.418c.945-4.17.234-7.665-2-9.841A8.581,8.581,0,0,0,42.929,379.668Z" transform="translate(-18.583 -378.897)"/>
    </g>
    <path id="パス_670" data-name="パス 670" d="M65.184,426.267v15.01l12.388,4.579V430.724Z" transform="translate(-29.747 -30.238)"/>
    <path id="パス_671" data-name="パス 671" d="M467.923,439.207h-3.149v11.441a.888.888,0,0,1-.888.888H444.568a.888.888,0,0,1-.89-.888V439.207h-3.144l-.008,11.493.125.662a4.367,4.367,0,0,0,3.564,1.727h20.023a4.52,4.52,0,0,0,3.292-1.387,3.882,3.882,0,0,0,.272-.339l.122-.662Z" transform="translate(-269.34 -38.498)"/>
    <path id="パス_672" data-name="パス 672" d="M214.543,439.164h-18.11c-2.7,0-4.9,1-4.9,2.228v9.641c0,1.231,2.194,2.228,4.9,2.228h18.11c2.7,0,4.9-1,4.9-2.228v-9.641C219.44,440.161,217.247,439.164,214.543,439.164Zm1.707,11.674a.893.893,0,0,1-.892.89H195.6a.888.888,0,0,1-.89-.89V441.7a.889.889,0,0,1,.89-.89h19.762a.894.894,0,0,1,.892.89Z" transform="translate(-110.403 -38.47)"/>
    <path id="パス_673" data-name="パス 673" d="M380.149,439.4v6.163H359.675a.892.892,0,0,1-.892-.89v-5.282h-3.168v5.477c0,1.23,2.2,2.227,4.9,2.227h19.638v.005c-.043,0-.017,4.017-.017,4.017a1.1,1.1,0,0,1-1.016.639H355.676v1.56h23.218c1.635-.157,3.918-.5,4.358-2.043V439.4Z" transform="translate(-215.139 -38.616)"/>
    <g id="グループ_3023" data-name="グループ 3023" transform="translate(81.035 386.155)">
      <path id="パス_674" data-name="パス 674" d="M200.378,398.964v.832h7.453v.916h-7.453v.754h6.03V405.6h-4.3c.8.851,3.375,1.743,5.71,2.264l-.905.949a21.1,21.1,0,0,1-6.532-2.821v2.9h-1.627v-2.874a21.3,21.3,0,0,1-6.473,2.672l-1.018-.9c1.937-.369,5.373-1.532,5.75-2.192h-4.2v-4.136h5.936v-.754h-7.315V399.8h7.315v-.832Zm0,3.331v.828h4.428v-.828Zm-5.9,0v.828h4.272v-.828Zm5.9,1.637v.844h4.428v-.844Zm-5.9,0v.844h4.272v-.844Z" transform="translate(-191.26 -398.964)" stroke="#fff" stroke-width="0.044"/>
      <g id="グループ_3021" data-name="グループ 3021" transform="translate(17.457 0.086)">
        <path id="パス_675" data-name="パス 675" d="M253.534,418.7c.051.788-.169,1.171.353,1.386h4.33a.488.488,0,0,0,.621-.472,4.189,4.189,0,0,1,.12-.488l1.654.282a1.615,1.615,0,0,1-.432,1.147,3.109,3.109,0,0,1-1.993.462h-5.1c-.4-.092-1.011-.153-1.133-.582v-2.313h1.577Z" transform="translate(-247.461 -411.281)" stroke="#fff" stroke-width="0.044"/>
        <path id="パス_676" data-name="パス 676" d="M276.022,418.152a13.851,13.851,0,0,1,2.5,2.135l-1.378.6-2.423-2.247Z" transform="translate(-261.99 -411.299)" stroke="#fff" stroke-width="0.044"/>
        <path id="パス_677" data-name="パス 677" d="M243.157,418.617a6.415,6.415,0,0,1-2.087,2.39l-1.543-.572a14.5,14.5,0,0,0,2.14-2.215Z" transform="translate(-239.527 -411.342)" stroke="#fff" stroke-width="0.044"/>
        <path id="パス_678" data-name="パス 678" d="M241.735,405.661v-.818h11.4v-.826H241.918v-.731h11.219v-.82H242.376c0,.015,0-.4,0-.4a14.632,14.632,0,0,1-1.54.507l-.9-.721c2.215-.821,3.778-1.3,5.376-2.649h1.764c-.005.233-.281.455-.494.627h6.2c.012.89-1.418,1.479-1.874,1.822h3.917v4.008Zm6.986.147c.745.648.992.808,1.459,1.193l-1.434.572-1.618-1.342a4.05,4.05,0,0,1,1.593-.423m-3.481-5.081-1.441.771-.3.155H248.5a4.423,4.423,0,0,0,1.792-.926Z" transform="translate(-239.789 -399.203)" stroke="#fff" stroke-width="0.044"/>
      </g>
      <path id="パス_679" data-name="パス 679" d="M302.83,400.453v.958h-7.3a4.187,4.187,0,0,1-.642,1.391h6.423v7.086h-1.726v-.455H289.576v.455h-1.73V402.8H292.9a2.485,2.485,0,0,0,.792-1.391h-7.365v-.958Zm-13.253,3.405v1.659h10.007v-1.659Zm0,2.7v1.872h10.007v-1.872Z" transform="translate(-251.944 -399.915)" stroke="#fff" stroke-width="0.044"/>
      <g id="グループ_3022" data-name="グループ 3022" transform="translate(51.651 0.247)">
        <path id="パス_680" data-name="パス 680" d="M336.929,401.687v1.385h1.648v-2.029a4.4,4.4,0,0,0,1.425-.928l-1.425-.467a17.155,17.155,0,0,1-4.5,1.79l.672.9A13.033,13.033,0,0,0,336.929,401.687Z" transform="translate(-334.073 -399.648)" stroke="#fff" stroke-width="0.044"/>
        <path id="パス_681" data-name="パス 681" d="M361.283,401.348a4.9,4.9,0,0,0-.124.562c-.167.242-.633.242-1.448.255h-4.358c-.316-.129-.361-.346-.356-.674,6.022-.319,7.517-.8,7.517-.8l-.945-.824a24.8,24.8,0,0,1-6.57.675v-.82h-1.708v2.706c.123.429.728.49,1.131.583h5.257c.708-.03,2.2.02,2.725-.439.309-.309.535-.535.535-.936Z" transform="translate(-346.339 -399.692)" stroke="#fff" stroke-width="0.044"/>
        <path id="パス_682" data-name="パス 682" d="M349.394,410.312v4.412h-2.867s.5.518,4.686.762l-.495.826a19.814,19.814,0,0,1-5.652-.974,2.6,2.6,0,0,0,.822-.614h-5.723c-.03.288.446.482.63.7a17.363,17.363,0,0,1-5.38.939c-.184-.246-.618-.7-.647-.921,1.319-.078,3.7-.07,4.917-.713h-3.278v-4.412Zm-11.252.738v.457h9.543v-.457Zm0,1.248v.456h9.543V412.3Zm0,1.171v.457h9.543v-.457Z" transform="translate(-334.517 -406.455)" stroke="#fff" stroke-width="0.044"/>
      </g>
      <path id="パス_683" data-name="パス 683" d="M393.382,399.508v1.008H400v.974h-6.617v1.384H400v.889h-6.617v1.458h5.829v4.213h-1.67v-.451h-8v.451h-1.67V405.22h3.718V401.49H386.8c-.059,2.641.122,5.825-1.935,7.7l-1.455-.862c2.036-2.289,1.746-5.024,1.616-7.808h6.566v-1.008Zm-3.842,6.709v1.775h8v-1.775Z" transform="translate(-313.912 -399.311)" stroke="#fff" stroke-width="0.044"/>
    </g>
  </g>
</svg>
