<svg xmlns="http://www.w3.org/2000/svg" width="298.199" height="43.2" viewBox="0 0 298.199 43.2"><path d="M2.4-20.94A21.51,21.51,0,0,0,24.06.6,20.593,20.593,0,0,0,38.64-5.22a1.142,1.142,0,0,0,.06-1.62l-3.72-3.84a1.105,1.105,0,0,0-1.5,0A14.4,14.4,0,0,1,24.3-7.26,13.587,13.587,0,0,1,10.86-21.12c0-7.56,5.7-13.98,13.38-13.98a14.2,14.2,0,0,1,9.24,3.54.961.961,0,0,0,1.5,0l3.66-3.78a1.115,1.115,0,0,0-.06-1.68A20.307,20.307,0,0,0,24.06-42.6,21.612,21.612,0,0,0,2.4-20.94ZM53.1-15.9A16.455,16.455,0,0,0,69.78.6,16.469,16.469,0,0,0,86.52-15.9V-40.86A1.18,1.18,0,0,0,85.38-42h-5.7a1.139,1.139,0,0,0-1.14,1.14v24.6c0,5.04-3.54,9.06-8.76,9.06s-8.7-4.02-8.7-9.12V-40.86A1.139,1.139,0,0,0,59.94-42h-5.7a1.18,1.18,0,0,0-1.14,1.14ZM104.04-1.14A1.139,1.139,0,0,0,105.18,0h21.96a1.139,1.139,0,0,0,1.14-1.14V-6.06a1.139,1.139,0,0,0-1.14-1.14h-15.3V-40.86A1.18,1.18,0,0,0,110.7-42h-5.52a1.139,1.139,0,0,0-1.14,1.14Zm40.74,0A1.18,1.18,0,0,0,145.92,0h5.58a1.18,1.18,0,0,0,1.14-1.14V-34.8h9.18a1.139,1.139,0,0,0,1.14-1.14v-4.92A1.139,1.139,0,0,0,161.82-42H135.6a1.139,1.139,0,0,0-1.14,1.14v4.92a1.139,1.139,0,0,0,1.14,1.14h9.18ZM175.8-15.9A16.455,16.455,0,0,0,192.48.6a16.469,16.469,0,0,0,16.74-16.5V-40.86A1.18,1.18,0,0,0,208.08-42h-5.7a1.139,1.139,0,0,0-1.14,1.14v24.6c0,5.04-3.54,9.06-8.76,9.06s-8.7-4.02-8.7-9.12V-40.86A1.139,1.139,0,0,0,182.64-42h-5.7a1.18,1.18,0,0,0-1.14,1.14ZM226.74-1.14A1.139,1.139,0,0,0,227.88,0h5.52a1.18,1.18,0,0,0,1.14-1.14v-15.3h6.66l7.98,15.9a1.028,1.028,0,0,0,.96.54h6.3a1.135,1.135,0,0,0,1.02-1.74l-8.22-15.24c5.22-2.1,8.88-6.6,8.88-12.12A13,13,0,0,0,245.04-42H227.88a1.139,1.139,0,0,0-1.14,1.14Zm7.86-21.72V-34.8h9.78a5.969,5.969,0,0,1,5.94,5.82,6.111,6.111,0,0,1-5.94,6.12ZM273.9-1.14A1.139,1.139,0,0,0,275.04,0h24.42a1.139,1.139,0,0,0,1.14-1.14V-6.06a1.139,1.139,0,0,0-1.14-1.14H281.7V-17.7h14.82a1.139,1.139,0,0,0,1.14-1.14v-4.98a1.18,1.18,0,0,0-1.14-1.14H281.7V-34.8h17.76a1.139,1.139,0,0,0,1.14-1.14v-4.92A1.139,1.139,0,0,0,299.46-42H275.04a1.139,1.139,0,0,0-1.14,1.14Z" transform="translate(-2.4 42.6)" fill="#16344f"/></svg>