<svg xmlns="http://www.w3.org/2000/svg" width="290.76" height="43.2" viewBox="0 0 290.76 43.2"><path d="M5.46-1.14A1.139,1.139,0,0,0,6.6,0h5.52a1.18,1.18,0,0,0,1.14-1.14v-14.1h7.5a13.5,13.5,0,0,0,13.38-13.5A13.419,13.419,0,0,0,20.7-42H6.6a1.139,1.139,0,0,0-1.14,1.14Zm7.8-21.42V-34.62h6.96A5.986,5.986,0,0,1,26.4-28.8a6.184,6.184,0,0,1-6.18,6.24ZM48.18-1.14A1.139,1.139,0,0,0,49.32,0h5.52a1.18,1.18,0,0,0,1.14-1.14v-15.3h6.66L70.62-.54a1.028,1.028,0,0,0,.96.54h6.3A1.135,1.135,0,0,0,78.9-1.74L70.68-16.98c5.22-2.1,8.88-6.6,8.88-12.12A13,13,0,0,0,66.48-42H49.32a1.139,1.139,0,0,0-1.14,1.14Zm7.86-21.72V-34.8h9.78a5.969,5.969,0,0,1,5.94,5.82,6.111,6.111,0,0,1-5.94,6.12Zm36.3,1.92A21.409,21.409,0,0,0,113.88.6a21.459,21.459,0,0,0,21.6-21.54,21.561,21.561,0,0,0-21.6-21.66A21.51,21.51,0,0,0,92.34-20.94Zm7.8,0A13.88,13.88,0,0,1,113.88-34.8a13.931,13.931,0,0,1,13.8,13.86A13.828,13.828,0,0,1,113.88-7.2,13.777,13.777,0,0,1,100.14-20.94ZM143.16-3.78A11.5,11.5,0,0,0,152.28.6c7.02,0,12.6-4.8,12.6-13.14V-40.86A1.139,1.139,0,0,0,163.74-42H158.1a1.139,1.139,0,0,0-1.14,1.14v28.32c0,4.14-2.46,6.06-4.8,6.06A5.218,5.218,0,0,1,148.2-8.4a1.159,1.159,0,0,0-1.8-.06l-3.12,3.18A1.263,1.263,0,0,0,143.16-3.78Zm38.7,2.64A1.139,1.139,0,0,0,183,0h24.42a1.139,1.139,0,0,0,1.14-1.14V-6.06a1.139,1.139,0,0,0-1.14-1.14H189.66V-17.7h14.82a1.139,1.139,0,0,0,1.14-1.14v-4.98a1.18,1.18,0,0,0-1.14-1.14H189.66V-34.8h17.76a1.139,1.139,0,0,0,1.14-1.14v-4.92A1.139,1.139,0,0,0,207.42-42H183a1.139,1.139,0,0,0-1.14,1.14Zm39.24-19.8A21.51,21.51,0,0,0,242.76.6a20.593,20.593,0,0,0,14.58-5.82,1.142,1.142,0,0,0,.06-1.62l-3.72-3.84a1.105,1.105,0,0,0-1.5,0A14.4,14.4,0,0,1,243-7.26a13.587,13.587,0,0,1-13.44-13.86c0-7.56,5.7-13.98,13.38-13.98a14.2,14.2,0,0,1,9.24,3.54.961.961,0,0,0,1.5,0l3.66-3.78a1.115,1.115,0,0,0-.06-1.68,20.307,20.307,0,0,0-14.52-5.58A21.612,21.612,0,0,0,221.1-20.94Zm56.94,19.8A1.18,1.18,0,0,0,279.18,0h5.58a1.18,1.18,0,0,0,1.14-1.14V-34.8h9.18a1.139,1.139,0,0,0,1.14-1.14v-4.92A1.139,1.139,0,0,0,295.08-42H268.86a1.139,1.139,0,0,0-1.14,1.14v4.92a1.139,1.139,0,0,0,1.14,1.14h9.18Z" transform="translate(-5.46 42.6)" fill="#16344f"/></svg>