<svg xmlns="http://www.w3.org/2000/svg" width="285" height="43.2" viewBox="0 0 285 43.2"><path d="M5.46-1.14A1.139,1.139,0,0,0,6.6,0h5.52a1.18,1.18,0,0,0,1.14-1.14v-15.3h6.66L27.9-.54a1.028,1.028,0,0,0,.96.54h6.3a1.135,1.135,0,0,0,1.02-1.74L27.96-16.98c5.22-2.1,8.88-6.6,8.88-12.12A13,13,0,0,0,23.76-42H6.6a1.139,1.139,0,0,0-1.14,1.14Zm7.86-21.72V-34.8H23.1a5.969,5.969,0,0,1,5.94,5.82,6.111,6.111,0,0,1-5.94,6.12ZM52.62-1.14A1.139,1.139,0,0,0,53.76,0H78.18a1.139,1.139,0,0,0,1.14-1.14V-6.06A1.139,1.139,0,0,0,78.18-7.2H60.42V-17.7H75.24a1.139,1.139,0,0,0,1.14-1.14v-4.98a1.18,1.18,0,0,0-1.14-1.14H60.42V-34.8H78.18a1.139,1.139,0,0,0,1.14-1.14v-4.92A1.139,1.139,0,0,0,78.18-42H53.76a1.139,1.139,0,0,0-1.14,1.14Zm39.24-19.8A21.51,21.51,0,0,0,113.52.6,20.593,20.593,0,0,0,128.1-5.22a1.142,1.142,0,0,0,.06-1.62l-3.72-3.84a1.105,1.105,0,0,0-1.5,0,14.4,14.4,0,0,1-9.18,3.42,13.587,13.587,0,0,1-13.44-13.86c0-7.56,5.7-13.98,13.38-13.98a14.2,14.2,0,0,1,9.24,3.54.961.961,0,0,0,1.5,0l3.66-3.78a1.115,1.115,0,0,0-.06-1.68,20.307,20.307,0,0,0-14.52-5.58A21.612,21.612,0,0,0,91.86-20.94Zm51.3,19.8A1.139,1.139,0,0,0,144.3,0h5.52a1.18,1.18,0,0,0,1.14-1.14v-15.3h6.66L165.6-.54a1.028,1.028,0,0,0,.96.54h6.3a1.135,1.135,0,0,0,1.02-1.74l-8.22-15.24c5.22-2.1,8.88-6.6,8.88-12.12A13,13,0,0,0,161.46-42H144.3a1.139,1.139,0,0,0-1.14,1.14Zm7.86-21.72V-34.8h9.78a5.969,5.969,0,0,1,5.94,5.82,6.111,6.111,0,0,1-5.94,6.12Zm38.7,6.96A16.455,16.455,0,0,0,206.4.6a16.469,16.469,0,0,0,16.74-16.5V-40.86A1.18,1.18,0,0,0,222-42h-5.7a1.139,1.139,0,0,0-1.14,1.14v24.6c0,5.04-3.54,9.06-8.76,9.06s-8.7-4.02-8.7-9.12V-40.86A1.139,1.139,0,0,0,196.56-42h-5.7a1.18,1.18,0,0,0-1.14,1.14ZM240.66-1.14A1.18,1.18,0,0,0,241.8,0h5.58a1.18,1.18,0,0,0,1.14-1.14V-40.86A1.18,1.18,0,0,0,247.38-42H241.8a1.18,1.18,0,0,0-1.14,1.14Zm31.62,0A1.18,1.18,0,0,0,273.42,0H279a1.18,1.18,0,0,0,1.14-1.14V-34.8h9.18a1.139,1.139,0,0,0,1.14-1.14v-4.92A1.139,1.139,0,0,0,289.32-42H263.1a1.139,1.139,0,0,0-1.14,1.14v4.92a1.139,1.139,0,0,0,1.14,1.14h9.18Z" transform="translate(-5.46 42.6)" fill="#16344f"/></svg>