<svg xmlns="http://www.w3.org/2000/svg" width="234.9" height="43.2" viewBox="0 0 234.9 43.2"><path d="M18.54-.06A1.078,1.078,0,0,0,19.56.6h.6a1.078,1.078,0,0,0,1.02-.66l18.6-40.38A1.059,1.059,0,0,0,38.76-42H32.64a1.1,1.1,0,0,0-1.02.66L20.1-15.54h-.42L8.16-41.34A1.1,1.1,0,0,0,7.14-42H1.02A1.059,1.059,0,0,0,0-40.44Zm33.9-1.08A1.18,1.18,0,0,0,53.58,0h5.58A1.18,1.18,0,0,0,60.3-1.14V-40.86A1.18,1.18,0,0,0,59.16-42H53.58a1.18,1.18,0,0,0-1.14,1.14ZM76.26-4.08C77.46-2.94,81.9.6,89.46.6c8.46,0,13.8-5.7,13.8-11.88,0-7.74-6.72-11.22-12.54-13.56-4.86-1.98-7.08-3.9-7.08-6.72,0-1.92,1.86-4.2,5.28-4.2,3.3,0,7.86,3,8.34,3.3a1.579,1.579,0,0,0,2.1-.72l2.28-3.42a1.486,1.486,0,0,0-.36-1.98,21.124,21.124,0,0,0-12-4.02c-9.54,0-13.5,6.18-13.5,11.52,0,7.08,5.64,10.68,11.28,12.96,5.04,2.04,7.62,4.14,7.62,7.2,0,2.58-2.34,4.62-5.46,4.62-3.9,0-8.76-3.54-9.06-3.72a1.39,1.39,0,0,0-2.04.42L75.96-5.88C75.42-4.92,75.72-4.62,76.26-4.08Zm41.88,2.94A1.18,1.18,0,0,0,119.28,0h5.58A1.18,1.18,0,0,0,126-1.14V-40.86A1.18,1.18,0,0,0,124.86-42h-5.58a1.18,1.18,0,0,0-1.14,1.14Zm22.98-19.8A21.409,21.409,0,0,0,162.66.6a21.459,21.459,0,0,0,21.6-21.54,21.561,21.561,0,0,0-21.6-21.66A21.51,21.51,0,0,0,141.12-20.94Zm7.8,0A13.88,13.88,0,0,1,162.66-34.8a13.931,13.931,0,0,1,13.8,13.86A13.828,13.828,0,0,1,162.66-7.2,13.777,13.777,0,0,1,148.92-20.94Zm50.4,19.8A1.18,1.18,0,0,0,200.46,0h5.46a1.139,1.139,0,0,0,1.14-1.14v-25.8h.06L232.2.6h1.44a1.128,1.128,0,0,0,1.14-1.08V-40.86A1.18,1.18,0,0,0,233.64-42h-5.52a1.139,1.139,0,0,0-1.14,1.14v24.78h-.06L201.96-42.6h-1.5a1.128,1.128,0,0,0-1.14,1.08Z" transform="translate(0.12 42.6)" fill="#16344f"/></svg>