<svg xmlns="http://www.w3.org/2000/svg" width="115" height="61.553" viewBox="0 0 115 61.553">
  <g id="グループ_3199" data-name="グループ 3199" transform="translate(-26 -37.352)">
    <text id="RECRUITMENT" transform="translate(84 93.905)" fill="#16344f" font-size="14" font-family="BrandonGrotesque-Medium, Brandon Grotesque" font-weight="500" letter-spacing="0.12em"><tspan x="-56.21" y="0">RECRUITMENT</tspan></text>
    <g id="グループ_3019" data-name="グループ 3019" transform="translate(7.417 -341.545)">
      <path id="パス_667" data-name="パス 667" d="M279.3,439.605V443.5h4.427l7.747-3.881h2.809l-8.247,4.368,8.288,4.368h-2.95l-7.726-3.831H279.3v3.952h-1.992v-8.871Z" transform="translate(-198.942 -46.681)"/>
      <path id="パス_668" data-name="パス 668" d="M124.132,439.938v1.023H115.9v7.822h-2.049V440.96h-8.289v-1.023Z" transform="translate(-66.881 -46.936)"/>
      <g id="グループ_3020" data-name="グループ 3020" transform="translate(18.583 378.897)">
        <path id="パス_669" data-name="パス 669" d="M24.548,400.653a5.96,5.96,0,0,1-4.272-1.561h0c-1.56-1.518-2.064-3.919-1.419-6.763a17.758,17.758,0,0,1,4.72-8.174c5-5.137,11.663-6.8,14.848-3.7,1.56,1.518,2.064,3.919,1.42,6.762a17.754,17.754,0,0,1-4.719,8.175C31.829,398.779,27.814,400.653,24.548,400.653Zm9.589-21.264c-3.117,0-7,1.832-10.2,5.119a17.247,17.247,0,0,0-4.589,7.933c-.6,2.664-.15,4.9,1.278,6.287h0a5.485,5.485,0,0,0,3.933,1.431c3.117,0,7-1.831,10.2-5.118a17.245,17.245,0,0,0,4.587-7.934c.6-2.664.15-4.9-1.279-6.287A5.482,5.482,0,0,0,34.137,379.39Z" transform="translate(-18.583 -378.897)"/>
      </g>
      <path id="パス_670" data-name="パス 670" d="M65.184,426.267v9.59l7.915,2.925v-9.668Z" transform="translate(-35.833 -36.425)"/>
      <path id="パス_671" data-name="パス 671" d="M458.03,439.207h-2.012v7.31a.567.567,0,0,1-.567.567H443.109a.567.567,0,0,1-.568-.567v-7.31h-2.009l-.005,7.343.08.423a2.79,2.79,0,0,0,2.277,1.1h12.792a2.888,2.888,0,0,0,2.1-.886,2.48,2.48,0,0,0,.174-.217l.078-.423Z" transform="translate(-324.447 -46.374)"/>
      <path id="パス_672" data-name="パス 672" d="M206.236,439.164h-11.57c-1.726,0-3.128.637-3.128,1.423v6.16c0,.787,1.4,1.423,3.128,1.423h11.57c1.727,0,3.129-.637,3.129-1.423v-6.16C209.364,439.8,207.963,439.164,206.236,439.164Zm1.091,7.459a.57.57,0,0,1-.57.569H194.131a.567.567,0,0,1-.569-.569v-5.836a.568.568,0,0,1,.569-.569h12.626a.571.571,0,0,1,.57.569Z" transform="translate(-132.991 -46.341)"/>
      <path id="パス_673" data-name="パス 673" d="M371.29,439.4v3.938H358.209a.57.57,0,0,1-.57-.569v-3.375h-2.024v3.5c0,.786,1.4,1.423,3.128,1.423H371.29v0c-.028,0-.011,2.566-.011,2.566a.7.7,0,0,1-.649.408H355.654v1h14.834c1.045-.1,2.5-.322,2.785-1.306V439.4Z" transform="translate(-259.156 -46.517)"/>
      <g id="グループ_3023" data-name="グループ 3023" transform="translate(58.483 383.534)">
        <path id="パス_674" data-name="パス 674" d="M197.085,398.964v.532h4.762v.585h-4.762v.482h3.852v2.643h-2.749a9.087,9.087,0,0,0,3.648,1.446l-.578.606a13.477,13.477,0,0,1-4.173-1.8v1.856h-1.04v-1.836a13.607,13.607,0,0,1-4.136,1.707l-.65-.576c1.238-.236,3.432-.979,3.673-1.4h-2.68v-2.643h3.793v-.482h-4.674V399.5h4.674v-.532Zm0,2.128v.529h2.829v-.529Zm-3.769,0v.529h2.729v-.529Zm3.769,1.046v.539h2.829v-.539Zm-3.769,0v.539h2.729v-.539Z" transform="translate(-191.26 -398.964)" stroke="#fff" stroke-width="0.044"/>
        <g id="グループ_3021" data-name="グループ 3021" transform="translate(11.153 0.055)">
          <path id="パス_675" data-name="パス 675" d="M252.964,418.494c.033.5-.108.748.226.885h2.766a.311.311,0,0,0,.4-.3,2.68,2.68,0,0,1,.077-.312l1.057.18a1.032,1.032,0,0,1-.276.733,1.986,1.986,0,0,1-1.274.295h-3.256c-.257-.059-.646-.1-.724-.372v-1.478h1.007Z" transform="translate(-249.085 -413.752)" stroke="#fff" stroke-width="0.044"/>
          <path id="パス_676" data-name="パス 676" d="M275.551,418.152a8.849,8.849,0,0,1,1.595,1.364l-.881.384-1.548-1.436Z" transform="translate(-266.586 -413.774)" stroke="#fff" stroke-width="0.044"/>
          <path id="パス_677" data-name="パス 677" d="M241.846,418.474A4.1,4.1,0,0,1,240.513,420l-.986-.366a9.26,9.26,0,0,0,1.367-1.415Z" transform="translate(-239.527 -413.826)" stroke="#fff" stroke-width="0.044"/>
          <path id="パス_678" data-name="パス 678" d="M241.086,403.329v-.523h7.284v-.528H241.2v-.467h7.167v-.524H241.5c0,.01,0-.255,0-.255a9.336,9.336,0,0,1-.984.324l-.573-.461a10.3,10.3,0,0,0,3.435-1.692H244.5c0,.149-.18.29-.315.4h3.961c.007.569-.906.945-1.2,1.164h2.5v2.561Zm4.463.094c.476.414.634.516.932.762l-.916.365-1.034-.857a2.587,2.587,0,0,1,1.018-.271m-2.224-3.246-.921.492-.193.1h3.2a2.825,2.825,0,0,0,1.145-.591Z" transform="translate(-239.842 -399.203)" stroke="#fff" stroke-width="0.044"/>
        </g>
        <path id="パス_679" data-name="パス 679" d="M296.87,400.453v.612h-4.664a2.675,2.675,0,0,1-.41.889h4.1v4.527h-1.1v-.291H288.4v.291h-1.1v-4.527h3.227a1.587,1.587,0,0,0,.506-.889h-4.705v-.612Zm-8.467,2.176v1.06H294.8v-1.06Zm0,1.727v1.2H294.8v-1.2Z" transform="translate(-264.36 -400.109)" stroke="#fff" stroke-width="0.044"/>
        <g id="グループ_3022" data-name="グループ 3022" transform="translate(32.999 0.158)">
          <path id="パス_680" data-name="パス 680" d="M335.9,400.951v.885h1.053v-1.3a2.813,2.813,0,0,0,.91-.593l-.91-.3a10.96,10.96,0,0,1-2.878,1.144l.43.574A8.323,8.323,0,0,0,335.9,400.951Z" transform="translate(-334.073 -399.648)" stroke="#fff" stroke-width="0.044"/>
          <path id="パス_681" data-name="パス 681" d="M358.4,400.759a3.132,3.132,0,0,0-.079.359c-.107.155-.4.155-.925.163h-2.784c-.2-.082-.231-.221-.228-.431a24.274,24.274,0,0,0,4.8-.514l-.6-.526a15.842,15.842,0,0,1-4.2.431v-.524h-1.092v1.729c.079.274.465.313.723.373h3.359c.452-.019,1.407.013,1.741-.28.2-.2.342-.342.342-.6Z" transform="translate(-348.848 -399.701)" stroke="#fff" stroke-width="0.044"/>
          <path id="パス_682" data-name="パス 682" d="M344.113,410.312v2.819h-1.832s.321.331,2.994.487l-.316.527a12.659,12.659,0,0,1-3.611-.622,1.663,1.663,0,0,0,.525-.392h-3.656c-.019.184.285.308.4.444a11.093,11.093,0,0,1-3.437.6c-.118-.157-.395-.45-.413-.589a9.224,9.224,0,0,0,3.142-.456h-2.094v-2.819Zm-7.189.472v.292h6.1v-.292Zm0,.8v.292h6.1v-.292Zm0,.748v.292h6.1v-.292Z" transform="translate(-334.608 -407.848)" stroke="#fff" stroke-width="0.044"/>
        </g>
        <path id="パス_683" data-name="パス 683" d="M389.779,399.508v.644h4.228v.622h-4.228v.884h4.228v.568h-4.228v.932H393.5v2.692h-1.067v-.288h-5.112v.288h-1.067v-2.692h2.376v-2.384h-3.062c-.038,1.688.078,3.721-1.236,4.917l-.93-.551c1.3-1.462,1.115-3.21,1.032-4.988h4.2v-.644Zm-2.455,4.286v1.134h5.112v-1.134Z" transform="translate(-339.007 -399.382)" stroke="#fff" stroke-width="0.044"/>
      </g>
    </g>
  </g>
</svg>
