<svg xmlns="http://www.w3.org/2000/svg" width="115" height="61.553" viewBox="0 0 115 61.553">
  <g id="グループ_3199" data-name="グループ 3199" transform="translate(-26 -37.352)">
    <text id="RECRUITMENT" transform="translate(84 93.905)" fill="#16344f" font-size="14" font-family="BrandonGrotesque-Medium, Brandon Grotesque" font-weight="500" letter-spacing="0.12em"><tspan x="-56.21" y="0">RECRUITMENT</tspan></text>
    <g id="グループ_3019" data-name="グループ 3019" transform="translate(7.417 -341.545)">
      <path id="パス_667" data-name="パス 667" d="M279.3,439.605V443.5h4.427l7.747-3.881h2.809l-8.247,4.368,8.288,4.368h-2.95l-7.726-3.831H279.3v3.952h-1.992v-8.871Z" transform="translate(-198.942 -46.681)"/>
      <path id="パス_668" data-name="パス 668" d="M124.132,439.938v1.023H115.9v7.822h-2.049V440.96h-8.289v-1.023Z" transform="translate(-66.881 -46.936)"/>
      <g id="グループ_3020" data-name="グループ 3020" transform="translate(18.583 378.897)">
        <path id="パス_669" data-name="パス 669" d="M24.548,400.653a5.96,5.96,0,0,1-4.272-1.561h0c-1.56-1.518-2.064-3.919-1.419-6.763a17.758,17.758,0,0,1,4.72-8.174c5-5.137,11.663-6.8,14.848-3.7,1.56,1.518,2.064,3.919,1.42,6.762a17.754,17.754,0,0,1-4.719,8.175C31.829,398.779,27.814,400.653,24.548,400.653Zm9.589-21.264c-3.117,0-7,1.832-10.2,5.119a17.247,17.247,0,0,0-4.589,7.933c-.6,2.664-.15,4.9,1.278,6.287h0a5.485,5.485,0,0,0,3.933,1.431c3.117,0,7-1.831,10.2-5.118a17.245,17.245,0,0,0,4.587-7.934c.6-2.664.15-4.9-1.279-6.287A5.482,5.482,0,0,0,34.137,379.39Z" transform="translate(-18.583 -378.897)"/>
      </g>
      <path id="パス_670" data-name="パス 670" d="M65.184,426.267v9.59l7.915,2.925v-9.668Z" transform="translate(-35.833 -36.425)"/>
      <path id="パス_671" data-name="パス 671" d="M458.03,439.207h-2.012v7.31a.567.567,0,0,1-.567.567H443.109a.567.567,0,0,1-.568-.567v-7.31h-2.009l-.005,7.343.08.423a2.79,2.79,0,0,0,2.277,1.1h12.792a2.888,2.888,0,0,0,2.1-.886,2.48,2.48,0,0,0,.174-.217l.078-.423Z" transform="translate(-324.447 -46.374)"/>
      <path id="パス_672" data-name="パス 672" d="M206.236,439.164h-11.57c-1.726,0-3.128.637-3.128,1.423v6.16c0,.787,1.4,1.423,3.128,1.423h11.57c1.727,0,3.129-.637,3.129-1.423v-6.16C209.364,439.8,207.963,439.164,206.236,439.164Zm1.091,7.459a.57.57,0,0,1-.57.569H194.131a.567.567,0,0,1-.569-.569v-5.836a.568.568,0,0,1,.569-.569h12.626a.571.571,0,0,1,.57.569Z" transform="translate(-132.991 -46.341)"/>
      <path id="パス_673" data-name="パス 673" d="M371.29,439.4v3.938H358.209a.57.57,0,0,1-.57-.569v-3.375h-2.024v3.5c0,.786,1.4,1.423,3.128,1.423H371.29v0c-.028,0-.011,2.566-.011,2.566a.7.7,0,0,1-.649.408H355.654v1h14.834c1.045-.1,2.5-.322,2.785-1.306V439.4Z" transform="translate(-259.156 -46.517)"/>
      <g id="グループ_3023" data-name="グループ 3023" transform="translate(58.483 383.534)">
        <path id="パス_674" data-name="パス 674" d="M197.085,398.964v.532h4.762v.585h-4.762v.482h3.852v2.643h-2.749a9.087,9.087,0,0,0,3.648,1.446l-.578.606a13.477,13.477,0,0,1-4.173-1.8v1.856h-1.04v-1.836a13.607,13.607,0,0,1-4.136,1.707l-.65-.576c1.238-.236,3.432-.979,3.673-1.4h-2.68v-2.643h3.793v-.482h-4.674V399.5h4.674v-.532Zm0,2.128v.529h2.829v-.529Zm-3.769,0v.529h2.729v-.529Zm3.769,1.046v.539h2.829v-.539Zm-3.769,0v.539h2.729v-.539Z" transform="translate(-191.26 -398.964)"/>
        <path id="パス_674_-_アウトライン" data-name="パス 674 - アウトライン" d="M196.024,398.942h1.083v.532h4.762v.629h-4.762v.438h3.852v2.686h-2.719a9.528,9.528,0,0,0,3.6,1.4l.038.008-.614.643-.012,0a13.576,13.576,0,0,1-4.146-1.783v1.837h-1.083v-1.819a13.617,13.617,0,0,1-4.109,1.69l-.011,0-.692-.613.044-.008a10.336,10.336,0,0,0,3.636-1.357h-2.661v-2.686h3.793V400.1H191.35v-.629h4.674Zm1.04.044h-1v.532h-4.674v.542h4.674v.526h-3.793v2.6h2.7l-.019.033c-.244.426-2.39,1.156-3.645,1.4l.609.54a13.586,13.586,0,0,0,4.118-1.7l.033-.02v1.854h1v-1.874l.034.022a13.524,13.524,0,0,0,4.154,1.8l.543-.569a9.1,9.1,0,0,1-3.622-1.444l-.035-.037h2.778v-2.6h-3.852v-.526h4.762v-.542h-4.762Zm-3.769,2.085h2.773v.572h-2.773Zm2.729.044h-2.686v.485h2.686Zm1.04-.044h2.873v.572h-2.873Zm2.829.044h-2.786v.485h2.786Zm-6.6,1h2.773v.583h-2.773Zm2.729.044h-2.686v.5h2.686Zm1.04-.044h2.873v.583h-2.873Zm2.829.044h-2.786v.5h2.786Z" transform="translate(-191.26 -398.964)" fill="#fff"/>
        <g id="グループ_3021" data-name="グループ 3021" transform="translate(11.153 0.055)">
          <path id="パス_675" data-name="パス 675" d="M252.964,418.494c.033.5-.108.748.226.885h2.766a.311.311,0,0,0,.4-.3,2.68,2.68,0,0,1,.077-.312l1.057.18a1.032,1.032,0,0,1-.276.733,1.986,1.986,0,0,1-1.274.295h-3.256c-.257-.059-.646-.1-.724-.372v-1.478h1.007Z" transform="translate(-249.085 -413.752)"/>
          <path id="パス_675_-_アウトライン" data-name="パス 675 - アウトライン" d="M251.935,418.1h1.051v.392a3.434,3.434,0,0,1,0,.366c-.01.26-.015.4.207.5h2.762a.527.527,0,0,0,.081.007.282.282,0,0,0,.294-.289c.063-.31.078-.321.086-.327l.008-.006,1.084.185v.018a1.05,1.05,0,0,1-.283.748,1.728,1.728,0,0,1-1.133.3l-.155.006h-3.257l-.114-.024c-.249-.051-.56-.114-.631-.364V418.1Zm1.007.044h-.964V419.6c.066.222.36.282.6.33l.11.023h3.251l.154-.006a1.7,1.7,0,0,0,1.1-.284,1,1,0,0,0,.269-.7l-1.022-.174c-.014.04-.044.172-.068.292a.334.334,0,0,1-.422.319h-2.767l0,0c-.254-.1-.248-.269-.238-.541a3.417,3.417,0,0,0,0-.363Z" transform="translate(-249.085 -413.752)" fill="#fff"/>
          <path id="パス_676" data-name="パス 676" d="M275.551,418.152a8.849,8.849,0,0,1,1.595,1.364l-.881.384-1.548-1.436Z" transform="translate(-266.586 -413.774)"/>
          <path id="パス_676_-_アウトライン" data-name="パス 676 - アウトライン" d="M275.554,418.127l.01.007c.088.067.183.137.282.211a6.855,6.855,0,0,1,1.317,1.157l.017.022-.919.4-.01-.01-1.574-1.46Zm1.557,1.38a6.994,6.994,0,0,0-1.291-1.127c-.1-.071-.187-.139-.273-.2l-.789.3,1.512,1.4Z" transform="translate(-266.586 -413.774)" fill="#fff"/>
          <path id="パス_677" data-name="パス 677" d="M241.846,418.474A4.1,4.1,0,0,1,240.513,420l-.986-.366a9.26,9.26,0,0,0,1.367-1.415Z" transform="translate(-239.527 -413.826)"/>
          <path id="パス_677_-_アウトライン" data-name="パス 677 - アウトライン" d="M240.885,418.2l.992.265-.011.023a4.1,4.1,0,0,1-1.341,1.536l-.009.006-1.031-.382.028-.024a9.234,9.234,0,0,0,1.363-1.411Zm.93.293-.912-.243a9.236,9.236,0,0,1-1.334,1.382l.941.349A4.066,4.066,0,0,0,241.815,418.488Z" transform="translate(-239.527 -413.826)" fill="#fff"/>
          <path id="パス_678" data-name="パス 678" d="M241.086,403.329v-.523h7.284v-.528H241.2v-.467h7.167v-.524H241.5c0,.01,0-.255,0-.255a9.336,9.336,0,0,1-.984.324l-.573-.461a10.3,10.3,0,0,0,3.435-1.692H244.5c0,.149-.18.29-.315.4h3.961c.007.569-.906.945-1.2,1.164h2.5v2.561Zm4.463.094c.476.414.634.516.932.762l-.916.365-1.034-.857a2.587,2.587,0,0,1,1.018-.271m-2.224-3.246-.921.492-.193.1h3.2a2.825,2.825,0,0,0,1.145-.591Z" transform="translate(-239.842 -399.203)"/>
          <path id="パス_678_-_アウトライン" data-name="パス 678 - アウトライン" d="M245.561,404.576l-1.069-.887.03-.015a2.6,2.6,0,0,1,1.026-.273h.009l.007.006c.309.269.482.4.649.536.091.072.177.139.282.226l.028.023Zm-.99-.878,1,.828.87-.347c-.092-.075-.17-.137-.253-.2-.167-.131-.339-.266-.644-.532A2.56,2.56,0,0,0,244.571,403.7Zm4.9-.347h-8.407v-.566h7.284V402.3h-7.167v-.511h7.167v-.48l-6.859,0-.008-.007s0,0-.006-.017h0v-.022c0-.031,0-.09,0-.2-.186.063-.259.092-.319.116a5.562,5.562,0,0,1-.637.2l-.011,0-.612-.492.036-.013.447-.164a8.844,8.844,0,0,0,2.981-1.524l.006-.005h1.157v.022c0,.141-.145.271-.276.379h3.921v.022c.006.455-.562.791-.938,1.013-.081.048-.154.091-.212.129h2.455Zm-8.363-.044h8.32V400.79h-2.546l.052-.039c.066-.049.161-.106.272-.171.361-.214.9-.534.917-.954h-4l.052-.042c.126-.1.282-.229.3-.358h-1.1a8.892,8.892,0,0,1-2.988,1.527l-.411.151.534.429a5.433,5.433,0,0,0,.622-.194c.063-.025.141-.057.349-.126l.029-.01v.03s0,.172,0,.234h6.875v.568h-7.167v.424h7.167v.571h-7.284Zm4.305-2.517h-3.2l-.01-.041.193-.1.925-.495h3.288l-.038.037a2.829,2.829,0,0,1-1.154.6Zm-3.111-.044h3.1a2.889,2.889,0,0,0,1.093-.548H243.33Z" transform="translate(-239.842 -399.203)" fill="#fff"/>
        </g>
        <path id="パス_679" data-name="パス 679" d="M296.87,400.453v.612h-4.664a2.675,2.675,0,0,1-.41.889h4.1v4.527h-1.1v-.291H288.4v.291h-1.1v-4.527h3.227a1.587,1.587,0,0,0,.506-.889h-4.705v-.612Zm-8.467,2.176v1.06H294.8v-1.06Zm0,1.727v1.2H294.8v-1.2Z" transform="translate(-264.36 -400.109)"/>
        <path id="パス_679_-_アウトライン" data-name="パス 679 - アウトライン" d="M286.3,400.431h10.588v.655h-4.666a2.792,2.792,0,0,1-.389.845h4.084V406.5h-1.146v-.291h-6.35v.291h-1.148v-4.571h3.239a1.586,1.586,0,0,0,.494-.845h-4.7Zm10.544.044h-10.5v.568h4.705v.022a1.575,1.575,0,0,1-.512.9l-.006.007h-3.215v4.483h1.061v-.291h6.437v.291h1.059v-4.483h-4.123l.023-.034a2.7,2.7,0,0,0,.407-.878v-.02h4.663Zm-8.467,2.132h6.437v1.1h-6.437Zm6.393.044h-6.35v1.016h6.35Zm-6.393,1.683h6.437v1.24h-6.437Zm6.393.044h-6.35v1.153h6.35Z" transform="translate(-264.36 -400.109)" fill="#fff"/>
        <g id="グループ_3022" data-name="グループ 3022" transform="translate(32.999 0.158)">
          <path id="パス_680" data-name="パス 680" d="M335.9,400.951v.885h1.053v-1.3a2.813,2.813,0,0,0,.91-.593l-.91-.3a10.96,10.96,0,0,1-2.878,1.144l.43.574A8.323,8.323,0,0,0,335.9,400.951Z" transform="translate(-334.073 -399.648)"/>
          <path id="パス_680_-_アウトライン" data-name="パス 680 - アウトライン" d="M336.973,401.857h-1.1v-.872a8.721,8.721,0,0,1-1.369.4l-.014,0-.457-.61.195-.058a10.32,10.32,0,0,0,2.707-1.092l.009-.006.957.314-.029.025a2.8,2.8,0,0,1-.837.561l-.066.029Zm-1.053-.044h1.01v-1.289l.013-.006.079-.035a2.672,2.672,0,0,0,.8-.529l-.864-.283a10.389,10.389,0,0,1-2.71,1.092l-.135.04.4.538a8.138,8.138,0,0,0,1.377-.41l.031-.015Z" transform="translate(-334.073 -399.648)" fill="#fff"/>
          <path id="パス_681" data-name="パス 681" d="M358.4,400.759a3.132,3.132,0,0,0-.079.359c-.107.155-.4.155-.925.163h-2.784c-.2-.082-.231-.221-.228-.431a24.274,24.274,0,0,0,4.8-.514l-.6-.526a15.842,15.842,0,0,1-4.2.431v-.524h-1.092v1.729c.079.274.465.313.723.373h3.359c.452-.019,1.407.013,1.741-.28.2-.2.342-.342.342-.6Z" transform="translate(-348.848 -399.701)"/>
          <path id="パス_681_-_アウトライン" data-name="パス 681 - アウトライン" d="M353.267,399.7H354.4v.525c.187.011.383.017.581.017a16.856,16.856,0,0,0,3.59-.448l.011,0,.641.559-.037.012a24.6,24.6,0,0,1-4.787.514c0,.2.035.315.21.388h2.826c.472-.008.759-.012.858-.149.062-.348.08-.362.086-.367l.008-.006,1.084.186v.018c0,.265-.146.412-.348.614a2.9,2.9,0,0,1-1.514.28c-.09,0-.171,0-.241.007h-3.359l-.115-.024c-.248-.051-.557-.115-.629-.364V399.7Zm1.092.044H353.31v1.7c.066.222.359.282.595.331l.111.024h3.354c.069,0,.151,0,.241-.007a2.9,2.9,0,0,0,1.485-.268c.189-.189.327-.327.334-.564l-1.023-.175c-.012.038-.044.2-.069.339l0,.009c-.11.159-.389.164-.9.172h-.047l-2.793,0c-.207-.085-.245-.224-.241-.451v-.02h.02a27.226,27.226,0,0,0,4.759-.5l-.565-.493a16.88,16.88,0,0,1-3.588.447c-.207,0-.41-.006-.6-.018h-.02Z" transform="translate(-348.848 -399.701)" fill="#fff"/>
          <path id="パス_682" data-name="パス 682" d="M344.113,410.312v2.819h-1.832s.321.331,2.994.487l-.316.527a12.659,12.659,0,0,1-3.611-.622,1.663,1.663,0,0,0,.525-.392h-3.656c-.019.184.285.308.4.444a11.093,11.093,0,0,1-3.437.6c-.118-.157-.395-.45-.413-.589a9.224,9.224,0,0,0,3.142-.456h-2.094v-2.819Zm-7.189.472v.292h6.1v-.292Zm0,.8v.292h6.1v-.292Zm0,.748v.292h6.1v-.292Z" transform="translate(-334.608 -407.848)"/>
          <path id="パス_682_-_アウトライン" data-name="パス 682 - アウトライン" d="M335.795,410.29h8.34v2.862h-1.777a8.842,8.842,0,0,0,2.918.443l.036,0-.341.57h-.013a12.729,12.729,0,0,1-3.618-.624l-.039-.015.035-.023c.072-.048.124-.076.17-.1a1.052,1.052,0,0,0,.317-.251h-3.585c0,.1.12.187.233.27a1.022,1.022,0,0,1,.165.139l.02.023-.028.011a10.913,10.913,0,0,1-3.445.6h-.011l-.007-.009c-.031-.041-.073-.093-.118-.147a1.387,1.387,0,0,1-.3-.452l0-.023h.023c.134-.008.286-.015.447-.022a7.952,7.952,0,0,0,2.6-.391h-2.023Zm8.3.044h-8.253v2.775h2.072l.01.041a7.414,7.414,0,0,1-2.7.437c-.151.007-.294.013-.421.02a1.74,1.74,0,0,0,.284.406c.042.051.082.1.113.14a10.945,10.945,0,0,0,3.389-.586,1.3,1.3,0,0,0-.137-.109c-.13-.1-.264-.194-.25-.329l0-.02h3.726l-.034.037a1.163,1.163,0,0,1-.362.3c-.037.02-.079.043-.131.076a12.836,12.836,0,0,0,3.552.6l.291-.485c-2.618-.156-2.959-.478-2.972-.491l-.036-.037h1.861Zm-7.189.428h6.14v.336H336.9Zm6.1.044h-6.053v.249H343Zm-6.1.754h6.14v.335H336.9Zm6.1.044h-6.053v.248H343Zm-6.1.7h6.14v.335H336.9Zm6.1.044h-6.053v.248H343Z" transform="translate(-334.608 -407.848)" fill="#fff"/>
        </g>
        <path id="パス_683" data-name="パス 683" d="M389.779,399.508v.644h4.228v.622h-4.228v.884h4.228v.568h-4.228v.932H393.5v2.692h-1.067v-.288h-5.112v.288h-1.067v-2.692h2.376v-2.384h-3.062c-.038,1.688.078,3.721-1.236,4.917l-.93-.551c1.3-1.462,1.115-3.21,1.032-4.988h4.2v-.644Zm-2.455,4.286v1.134h5.112v-1.134Z" transform="translate(-339.007 -399.382)"/>
        <path id="パス_683_-_アウトライン" data-name="パス 683 - アウトライン" d="M388.611,399.486h1.19v.644h4.228v.666H389.8v.84h4.228v.612H389.8v.888h3.724v2.736h-1.11v-.288h-5.068v.288h-1.111v-2.736h2.376V400.8h-3.018c0,.16-.006.323-.008.488-.021,1.565-.044,3.34-1.235,4.424l-.012.011-.966-.573.018-.02c1.209-1.359,1.129-2.944,1.044-4.621q-.009-.176-.017-.352v-.023h4.2Zm1.146.044h-1.1v.644H384.46q.008.165.016.329c.085,1.679.165,3.265-1.038,4.633l.893.529c1.166-1.072,1.189-2.83,1.209-4.381,0-.172,0-.343.008-.51v-.021h3.1v2.427h-2.376v2.648H387.3v-.288h5.156v.288h1.023v-2.648h-3.724V402.2h4.228v-.524h-4.228v-.928h4.228v-.579h-4.228Zm-2.455,4.243h5.156v1.178H387.3Zm5.112.044h-5.068v1.091h5.068Z" transform="translate(-339.007 -399.382)" fill="#fff"/>
      </g>
    </g>
  </g>
</svg>
