<svg xmlns="http://www.w3.org/2000/svg" width="135" height="26" viewBox="0 0 135 26"><g transform="translate(12563 2652)"><rect width="135" height="26" transform="translate(-12563 -2652)" fill="#16344f"/><g transform="translate(6114.15 -25.519)"><path d="M31.11.5H0v-1H31.11Z" transform="translate(-18674.266 -2602.483) rotate(-45)" fill="#fff"/><path d="M31.11.5H0v-1H31.11Z" transform="translate(-18674.264 -2624.481) rotate(45)" fill="#fff"/></g><path d="M6.16.02A.264.264,0,0,0,6.38.2h.1A.258.258,0,0,0,6.72.02l6.14-13.74c.08-.16,0-.28-.18-.28h-.52a.233.233,0,0,0-.22.14L6.48-1.44H6.44L1.04-13.86A.233.233,0,0,0,.82-14H.28c-.18,0-.24.1-.16.26ZM17.54-.26A.265.265,0,0,0,17.8,0h.42a.269.269,0,0,0,.28-.26V-13.74a.265.265,0,0,0-.26-.26H17.8a.265.265,0,0,0-.26.26Zm6.82-1.18A6.514,6.514,0,0,0,28.6.2c2.3,0,4.36-1.56,4.36-3.56,0-2.32-1.74-3.28-4.48-4.22-2.02-.66-3.32-1.4-3.32-3.1,0-1.14.92-2.66,3.38-2.66a5.863,5.863,0,0,1,2.94.94.288.288,0,0,0,.44-.1,1.826,1.826,0,0,1,.16-.26.287.287,0,0,0-.08-.42,6.568,6.568,0,0,0-3.44-1.02c-3.12,0-4.32,2.04-4.32,3.54,0,2.3,1.54,3.12,3.86,3.94,2.42.82,3.88,1.62,3.88,3.4,0,1.46-1.54,2.68-3.36,2.68a5.817,5.817,0,0,1-3.7-1.54c-.16-.14-.3-.08-.44.08l-.18.24C24.14-1.64,24.24-1.54,24.36-1.44ZM38.4-.26a.265.265,0,0,0,.26.26h.42a.269.269,0,0,0,.28-.26V-13.74A.265.265,0,0,0,39.1-14h-.44a.265.265,0,0,0-.26.26ZM45-6.98A7.141,7.141,0,0,0,52.2.2a7.145,7.145,0,0,0,7.22-7.18A7.191,7.191,0,0,0,52.2-14.2,7.187,7.187,0,0,0,45-6.98Zm.88,0a6.325,6.325,0,0,1,6.32-6.34,6.342,6.342,0,0,1,6.34,6.34A6.308,6.308,0,0,1,52.2-.68,6.291,6.291,0,0,1,45.88-6.98ZM65.06-.26a.265.265,0,0,0,.26.26h.38a.265.265,0,0,0,.26-.26V-12.42h.02C75.48.14,75.64.2,75.66.2h.26c.16,0,.32-.08.32-.26V-13.74a.265.265,0,0,0-.26-.26h-.4a.265.265,0,0,0-.26.26V-1.7H75.3L65.7-14.2h-.34a.275.275,0,0,0-.3.26Z" transform="translate(-12529.965 -2631.8)" fill="#fff"/></g></svg>