<svg xmlns="http://www.w3.org/2000/svg" width="175.31" height="21.6" viewBox="0 0 175.31 21.6"><g transform="translate(-238 -1029.7)"><path d="M3.18-.39A.4.4,0,0,0,3.57,0h.54c.3,0,.48-.18.48-.39V-8.1h5.52c.39,0,.72,0,1.11-.03L15.57-.27a.425.425,0,0,0,.42.27h.93c.3,0,.36-.3.21-.54L12.75-8.31a6.566,6.566,0,0,0,4.95-6.27A6.508,6.508,0,0,0,11.01-21H3.57a.378.378,0,0,0-.39.39ZM4.62-9.36V-19.62h6.3a5.178,5.178,0,0,1,5.34,5.04,5.243,5.243,0,0,1-5.31,5.22ZM26.28-.39a.4.4,0,0,0,.39.39H38.7a.4.4,0,0,0,.39-.39V-.87a.4.4,0,0,0-.39-.39H27.72v-8.88h9.51a.4.4,0,0,0,.39-.39v-.51a.4.4,0,0,0-.39-.39H27.72v-8.28H38.7a.4.4,0,0,0,.39-.39v-.51A.4.4,0,0,0,38.7-21H26.67a.4.4,0,0,0-.39.39ZM46.23-10.47A10.762,10.762,0,0,0,57.09.3a10.366,10.366,0,0,0,7.32-2.91.345.345,0,0,0,0-.51l-.51-.51a.376.376,0,0,0-.48.06,9.511,9.511,0,0,1-6.33,2.52,9.366,9.366,0,0,1-9.36-9.42,9.4,9.4,0,0,1,9.36-9.48,9.371,9.371,0,0,1,6.33,2.46c.18.18.33.21.51.03l.48-.51a.382.382,0,0,0-.03-.54,10.278,10.278,0,0,0-7.29-2.79A10.832,10.832,0,0,0,46.23-10.47ZM72.87-.39a.4.4,0,0,0,.39.39h.54c.3,0,.48-.18.48-.39V-8.1H79.8c.39,0,.72,0,1.11-.03L85.26-.27a.425.425,0,0,0,.42.27h.93c.3,0,.36-.3.21-.54L82.44-8.31a6.566,6.566,0,0,0,4.95-6.27A6.508,6.508,0,0,0,80.7-21H73.26a.378.378,0,0,0-.39.39Zm1.44-8.97V-19.62h6.3a5.178,5.178,0,0,1,5.34,5.04,5.243,5.243,0,0,1-5.31,5.22ZM95.73-7.65c0,4.59,3.09,7.95,7.83,7.95a7.559,7.559,0,0,0,7.89-7.95V-20.61a.4.4,0,0,0-.39-.39h-.6c-.3,0-.42.15-.42.39V-7.77c0,3.87-2.46,6.69-6.48,6.69-3.99,0-6.42-2.85-6.42-6.72V-20.61a.4.4,0,0,0-.39-.39h-.63a.4.4,0,0,0-.39.39ZM121.17-.39a.4.4,0,0,0,.39.39h.63a.4.4,0,0,0,.42-.39V-20.61a.4.4,0,0,0-.39-.39h-.66a.4.4,0,0,0-.39.39Zm14.58,0a.4.4,0,0,0,.39.39h.54c.3,0,.48-.18.48-.39V-19.71h5.76a.378.378,0,0,0,.39-.39v-.51a.378.378,0,0,0-.39-.39h-12.9a.378.378,0,0,0-.39.39v.45c0,.27.09.45.39.45h5.73Z" transform="translate(270 1051)" fill="#333"/><path d="M25,1H0V-1H25Z" transform="translate(238 1048.5)" fill="#333"/></g></svg>