<svg xmlns="http://www.w3.org/2000/svg" width="155.765" height="21.6" viewBox="0 0 155.765 21.6"><g transform="translate(-238 -1029.7)"><path d="M2.01-2.16A9.772,9.772,0,0,0,8.37.3c3.45,0,6.54-2.34,6.54-5.34,0-3.48-2.61-4.92-6.72-6.33-3.03-.99-4.98-2.1-4.98-4.65,0-1.71,1.38-3.99,5.07-3.99a8.794,8.794,0,0,1,4.41,1.41.432.432,0,0,0,.66-.15,2.739,2.739,0,0,1,.24-.39.43.43,0,0,0-.12-.63A9.852,9.852,0,0,0,8.31-21.3c-4.68,0-6.48,3.06-6.48,5.31,0,3.45,2.31,4.68,5.79,5.91,3.63,1.23,5.82,2.43,5.82,5.1,0,2.19-2.31,4.02-5.04,4.02A8.726,8.726,0,0,1,2.85-3.27c-.24-.21-.45-.12-.66.12l-.27.36C1.68-2.46,1.83-2.31,2.01-2.16ZM27.48-.39c0,.48.63.39,1.02.39a.4.4,0,0,0,.39-.39v-9.84l7.8-10.32c.18-.24.06-.45-.24-.45h-.9a.484.484,0,0,0-.39.18L28.2-11.49l-6.84-9.33a.484.484,0,0,0-.39-.18h-.9c-.3,0-.42.21-.24.45L27.48-10.2ZM42.3-2.16A9.772,9.772,0,0,0,48.66.3c3.45,0,6.54-2.34,6.54-5.34,0-3.48-2.61-4.92-6.72-6.33-3.03-.99-4.98-2.1-4.98-4.65,0-1.71,1.38-3.99,5.07-3.99a8.794,8.794,0,0,1,4.41,1.41.432.432,0,0,0,.66-.15,2.739,2.739,0,0,1,.24-.39.43.43,0,0,0-.12-.63A9.852,9.852,0,0,0,48.6-21.3c-4.68,0-6.48,3.06-6.48,5.31,0,3.45,2.31,4.68,5.79,5.91,3.63,1.23,5.82,2.43,5.82,5.1,0,2.19-2.31,4.02-5.04,4.02a8.726,8.726,0,0,1-5.55-2.31c-.24-.21-.45-.12-.66.12l-.27.36C41.97-2.46,42.12-2.31,42.3-2.16ZM66.54-.39a.4.4,0,0,0,.39.39h.54c.3,0,.48-.18.48-.39V-19.71h5.76a.378.378,0,0,0,.39-.39v-.51a.378.378,0,0,0-.39-.39H60.81a.378.378,0,0,0-.39.39v.45c0,.27.09.45.39.45h5.73Zm14.58,0a.4.4,0,0,0,.39.39H93.54a.4.4,0,0,0,.39-.39V-.87a.4.4,0,0,0-.39-.39H82.56v-8.88h9.51a.4.4,0,0,0,.39-.39v-.51a.4.4,0,0,0-.39-.39H82.56v-8.28H93.54a.4.4,0,0,0,.39-.39v-.51a.4.4,0,0,0-.39-.39H81.51a.4.4,0,0,0-.39.39Zm19.86,0c-.06.3.06.39.33.39h.72a.383.383,0,0,0,.36-.33l3.39-17.58h.06L111.9.06a.351.351,0,0,0,.39.24h.12a.4.4,0,0,0,.42-.24l6.06-17.97h.06L122.34-.33a.383.383,0,0,0,.36.33h.72c.27,0,.39-.09.33-.39l-4.26-20.7a.288.288,0,0,0-.27-.21h-.33a.289.289,0,0,0-.3.21L112.38-2.67h-.06l-6.18-18.42a.289.289,0,0,0-.3-.21h-.33a.288.288,0,0,0-.27.21Z" transform="translate(270 1051)" fill="#333"/><path d="M25,1H0V-1H25Z" transform="translate(238 1048.5)" fill="#333"/></g></svg>