<svg xmlns="http://www.w3.org/2000/svg" width="112.104" height="11.52" viewBox="0 0 112.104 11.52">
  <path id="パス_912" data-name="パス 912" d="M1.7-.208A.212.212,0,0,0,1.9,0h.3a.212.212,0,0,0,.208-.208V-9.936h.016C10.032.112,10.16.16,10.176.16h.208c.128,0,.256-.064.256-.208V-10.992a.212.212,0,0,0-.208-.208h-.32a.212.212,0,0,0-.208.208V-1.36H9.888l-7.68-10H1.936a.22.22,0,0,0-.24.208Zm13.04-3.008A3.136,3.136,0,0,0,17.888.16a3.869,3.869,0,0,0,2.32-.752c.1-.1.112-.192.064-.256l-.16-.224c-.08-.112-.144-.1-.288,0a3.415,3.415,0,0,1-1.888.592,2.527,2.527,0,0,1-2.5-2.528h5.1c.24,0,.24-.368.24-.624a2.816,2.816,0,0,0-2.9-2.928A3.136,3.136,0,0,0,14.736-3.216Zm.72-.368A2.381,2.381,0,0,1,17.888-5.92,2.153,2.153,0,0,1,20.08-3.584Zm8.48,3.36c-.1.112-.032.224.1.224h.416a.3.3,0,0,0,.24-.144l2-2.672H26.7l2,2.672a.3.3,0,0,0,.24.144h.416c.128,0,.192-.112.1-.224L27.136-3.3l2.208-2.88c.1-.112.032-.224-.1-.224h-.416a.3.3,0,0,0-.24.144L26.7-3.776h-.016l-1.872-2.48a.3.3,0,0,0-.24-.144H24.16c-.128,0-.192.112-.1.224l2.224,2.9Zm9.536-1.424c0,1.024.112,1.808,1.44,1.808a3.184,3.184,0,0,0,1.856-.592A.184.184,0,0,0,36.816-.7L36.7-.9c-.048-.08-.112-.144-.256-.064a3.418,3.418,0,0,1-1.456.432c-.752,0-.832-.416-.832-1.168v-4.08h2.224a.193.193,0,0,0,.208-.208v-.208a.2.2,0,0,0-.208-.208H34.16V-8.16a.212.212,0,0,0-.208-.208l-.272.016a.2.2,0,0,0-.208.208V-6.4H32.72c-.112,0-.192.048-.192.16v.256c0,.128.032.208.192.208h.752ZM46.256-.208A.212.212,0,0,0,46.464,0h.288c.16,0,.256-.1.256-.208V-3.984H49.92a3.633,3.633,0,0,0,3.6-3.632A3.616,3.616,0,0,0,49.9-11.2h-3.44a.212.212,0,0,0-.208.208Zm.752-4.512v-5.728h2.848a2.872,2.872,0,0,1,2.912,2.816,2.919,2.919,0,0,1-2.9,2.912Zm9.184,1.5A3.136,3.136,0,0,0,59.344.16a3.869,3.869,0,0,0,2.32-.752c.1-.1.112-.192.064-.256l-.16-.224c-.08-.112-.144-.1-.288,0a3.415,3.415,0,0,1-1.888.592,2.527,2.527,0,0,1-2.5-2.528H62c.24,0,.24-.368.24-.624a2.816,2.816,0,0,0-2.9-2.928A3.136,3.136,0,0,0,56.192-3.216Zm.72-.368A2.381,2.381,0,0,1,59.344-5.92a2.153,2.153,0,0,1,2.192,2.336ZM66.048-.208A.186.186,0,0,0,66.224,0h.32a.186.186,0,0,0,.208-.208v-4.56a2.248,2.248,0,0,1,1.9-1.1,2.036,2.036,0,0,1,.832.192c.112.048.208.032.256-.08l.128-.32c.048-.128-.032-.24-.176-.288A2.648,2.648,0,0,0,68.7-6.56a2.455,2.455,0,0,0-2,.992l-.064-.656a.191.191,0,0,0-.192-.176h-.192a.212.212,0,0,0-.208.208Zm6.8-.352a3.26,3.26,0,0,0,2.1.72,2.069,2.069,0,0,0,2.272-1.776c0-1.168-1.056-1.568-2.256-2.016-.944-.336-1.52-.64-1.52-1.28,0-.432.368-1.024,1.376-1.024a3.025,3.025,0,0,1,1.472.448.215.215,0,0,0,.3-.08l.1-.176a.224.224,0,0,0-.064-.3,3.379,3.379,0,0,0-1.808-.512A1.857,1.857,0,0,0,72.72-4.9c0,.992.832,1.488,1.968,1.888,1.072.4,1.792.7,1.792,1.44,0,.624-.624,1.136-1.536,1.136a2.842,2.842,0,0,1-1.712-.624.186.186,0,0,0-.288.016l-.16.256A.177.177,0,0,0,72.848-.56Zm7.664-2.656A3.274,3.274,0,0,0,83.728.16a3.284,3.284,0,0,0,3.216-3.376A3.286,3.286,0,0,0,83.728-6.56,3.276,3.276,0,0,0,80.512-3.216Zm.688,0a2.587,2.587,0,0,1,2.528-2.672A2.585,2.585,0,0,1,86.24-3.216,2.6,2.6,0,0,1,83.728-.5,2.6,2.6,0,0,1,81.2-3.216ZM90.816-.208A.186.186,0,0,0,90.992,0h.3A.186.186,0,0,0,91.5-.208v-4.56a3.28,3.28,0,0,1,2.288-1.1c1.216,0,1.9.768,1.9,2.24V-.208A.212.212,0,0,0,95.9,0h.288A.212.212,0,0,0,96.4-.208V-3.632c0-1.792-.784-2.928-2.576-2.928a3.419,3.419,0,0,0-2.368,1.008l-.064-.688A.179.179,0,0,0,91.2-6.4h-.16a.216.216,0,0,0-.224.208ZM113.8-5.781l-3.375-3.375v2.8h-9.156V-5.2h9.156v2.8Z" transform="translate(-1.696 11.36)" fill="#333"/>
</svg>
