<?xml version="1.0" encoding="utf-8"?>
<!-- Generator: Adobe Illustrator 25.4.1, SVG Export Plug-In . SVG Version: 6.00 Build 0)  -->
<svg version="1.1" id="レイヤー_1" xmlns="http://www.w3.org/2000/svg" xmlns:xlink="http://www.w3.org/1999/xlink" x="0px"
	 y="0px" viewBox="0 0 115 23" style="enable-background:new 0 0 115 23;" xml:space="preserve">
<style type="text/css">
	.st0{enable-background:new    ;}
	.st1{fill:#333333;}
</style>
<g class="st0">
	<path class="st1" d="M1.7,5.8c0-0.1,0.1-0.2,0.2-0.2h0.3l7.7,10c0,0,0,0,0,0V6c0-0.1,0.1-0.2,0.2-0.2h0.3c0.1,0,0.2,0.1,0.2,0.2V17
		c0,0.1-0.1,0.2-0.3,0.2h-0.2c0,0-0.1,0-7.7-10.1h0v9.7c0,0.1-0.1,0.2-0.2,0.2H1.9c-0.1,0-0.2-0.1-0.2-0.2V5.8z"/>
	<path class="st1" d="M17.9,10.4c1.7,0,2.9,1.2,2.9,2.9c0,0.3,0,0.6-0.2,0.6h-5.1c0.1,1.4,1.1,2.5,2.5,2.5c0.8,0,1.5-0.3,1.9-0.6
		c0.1-0.1,0.2-0.1,0.3,0l0.2,0.2c0,0.1,0,0.2-0.1,0.3c-0.3,0.3-1.3,0.8-2.3,0.8c-2,0-3.2-1.5-3.2-3.4C14.7,12,15.9,10.4,17.9,10.4z
		 M20.1,13.4c0-1.2-0.8-2.3-2.2-2.3c-1.4,0-2.4,1-2.4,2.3H20.1z"/>
	<path class="st1" d="M26.3,13.7l-2.2-2.9c-0.1-0.1,0-0.2,0.1-0.2h0.4c0.1,0,0.2,0,0.2,0.1l1.9,2.5h0l1.9-2.5
		c0.1-0.1,0.2-0.1,0.2-0.1h0.4c0.1,0,0.2,0.1,0.1,0.2l-2.2,2.9l2.3,3.1c0.1,0.1,0,0.2-0.1,0.2h-0.4c-0.1,0-0.2,0-0.2-0.1l-2-2.7h0
		l-2,2.7C24.6,17,24.5,17,24.4,17H24c-0.1,0-0.2-0.1-0.1-0.2L26.3,13.7z"/>
	<path class="st1" d="M33.5,11.2h-0.8c-0.2,0-0.2-0.1-0.2-0.2v-0.3c0-0.1,0.1-0.2,0.2-0.2h0.8V8.9c0-0.1,0.1-0.2,0.2-0.2l0.3,0
		c0.1,0,0.2,0.1,0.2,0.2v1.8h2.2c0.1,0,0.2,0.1,0.2,0.2V11c0,0.1-0.1,0.2-0.2,0.2h-2.2v4.1c0,0.8,0.1,1.2,0.8,1.2
		c0.6,0,1.2-0.3,1.5-0.4c0.1-0.1,0.2,0,0.3,0.1l0.1,0.2c0.1,0.1,0,0.2,0,0.3c-0.2,0.2-0.9,0.6-1.9,0.6c-1.3,0-1.4-0.8-1.4-1.8V11.2z
		"/>
	<path class="st1" d="M46.3,6c0-0.1,0.1-0.2,0.2-0.2h3.4c2,0,3.6,1.6,3.6,3.6c0,2-1.6,3.6-3.6,3.6H47v3.8c0,0.1-0.1,0.2-0.3,0.2
		h-0.3c-0.1,0-0.2-0.1-0.2-0.2V6z M49.9,12.3c1.6,0,2.9-1.3,2.9-2.9c0-1.6-1.3-2.8-2.9-2.8H47v5.7H49.9z"/>
	<path class="st1" d="M59.3,10.4c1.7,0,2.9,1.2,2.9,2.9c0,0.3,0,0.6-0.2,0.6h-5.1c0.1,1.4,1.1,2.5,2.5,2.5c0.8,0,1.5-0.3,1.9-0.6
		c0.1-0.1,0.2-0.1,0.3,0l0.2,0.2c0,0.1,0,0.2-0.1,0.3c-0.3,0.3-1.3,0.8-2.3,0.8c-2,0-3.2-1.5-3.2-3.4C56.2,12,57.4,10.4,59.3,10.4z
		 M61.5,13.4c0-1.2-0.8-2.3-2.2-2.3c-1.4,0-2.4,1-2.4,2.3H61.5z"/>
	<path class="st1" d="M68.8,10.4c1.8,0,3.2,1.5,3.2,3.3c0,1.9-1.4,3.4-3.2,3.4c-1.8,0-3.2-1.5-3.2-3.4C65.6,12,67,10.4,68.8,10.4z
		 M68.8,16.5c1.4,0,2.5-1.2,2.5-2.7c0-1.5-1.1-2.7-2.5-2.7c-1.4,0-2.5,1.2-2.5,2.7C66.3,15.3,67.4,16.5,68.8,16.5z"/>
	<path class="st1" d="M76.6,21.6c0,0.1-0.1,0.2-0.2,0.2h-0.3c-0.1,0-0.2-0.1-0.2-0.2V10.8c0-0.1,0.1-0.2,0.2-0.2h0.2
		c0.1,0,0.2,0,0.2,0.2l0,0.4c0.2-0.2,0.9-0.8,2.1-0.8c1.8,0,3.1,1.5,3.1,3.4c0,1.9-1.3,3.4-3.2,3.4c-1.1,0-1.7-0.5-1.9-0.7V21.6z
		 M78.4,16.5c1.6,0,2.6-1.2,2.6-2.7c0-1.5-1-2.7-2.4-2.7c-1.2,0-1.9,0.8-2,0.9v3.7C76.6,15.8,77.3,16.5,78.4,16.5z"/>
	<path class="st1" d="M85.6,6c0-0.1,0.1-0.2,0.2-0.2h0.3c0.1,0,0.2,0.1,0.2,0.2v10.8c0,0.1-0.1,0.2-0.2,0.2h-0.3
		c-0.1,0-0.2-0.1-0.2-0.2V6z"/>
	<path class="st1" d="M93.3,10.4c1.7,0,2.9,1.2,2.9,2.9c0,0.3,0,0.6-0.2,0.6h-5.1c0.1,1.4,1.1,2.5,2.5,2.5c0.8,0,1.5-0.3,1.9-0.6
		c0.1-0.1,0.2-0.1,0.3,0l0.2,0.2c0,0.1,0,0.2-0.1,0.3c-0.3,0.3-1.3,0.8-2.3,0.8c-2,0-3.2-1.5-3.2-3.4C90.2,12,91.4,10.4,93.3,10.4z
		 M95.5,13.4c0-1.2-0.8-2.3-2.2-2.3c-1.4,0-2.4,1-2.4,2.3H95.5z"/>
</g>
<g class="st0">
	<path class="st1" d="M109.8,14.6v-2.8h-9.2v-1.2h9.2V7.8l3.4,3.4L109.8,14.6z"/>
</g>
</svg>
