<svg xmlns="http://www.w3.org/2000/svg" width="40" height="37.12" viewBox="0 0 40 37.12">
  <g id="グループ_3291" data-name="グループ 3291" transform="translate(-45 -291)">
    <g id="グループ_2704" data-name="グループ 2704" transform="translate(19 22)">
      <path id="パス_852" data-name="パス 852" d="M0,0H40V3H0Z" transform="translate(26 269)" fill="#333"/>
      <path id="パス_851" data-name="パス 851" d="M0,0H40V3H0Z" transform="translate(26 281)" fill="#333"/>
    </g>
    <path id="パス_905" data-name="パス 905" d="M.588-.276A.215.215,0,0,0,.816,0H1.6a.234.234,0,0,0,.216-.168l.864-5.364h.048L4.9-.012A.216.216,0,0,0,5.1.12h.216a.2.2,0,0,0,.2-.132l2.16-5.52h.036L8.6-.168A.249.249,0,0,0,8.832,0h.78a.2.2,0,0,0,.216-.276L8.352-8.34a.242.242,0,0,0-.216-.18H7.944a.229.229,0,0,0-.2.132l-2.5,6.132H5.2L2.688-8.388a.244.244,0,0,0-.2-.132H2.292a.242.242,0,0,0-.216.18Zm12.444.048A.228.228,0,0,0,13.26,0h4.8a.228.228,0,0,0,.228-.228v-.66a.228.228,0,0,0-.228-.228H14.268V-3.7h3.2a.228.228,0,0,0,.228-.228V-4.6a.236.236,0,0,0-.228-.228h-3.2V-7.272H18.06a.228.228,0,0,0,.228-.228v-.672A.228.228,0,0,0,18.06-8.4h-4.8a.228.228,0,0,0-.228.228Zm8.508,0A.236.236,0,0,0,21.768,0h.756a.228.228,0,0,0,.228-.228V-6.072h.012L27.972.12h.312A.226.226,0,0,0,28.512-.1V-8.172a.236.236,0,0,0-.228-.228h-.768a.228.228,0,0,0-.228.228V-2.5h-.012L22.068-8.52h-.3a.226.226,0,0,0-.228.216Zm10.632-2.9A3.18,3.18,0,0,0,35.424.12,3.193,3.193,0,0,0,38.7-3.132v-5.04a.236.236,0,0,0-.228-.228h-.8a.228.228,0,0,0-.228.228v4.98A1.979,1.979,0,0,1,35.424-1.08a1.981,1.981,0,0,1-1.992-2.136V-8.172A.228.228,0,0,0,33.2-8.4h-.8a.236.236,0,0,0-.228.228Z" transform="translate(45.416 328)" fill="#333"/>
  </g>
</svg>
