<svg xmlns="http://www.w3.org/2000/svg" width="202.9" height="14.4" viewBox="0 0 202.9 14.4">
  <path id="パス_914" data-name="パス 914" d="M1.12-6.98A7.141,7.141,0,0,0,8.32.2a7.145,7.145,0,0,0,7.22-7.18A7.191,7.191,0,0,0,8.32-14.2,7.187,7.187,0,0,0,1.12-6.98Zm.88,0a6.325,6.325,0,0,1,6.32-6.34,6.342,6.342,0,0,1,6.34,6.34A6.308,6.308,0,0,1,8.32-.68,6.291,6.291,0,0,1,2-6.98ZM23.04-.26A.265.265,0,0,0,23.3,0h.36c.2,0,.32-.12.32-.26V-13.14h3.84a.252.252,0,0,0,.26-.26v-.34a.252.252,0,0,0-.26-.26h-8.6a.252.252,0,0,0-.26.26v.3c0,.18.06.3.26.3h3.82Zm9.72,0a.265.265,0,0,0,.26.26h.42a.252.252,0,0,0,.26-.26v-6.5h8.98v6.5a.265.265,0,0,0,.26.26h.42a.252.252,0,0,0,.26-.26V-13.74a.252.252,0,0,0-.26-.26h-.42a.265.265,0,0,0-.26.26V-7.6H33.7v-6.14a.252.252,0,0,0-.26-.26h-.42a.265.265,0,0,0-.26.26Zm17.5,0a.265.265,0,0,0,.26.26h8.02a.265.265,0,0,0,.26-.26V-.58a.265.265,0,0,0-.26-.26H51.22V-6.76h6.34a.265.265,0,0,0,.26-.26v-.34a.265.265,0,0,0-.26-.26H51.22v-5.52h7.32a.265.265,0,0,0,.26-.26v-.34a.265.265,0,0,0-.26-.26H50.52a.265.265,0,0,0-.26.26Zm14.36,0a.265.265,0,0,0,.26.26h.36c.2,0,.32-.12.32-.26V-5.4h3.68c.26,0,.48,0,.74-.02l2.9,5.24a.283.283,0,0,0,.28.18h.62c.2,0,.24-.2.14-.36L71-5.54a4.377,4.377,0,0,0,3.3-4.18A4.339,4.339,0,0,0,69.84-14H64.88a.252.252,0,0,0-.26.26Zm.96-5.98v-6.84h4.2a3.452,3.452,0,0,1,3.56,3.36A3.5,3.5,0,0,1,69.8-6.24Zm20.18-.74A7.175,7.175,0,0,0,93,.2a6.911,6.911,0,0,0,4.88-1.94.23.23,0,0,0,0-.34l-.34-.34a.251.251,0,0,0-.32.04A6.341,6.341,0,0,1,93-.7a6.244,6.244,0,0,1-6.24-6.28A6.265,6.265,0,0,1,93-13.3a6.248,6.248,0,0,1,4.22,1.64c.12.12.22.14.34.02l.32-.34a.254.254,0,0,0-.02-.36A6.852,6.852,0,0,0,93-14.2,7.221,7.221,0,0,0,85.76-6.98Zm16.7,0A7.141,7.141,0,0,0,109.66.2a7.145,7.145,0,0,0,7.22-7.18,7.191,7.191,0,0,0-7.22-7.22A7.187,7.187,0,0,0,102.46-6.98Zm.88,0a6.325,6.325,0,0,1,6.32-6.34A6.342,6.342,0,0,1,116-6.98a6.308,6.308,0,0,1-6.34,6.3A6.291,6.291,0,0,1,103.34-6.98ZM122.52-.26a.265.265,0,0,0,.26.26h.38a.265.265,0,0,0,.26-.26V-12.42h.02C132.94.14,133.1.2,133.12.2h.26c.16,0,.32-.08.32-.26V-13.74a.265.265,0,0,0-.26-.26h-.4a.265.265,0,0,0-.26.26V-1.7h-.02l-9.6-12.5h-.34a.275.275,0,0,0-.3.26Zm19.94,0a.265.265,0,0,0,.26.26h.36c.2,0,.32-.12.32-.26V-13.14h3.84a.252.252,0,0,0,.26-.26v-.34a.252.252,0,0,0-.26-.26h-8.6a.252.252,0,0,0-.26.26v.3c0,.18.06.3.26.3h3.82Zm9.72,0a.265.265,0,0,0,.26.26h8.02a.265.265,0,0,0,.26-.26V-.58a.265.265,0,0,0-.26-.26h-7.32V-6.76h6.34a.265.265,0,0,0,.26-.26v-.34a.265.265,0,0,0-.26-.26h-6.34v-5.52h7.32a.265.265,0,0,0,.26-.26v-.34a.265.265,0,0,0-.26-.26h-8.02a.265.265,0,0,0-.26.26Zm14.36,0a.265.265,0,0,0,.26.26h.38a.265.265,0,0,0,.26-.26V-12.42h.02C176.96.14,177.12.2,177.14.2h.26c.16,0,.32-.08.32-.26V-13.74a.265.265,0,0,0-.26-.26h-.4a.265.265,0,0,0-.26.26V-1.7h-.02l-9.6-12.5h-.34a.275.275,0,0,0-.3.26Zm19.94,0a.265.265,0,0,0,.26.26h.36c.2,0,.32-.12.32-.26V-13.14h3.84a.252.252,0,0,0,.26-.26v-.34a.252.252,0,0,0-.26-.26h-8.6a.252.252,0,0,0-.26.26v.3c0,.18.06.3.26.3h3.82Zm8.94-1.18A6.514,6.514,0,0,0,199.66.2c2.3,0,4.36-1.56,4.36-3.56,0-2.32-1.74-3.28-4.48-4.22-2.02-.66-3.32-1.4-3.32-3.1,0-1.14.92-2.66,3.38-2.66a5.863,5.863,0,0,1,2.94.94.288.288,0,0,0,.44-.1,1.827,1.827,0,0,1,.16-.26.287.287,0,0,0-.08-.42,6.568,6.568,0,0,0-3.44-1.02c-3.12,0-4.32,2.04-4.32,3.54,0,2.3,1.54,3.12,3.86,3.94,2.42.82,3.88,1.62,3.88,3.4,0,1.46-1.54,2.68-3.36,2.68a5.817,5.817,0,0,1-3.7-1.54c-.16-.14-.3-.08-.44.08l-.18.24C195.2-1.64,195.3-1.54,195.42-1.44Z" transform="translate(-1.12 14.2)" fill="#333"/>
</svg>
