<svg xmlns="http://www.w3.org/2000/svg" width="44.338" height="44.338" viewBox="0 0 44.338 44.338">
  <g id="btn:TOPに戻る" transform="translate(-0.456 -0.416)">
    <g id="パス_890" data-name="パス 890" transform="translate(0.456 0.416)" fill="#fff">
      <path d="M 22.16898727416992 43.33797836303711 C 19.31075668334961 43.33797836303711 16.53854751586914 42.77840805053711 13.92936706542969 41.67482757568359 C 11.4086971282959 40.60866546630859 9.144697189331055 39.08216857910156 7.200257301330566 37.13771820068359 C 5.255807399749756 35.19327545166016 3.729307174682617 32.92927551269531 2.663147211074829 30.40860748291016 C 1.559567332267761 27.7994270324707 0.9999972581863403 25.02721786499023 0.9999972581863403 22.16898727416992 C 0.9999972581863403 19.31075668334961 1.559567332267761 16.53854751586914 2.663147211074829 13.92936706542969 C 3.729307174682617 11.4086971282959 5.255807399749756 9.144697189331055 7.200257301330566 7.200257301330566 C 9.144697189331055 5.255807399749756 11.4086971282959 3.729307174682617 13.92936706542969 2.663147211074829 C 16.53854751586914 1.559567332267761 19.31075668334961 0.9999972581863403 22.16898727416992 0.9999972581863403 C 25.02721786499023 0.9999972581863403 27.7994270324707 1.559567332267761 30.40860748291016 2.663147211074829 C 32.92927551269531 3.729307174682617 35.19327545166016 5.255807399749756 37.13771820068359 7.200257301330566 C 39.08216857910156 9.144697189331055 40.60866546630859 11.4086971282959 41.67482757568359 13.92936706542969 C 42.77840805053711 16.53854751586914 43.33797836303711 19.31075668334961 43.33797836303711 22.16898727416992 C 43.33797836303711 25.02721786499023 42.77840805053711 27.7994270324707 41.67482757568359 30.40860748291016 C 40.60866546630859 32.92927551269531 39.08216857910156 35.19327545166016 37.13771820068359 37.13771820068359 C 35.19327545166016 39.08216857910156 32.92927551269531 40.60866546630859 30.40860748291016 41.67482757568359 C 27.7994270324707 42.77840805053711 25.02721786499023 43.33797836303711 22.16898727416992 43.33797836303711 Z" stroke="none"/>
      <path d="M 22.16898727416992 1.999996185302734 C 19.4453067779541 1.999996185302734 16.80416679382324 2.532985687255859 14.31892776489258 3.584156036376953 C 11.91744613647461 4.599895477294922 9.760288238525391 6.054428100585938 7.907356262207031 7.907356262207031 C 6.054428100585938 9.760288238525391 4.599895477294922 11.91744613647461 3.584156036376953 14.31892776489258 C 2.532985687255859 16.80416679382324 1.999996185302734 19.4453067779541 1.999996185302734 22.16898727416992 C 1.999996185302734 24.89266777038574 2.532985687255859 27.5338077545166 3.584156036376953 30.01904678344727 C 4.599895477294922 32.42052841186523 6.054428100585938 34.57768630981445 7.907356262207031 36.43061828613281 C 9.760288238525391 38.28354644775391 11.91744613647461 39.73807525634766 14.31892776489258 40.75381851196289 C 16.80416679382324 41.80498886108398 19.4453067779541 42.33797836303711 22.16898727416992 42.33797836303711 C 24.89266777038574 42.33797836303711 27.5338077545166 41.80498886108398 30.01904678344727 40.75381851196289 C 32.42052841186523 39.73807525634766 34.57768630981445 38.28354644775391 36.43061828613281 36.43061828613281 C 38.28354644775391 34.57768630981445 39.73807525634766 32.42052841186523 40.75381851196289 30.01904678344727 C 41.80498886108398 27.5338077545166 42.33797836303711 24.89266777038574 42.33797836303711 22.16898727416992 C 42.33797836303711 19.4453067779541 41.80498886108398 16.80416679382324 40.75381851196289 14.31892776489258 C 39.73807525634766 11.91744613647461 38.28354644775391 9.760288238525391 36.43061828613281 7.907356262207031 C 34.57768630981445 6.054428100585938 32.42052841186523 4.599895477294922 30.01904678344727 3.584156036376953 C 27.5338077545166 2.532985687255859 24.89266777038574 1.999996185302734 22.16898727416992 1.999996185302734 M 22.16898727416992 -3.814697265625e-06 C 34.41257858276367 -3.814697265625e-06 44.33797836303711 9.925395965576172 44.33797836303711 22.16898727416992 C 44.33797836303711 34.41257858276367 34.41257858276367 44.33797836303711 22.16898727416992 44.33797836303711 C 9.925395965576172 44.33797836303711 -3.814697265625e-06 34.41257858276367 -3.814697265625e-06 22.16898727416992 C -3.814697265625e-06 9.925395965576172 9.925395965576172 -3.814697265625e-06 22.16898727416992 -3.814697265625e-06 Z" stroke="none" fill="#333"/>
    </g>
    <g id="パス_889" data-name="パス 889" transform="translate(11.792 10.947)" fill="#fff">
      <path d="M 20.33856010437012 19.08384132385254 L 1.688876748085022 19.08384132385254 L 11.0137186050415 2.079719305038452 L 20.33856010437012 19.08384132385254 Z" stroke="none"/>
      <path d="M 11.0137186050415 4.15944766998291 L 3.37775993347168 18.08384132385254 L 18.64967727661133 18.08384132385254 L 11.0137186050415 4.15944766998291 M 11.0137186050415 0 L 22.02743911743164 20.08384132385254 L -1.9073486328125e-06 20.08384132385254 L 11.0137186050415 0 Z" stroke="none" fill="#333"/>
    </g>
  </g>
</svg>
