<svg xmlns="http://www.w3.org/2000/svg" width="88.832" height="10.15" viewBox="0 0 88.832 10.15"><path d="M.182,0H.574a.227.227,0,0,0,.2-.126L1.89-2.7H7.238L8.372-.126a.227.227,0,0,0,.2.126h.364c.154,0,.154-.084.126-.168L4.788-9.912a.179.179,0,0,0-.182-.1H4.564a.194.194,0,0,0-.168.1L.084-.168C.042-.056.084,0,.182,0Zm1.96-3.248L4.578-8.89h.028L7-3.248ZM11.886-.182A.163.163,0,0,0,12.04,0h.266a.163.163,0,0,0,.182-.182V-2.9L15.722-.112A.4.4,0,0,0,16,0h.434a.13.13,0,0,0,.07-.238l-3.374-2.9,3.01-2.212c.112-.07.1-.252-.042-.252h-.406a.372.372,0,0,0-.224.084l-2.982,2.17V-9.618a.185.185,0,0,0-.182-.182h-.238a.185.185,0,0,0-.182.182Zm7.14-1.54A1.764,1.764,0,0,0,20.86.14a2.927,2.927,0,0,0,1.946-.8l.056.5c.028.1.07.154.168.154H23.2a.185.185,0,0,0,.182-.182V-3.29c0-1.428-.07-2.45-1.778-2.45a4.053,4.053,0,0,0-1.918.42c-.07.028-.126.084-.084.21l.07.168a.146.146,0,0,0,.21.112,4.11,4.11,0,0,1,1.68-.378c1.106,0,1.232.616,1.232,1.848a4.606,4.606,0,0,0-1.414-.252C19.908-3.612,19.026-2.8,19.026-1.722Zm.574-.014c0-.826.714-1.372,1.778-1.372a3.638,3.638,0,0,1,1.414.294v1.54a2.548,2.548,0,0,1-1.862.868A1.264,1.264,0,0,1,19.6-1.736ZM27.132-.182A.163.163,0,0,0,27.286,0h.28a.163.163,0,0,0,.182-.182v-3.99a1.967,1.967,0,0,1,1.666-.966,1.781,1.781,0,0,1,.728.168c.1.042.182.028.224-.07l.112-.28c.042-.112-.028-.21-.154-.252a2.317,2.317,0,0,0-.868-.168,2.148,2.148,0,0,0-1.75.868l-.056-.574a.167.167,0,0,0-.168-.154h-.168a.185.185,0,0,0-.182.182Zm6.524-8.162a.469.469,0,0,0,.476-.462.484.484,0,0,0-.476-.49.484.484,0,0,0-.476.49A.469.469,0,0,0,33.656-8.344ZM33.348-.182A.163.163,0,0,0,33.5,0h.28a.163.163,0,0,0,.182-.182V-5.418a.185.185,0,0,0-.182-.182H33.53a.185.185,0,0,0-.182.182Zm9.562,0A.185.185,0,0,0,43.092,0h.252c.14,0,.224-.084.224-.182l.014-4.172H48.02c.21,0,.182-.252.182-.406a.185.185,0,0,0-.182-.182H43.582V-9.2h5.124a.185.185,0,0,0,.182-.182v-.238a.185.185,0,0,0-.182-.182H43.092a.185.185,0,0,0-.182.182Zm8.778-2.226c0,1.582.672,2.548,2.24,2.548A2.551,2.551,0,0,0,55.86-.714l.056.546c.014.084.056.168.168.168h.168a.185.185,0,0,0,.182-.182V-5.418a.185.185,0,0,0-.182-.182H56a.169.169,0,0,0-.182.182v3.99a2.332,2.332,0,0,1-1.848.98c-1.064,0-1.666-.658-1.666-1.96v-3.01a.185.185,0,0,0-.182-.182H51.87a.185.185,0,0,0-.182.182ZM60.242-.182A.163.163,0,0,0,60.4,0h.266a.163.163,0,0,0,.182-.182v-3.99a2.87,2.87,0,0,1,2-.966c1.064,0,1.666.672,1.666,1.96v3A.185.185,0,0,0,64.694,0h.252a.185.185,0,0,0,.182-.182v-3c0-1.568-.686-2.562-2.254-2.562a2.992,2.992,0,0,0-2.072.882l-.056-.6a.157.157,0,0,0-.168-.14h-.14a.189.189,0,0,0-.2.182ZM68.4-1.722A1.764,1.764,0,0,0,70.238.14a2.927,2.927,0,0,0,1.946-.8l.056.5c.028.1.07.154.168.154h.168a.185.185,0,0,0,.182-.182V-3.29c0-1.428-.07-2.45-1.778-2.45a4.053,4.053,0,0,0-1.918.42c-.07.028-.126.084-.084.21l.07.168a.146.146,0,0,0,.21.112,4.11,4.11,0,0,1,1.68-.378c1.106,0,1.232.616,1.232,1.848a4.606,4.606,0,0,0-1.414-.252C69.286-3.612,68.4-2.8,68.4-1.722Zm.574-.014c0-.826.714-1.372,1.778-1.372a3.638,3.638,0,0,1,1.414.294v1.54a2.548,2.548,0,0,1-1.862.868A1.264,1.264,0,0,1,68.978-1.736ZM76.1-2.8A2.756,2.756,0,0,0,78.694.14a2.714,2.714,0,0,0,1.932-.812l.042.49a.18.18,0,0,0,.2.182H81a.185.185,0,0,0,.182-.182V-9.618a.183.183,0,0,0-.168-.182h-.252a.176.176,0,0,0-.182.182V-5.18a2.825,2.825,0,0,0-1.722-.56A2.79,2.79,0,0,0,76.1-2.8Zm.616,0a2.2,2.2,0,0,1,2.2-2.338,2.635,2.635,0,0,1,1.666.588v3.136a2.223,2.223,0,0,1-1.848.994A2.187,2.187,0,0,1,76.72-2.8Zm7.826,1.078A1.764,1.764,0,0,0,86.38.14a2.927,2.927,0,0,0,1.946-.8l.056.5c.028.1.07.154.168.154h.168A.185.185,0,0,0,88.9-.182V-3.29c0-1.428-.07-2.45-1.778-2.45a4.053,4.053,0,0,0-1.918.42c-.07.028-.126.084-.084.21l.07.168a.146.146,0,0,0,.21.112,4.11,4.11,0,0,1,1.68-.378c1.106,0,1.232.616,1.232,1.848A4.606,4.606,0,0,0,86.9-3.612C85.428-3.612,84.546-2.8,84.546-1.722Zm.574-.014c0-.826.714-1.372,1.778-1.372a3.638,3.638,0,0,1,1.414.294v1.54a2.548,2.548,0,0,1-1.862.868A1.264,1.264,0,0,1,85.12-1.736Z" transform="translate(-0.068 10.01)" fill="#333"/></svg>