<svg xmlns="http://www.w3.org/2000/svg" width="147.394" height="56.75" viewBox="0 0 147.394 56.75"><g transform="translate(0 -6.458)"><rect width="147.394" height="56.75" transform="translate(0 6.458)" fill="#16344f"/><path d="M1.9-11.866A12.2,12.2,0,0,0,14.212.34a11.748,11.748,0,0,0,8.3-3.3.391.391,0,0,0,0-.578l-.578-.578a.427.427,0,0,0-.544.068A10.779,10.779,0,0,1,14.212-1.19,10.614,10.614,0,0,1,3.6-11.866,10.651,10.651,0,0,1,14.212-22.61a10.621,10.621,0,0,1,7.174,2.788c.2.2.374.238.578.034l.544-.578a.432.432,0,0,0-.034-.612,11.649,11.649,0,0,0-8.262-3.162A12.276,12.276,0,0,0,1.9-11.866ZM29.682-6.834A6.957,6.957,0,0,0,36.516.34,6.978,6.978,0,0,0,43.35-6.834a6.983,6.983,0,0,0-6.834-7.106A6.961,6.961,0,0,0,29.682-6.834Zm1.462,0a5.5,5.5,0,0,1,5.372-5.678,5.492,5.492,0,0,1,5.338,5.678,5.52,5.52,0,0,1-5.338,5.78A5.526,5.526,0,0,1,31.144-6.834ZM51.578-.442A.4.4,0,0,0,51.952,0h.68a.4.4,0,0,0,.442-.442V-23.358a.45.45,0,0,0-.442-.442H52.02a.45.45,0,0,0-.442.442Zm10.54-5.406c0,3.842,1.632,6.188,5.44,6.188A6.2,6.2,0,0,0,72.25-1.734l.136,1.326c.034.2.136.408.408.408H73.2a.45.45,0,0,0,.442-.442V-13.158A.45.45,0,0,0,73.2-13.6H72.59a.411.411,0,0,0-.442.442v9.69a5.663,5.663,0,0,1-4.488,2.38c-2.584,0-4.046-1.6-4.046-4.76v-7.31a.45.45,0,0,0-.442-.442H62.56a.45.45,0,0,0-.442.442ZM82.892-.442A.4.4,0,0,0,83.266,0h.68a.4.4,0,0,0,.442-.442v-9.69a5.482,5.482,0,0,1,4.42-2.346c2.55,0,3.944,1.632,3.944,4.76V-.442A.4.4,0,0,0,93.16,0h.646a.45.45,0,0,0,.442-.442V-7.718a8.926,8.926,0,0,0-.306-2.448,5.825,5.825,0,0,1,4.488-2.312c2.55,0,3.91,1.632,3.91,4.76V-.442a.4.4,0,0,0,.374.442h.68a.45.45,0,0,0,.442-.442V-7.718c0-3.808-1.6-6.222-5.3-6.222a6.887,6.887,0,0,0-5.1,2.482,4.718,4.718,0,0,0-4.454-2.482A5.931,5.931,0,0,0,84.286-11.8l-.17-1.462a.371.371,0,0,0-.374-.34h-.408a.45.45,0,0,0-.442.442Zm30.022,0a.4.4,0,0,0,.374.442h.646a.4.4,0,0,0,.442-.442v-9.69a6.97,6.97,0,0,1,4.862-2.346c2.584,0,4.046,1.632,4.046,4.76V-.442a.45.45,0,0,0,.442.442h.612a.45.45,0,0,0,.442-.442V-7.718c0-3.808-1.666-6.222-5.474-6.222a7.266,7.266,0,0,0-5.032,2.142l-.136-1.462a.381.381,0,0,0-.408-.34h-.34a.458.458,0,0,0-.476.442Z" transform="translate(10.197 46.333)" fill="#fff"/></g></svg>