<?xml version="1.0" encoding="utf-8"?>
<!-- Generator: Adobe Illustrator 25.4.1, SVG Export Plug-In . SVG Version: 6.00 Build 0)  -->
<svg version="1.1" id="レイヤー_1" xmlns="http://www.w3.org/2000/svg" xmlns:xlink="http://www.w3.org/1999/xlink" x="0px"
	 y="0px" viewBox="0 0 147.4 56.8" style="enable-background:new 0 0 147.4 56.8;" xml:space="preserve">
<style type="text/css">
	.st0{fill:#16344F;}
	.st1{enable-background:new    ;}
	.st2{fill:#FFFFFF;}
</style>
<g id="グループ_2724" transform="translate(0 -6.458)">
	<rect id="長方形_2604" y="6.5" class="st0" width="147.4" height="56.8"/>
	<g class="st1">
		<path class="st2" d="M24.4,22.2c3.5,0,6.1,1.2,8.3,3.2c0.2,0.2,0.2,0.4,0,0.6l-0.5,0.6c-0.2,0.2-0.4,0.2-0.6,0
			c-1.9-1.7-4.4-2.8-7.2-2.8c-5.9,0-10.6,4.9-10.6,10.7c0,5.8,4.7,10.7,10.6,10.7c2.9,0,5.1-1.2,7.2-2.9c0.2-0.2,0.4-0.2,0.5-0.1
			l0.6,0.6c0.2,0.1,0.2,0.4,0,0.6c-2.3,2.2-5.3,3.3-8.3,3.3c-6.8,0-12.3-5.4-12.3-12.2C12.1,27.7,17.6,22.2,24.4,22.2z"/>
		<path class="st2" d="M46.7,32.4c3.8,0,6.8,3.2,6.8,7.1c0,4-3,7.2-6.8,7.2c-3.8,0-6.8-3.2-6.8-7.2C39.9,35.6,42.9,32.4,46.7,32.4z
			 M46.7,45.3c3,0,5.3-2.5,5.3-5.8c0-3.1-2.3-5.7-5.3-5.7c-3,0-5.4,2.5-5.4,5.7C41.3,42.7,43.7,45.3,46.7,45.3z"/>
		<path class="st2" d="M61.8,23c0-0.2,0.2-0.4,0.4-0.4h0.6c0.2,0,0.4,0.2,0.4,0.4v22.9c0,0.3-0.1,0.4-0.4,0.4h-0.7
			c-0.2,0-0.4-0.2-0.4-0.4V23z"/>
		<path class="st2" d="M72.3,33.2c0-0.2,0.2-0.4,0.4-0.4h0.6c0.2,0,0.4,0.2,0.4,0.4v7.3c0,3.2,1.5,4.8,4,4.8c2.8,0,4.4-2.2,4.5-2.4
			v-9.7c0-0.3,0.2-0.4,0.4-0.4h0.6c0.2,0,0.4,0.2,0.4,0.4v12.7c0,0.2-0.2,0.4-0.4,0.4H83c-0.3,0-0.4-0.2-0.4-0.4l-0.1-1.3
			c-0.4,0.5-2,2.1-4.7,2.1c-3.8,0-5.4-2.3-5.4-6.2V33.2z"/>
		<path class="st2" d="M93.1,33.2c0-0.2,0.2-0.4,0.4-0.4h0.4c0.2,0,0.3,0.1,0.4,0.3l0.2,1.5c0.4-0.5,1.9-2.1,4.7-2.1
			c2.1,0,3.6,0.9,4.5,2.5c0.4-0.5,2.3-2.5,5.1-2.5c3.7,0,5.3,2.4,5.3,6.2v7.3c0,0.2-0.2,0.4-0.4,0.4h-0.7c-0.2,0-0.4-0.2-0.4-0.4
			v-7.3c0-3.1-1.4-4.8-3.9-4.8s-4,1.8-4.5,2.3c0.2,0.7,0.3,1.5,0.3,2.4v7.3c0,0.2-0.2,0.4-0.4,0.4h-0.6c-0.2,0-0.4-0.2-0.4-0.4v-7.3
			c0-3.1-1.4-4.8-3.9-4.8c-2.8,0-4.2,2.1-4.4,2.3v9.7c0,0.3-0.1,0.4-0.4,0.4h-0.7c-0.2,0-0.4-0.2-0.4-0.4V33.2z"/>
		<path class="st2" d="M123.1,33.2c0-0.2,0.2-0.4,0.5-0.4h0.3c0.2,0,0.4,0.1,0.4,0.3l0.1,1.5c0.4-0.5,2.3-2.1,5-2.1
			c3.8,0,5.5,2.4,5.5,6.2v7.3c0,0.2-0.2,0.4-0.4,0.4h-0.6c-0.2,0-0.4-0.2-0.4-0.4v-7.3c0-3.1-1.5-4.8-4-4.8c-2.8,0-4.7,2.2-4.9,2.3
			v9.7c0,0.3-0.1,0.4-0.4,0.4h-0.6c-0.2,0-0.4-0.2-0.4-0.4V33.2z"/>
	</g>
</g>
</svg>
