<svg xmlns="http://www.w3.org/2000/svg" width="107.354" height="14.21" viewBox="0 0 107.354 14.21">
  <path id="パス_896" data-name="パス 896" d="M.938-1.008A4.56,4.56,0,0,0,3.906.14c1.61,0,3.052-1.092,3.052-2.492,0-1.624-1.218-2.3-3.136-2.954C2.408-5.768,1.5-6.286,1.5-7.476c0-.8.644-1.862,2.366-1.862a4.1,4.1,0,0,1,2.058.658.2.2,0,0,0,.308-.07,1.278,1.278,0,0,1,.112-.182.2.2,0,0,0-.056-.294A4.6,4.6,0,0,0,3.878-9.94C1.694-9.94.854-8.512.854-7.462c0,1.61,1.078,2.184,2.7,2.758C5.25-4.13,6.272-3.57,6.272-2.324A2.181,2.181,0,0,1,3.92-.448,4.072,4.072,0,0,1,1.33-1.526c-.112-.1-.21-.056-.308.056L.9-1.3C.784-1.148.854-1.078.938-1.008ZM9.9-1.722A1.764,1.764,0,0,0,11.732.14a2.927,2.927,0,0,0,1.946-.8l.056.5c.028.1.07.154.168.154h.168a.185.185,0,0,0,.182-.182V-3.29c0-1.428-.07-2.45-1.778-2.45a4.053,4.053,0,0,0-1.918.42c-.07.028-.126.084-.084.21l.07.168a.146.146,0,0,0,.21.112,4.11,4.11,0,0,1,1.68-.378c1.106,0,1.232.616,1.232,1.848a4.606,4.606,0,0,0-1.414-.252C10.78-3.612,9.9-2.8,9.9-1.722Zm.574-.014c0-.826.714-1.372,1.778-1.372a3.638,3.638,0,0,1,1.414.294v1.54A2.548,2.548,0,0,1,11.8-.406,1.264,1.264,0,0,1,10.472-1.736ZM19.8-.056,17.906,4c-.056.126-.014.2.1.2h.322a.2.2,0,0,0,.182-.112l4.4-9.464c.056-.112.042-.224-.084-.224h-.308a.207.207,0,0,0-.182.126L20.146-.742h-.028L17.724-5.474a.207.207,0,0,0-.182-.126h-.308c-.126,0-.14.112-.084.224Zm5.642-1.666A1.764,1.764,0,0,0,27.272.14a2.927,2.927,0,0,0,1.946-.8l.056.5c.028.1.07.154.168.154h.168a.185.185,0,0,0,.182-.182V-3.29c0-1.428-.07-2.45-1.778-2.45a4.053,4.053,0,0,0-1.918.42c-.07.028-.126.084-.084.21l.07.168a.146.146,0,0,0,.21.112,4.11,4.11,0,0,1,1.68-.378c1.106,0,1.232.616,1.232,1.848a4.606,4.606,0,0,0-1.414-.252C26.32-3.612,25.438-2.8,25.438-1.722Zm.574-.014c0-.826.714-1.372,1.778-1.372a3.638,3.638,0,0,1,1.414.294v1.54a2.548,2.548,0,0,1-1.862.868A1.264,1.264,0,0,1,26.012-1.736ZM33.544-.182A.163.163,0,0,0,33.7,0h.266a.163.163,0,0,0,.182-.182V-2.9L37.38-.112A.4.4,0,0,0,37.66,0h.434a.13.13,0,0,0,.07-.238l-3.374-2.9L37.8-5.348c.112-.07.1-.252-.042-.252h-.406a.372.372,0,0,0-.224.084l-2.982,2.17V-9.618a.185.185,0,0,0-.182-.182h-.238a.185.185,0,0,0-.182.182Zm7.14-1.54A1.764,1.764,0,0,0,42.518.14a2.927,2.927,0,0,0,1.946-.8l.056.5c.028.1.07.154.168.154h.168a.185.185,0,0,0,.182-.182V-3.29c0-1.428-.07-2.45-1.778-2.45a4.053,4.053,0,0,0-1.918.42c-.07.028-.126.084-.084.21l.07.168a.146.146,0,0,0,.21.112,4.11,4.11,0,0,1,1.68-.378c1.106,0,1.232.616,1.232,1.848a4.606,4.606,0,0,0-1.414-.252C41.566-3.612,40.684-2.8,40.684-1.722Zm.574-.014c0-.826.714-1.372,1.778-1.372a3.638,3.638,0,0,1,1.414.294v1.54a2.548,2.548,0,0,1-1.862.868A1.264,1.264,0,0,1,41.258-1.736ZM52.626,0h.392a.227.227,0,0,0,.2-.126L54.334-2.7h5.348L60.816-.126a.227.227,0,0,0,.2.126h.364c.154,0,.154-.084.126-.168l-4.27-9.744a.179.179,0,0,0-.182-.1h-.042a.194.194,0,0,0-.168.1L52.528-.168C52.486-.056,52.528,0,52.626,0Zm1.96-3.248L57.022-8.89h.028l2.394,5.642ZM64.33-.182A.163.163,0,0,0,64.484,0h.266a.163.163,0,0,0,.182-.182V-2.9L68.166-.112a.4.4,0,0,0,.28.112h.434a.13.13,0,0,0,.07-.238l-3.374-2.9,3.01-2.212c.112-.07.1-.252-.042-.252h-.406a.372.372,0,0,0-.224.084l-2.982,2.17V-9.618A.185.185,0,0,0,64.75-9.8h-.238a.185.185,0,0,0-.182.182Zm7.938-8.162a.469.469,0,0,0,.476-.462.484.484,0,0,0-.476-.49.484.484,0,0,0-.476.49A.469.469,0,0,0,72.268-8.344ZM71.96-.182A.163.163,0,0,0,72.114,0h.28a.163.163,0,0,0,.182-.182V-5.418a.185.185,0,0,0-.182-.182h-.252a.185.185,0,0,0-.182.182Zm6.216.126L76.286,4c-.056.126-.014.2.1.2h.322a.2.2,0,0,0,.182-.112l4.4-9.464c.056-.112.042-.224-.084-.224h-.308a.207.207,0,0,0-.182.126L78.526-.742H78.5L76.1-5.474a.207.207,0,0,0-.182-.126h-.308c-.126,0-.14.112-.084.224Zm5.642-1.666A1.764,1.764,0,0,0,85.652.14a2.927,2.927,0,0,0,1.946-.8l.056.5c.028.1.07.154.168.154h.168a.185.185,0,0,0,.182-.182V-3.29c0-1.428-.07-2.45-1.778-2.45a4.053,4.053,0,0,0-1.918.42c-.07.028-.126.084-.084.21l.07.168a.146.146,0,0,0,.21.112,4.11,4.11,0,0,1,1.68-.378c1.106,0,1.232.616,1.232,1.848a4.606,4.606,0,0,0-1.414-.252C84.7-3.612,83.818-2.8,83.818-1.722Zm.574-.014c0-.826.714-1.372,1.778-1.372a3.638,3.638,0,0,1,1.414.294v1.54a2.548,2.548,0,0,1-1.862.868A1.264,1.264,0,0,1,84.392-1.736ZM91.924-.182A.163.163,0,0,0,92.078,0h.28a.163.163,0,0,0,.182-.182v-3.99a2.257,2.257,0,0,1,1.82-.966c1.05,0,1.624.672,1.624,1.96v3A.166.166,0,0,0,96.152,0h.266A.185.185,0,0,0,96.6-.182v-3a3.675,3.675,0,0,0-.126-1.008,2.4,2.4,0,0,1,1.848-.952c1.05,0,1.61.672,1.61,1.96v3a.164.164,0,0,0,.154.182h.28a.185.185,0,0,0,.182-.182v-3c0-1.568-.658-2.562-2.184-2.562a2.836,2.836,0,0,0-2.1,1.022A1.943,1.943,0,0,0,94.43-5.74a2.442,2.442,0,0,0-1.932.882l-.07-.6a.153.153,0,0,0-.154-.14h-.168a.185.185,0,0,0-.182.182Zm11.914-1.54A1.764,1.764,0,0,0,105.672.14a2.927,2.927,0,0,0,1.946-.8l.056.5c.028.1.07.154.168.154h.168a.185.185,0,0,0,.182-.182V-3.29c0-1.428-.07-2.45-1.778-2.45a4.053,4.053,0,0,0-1.918.42c-.07.028-.126.084-.084.21l.07.168a.146.146,0,0,0,.21.112,4.11,4.11,0,0,1,1.68-.378c1.106,0,1.232.616,1.232,1.848a4.606,4.606,0,0,0-1.414-.252C104.72-3.612,103.838-2.8,103.838-1.722Zm.574-.014c0-.826.714-1.372,1.778-1.372a3.638,3.638,0,0,1,1.414.294v1.54a2.548,2.548,0,0,1-1.862.868A1.264,1.264,0,0,1,104.412-1.736Z" transform="translate(-0.838 10.01)" fill="#333"/>
</svg>
