<?xml version="1.0" encoding="utf-8"?>
<!-- Generator: Adobe Illustrator 25.4.1, SVG Export Plug-In . SVG Version: 6.00 Build 0)  -->
<svg version="1.1" id="レイヤー_1" xmlns="http://www.w3.org/2000/svg" xmlns:xlink="http://www.w3.org/1999/xlink" x="0px"
	 y="0px" viewBox="0 0 147.4 56.8" style="enable-background:new 0 0 147.4 56.8;" xml:space="preserve">
<style type="text/css">
	.st0{fill:#16344F;}
	.st1{enable-background:new    ;}
	.st2{fill:#FFFFFF;}
</style>
<g id="グループ_2845" transform="translate(0 -6.458)">
	<rect id="長方形_2604" y="6.5" class="st0" width="147.4" height="56.8"/>
	<g class="st1">
		<path class="st2" d="M21.3,23c0-0.2,0.2-0.4,0.4-0.4h7.3c4.2,0,7.7,3.4,7.7,7.6c0,4.2-3.5,7.7-7.6,7.7h-6.2v8
			c0,0.2-0.2,0.4-0.5,0.4h-0.6c-0.2,0-0.4-0.2-0.4-0.4V23z M29,36.3c3.3,0,6.2-2.8,6.2-6.2c0-3.3-2.8-6-6.2-6h-6.1v12.2H29z"/>
		<path class="st2" d="M43.9,33.2c0-0.2,0.2-0.4,0.4-0.4h0.4c0.2,0,0.4,0.1,0.4,0.4l0.1,1.4c0.3-0.5,1.7-2.1,4.2-2.1
			c1.1,0,1.8,0.3,2.1,0.4c0.3,0.1,0.5,0.3,0.4,0.6l-0.3,0.7c-0.1,0.2-0.3,0.3-0.5,0.2c-0.2-0.1-0.9-0.4-1.8-0.4
			c-2.7,0-3.9,2.1-4,2.3v9.7c0,0.3-0.1,0.4-0.4,0.4h-0.7c-0.2,0-0.4-0.2-0.4-0.4V33.2z"/>
		<path class="st2" d="M64.7,32.4c3.8,0,6.8,3.2,6.8,7.1c0,4-3,7.2-6.8,7.2c-3.8,0-6.8-3.2-6.8-7.2C57.9,35.6,60.8,32.4,64.7,32.4z
			 M64.7,45.3c3,0,5.3-2.5,5.3-5.8c0-3.1-2.3-5.7-5.3-5.7c-3,0-5.4,2.5-5.4,5.7C59.3,42.7,61.7,45.3,64.7,45.3z"/>
		<path class="st2" d="M80.6,34.1h-2.2c-0.3,0-0.4-0.2-0.4-0.5v-0.4c0-0.2,0.2-0.4,0.4-0.4h2.2v-4.5c0-4,2.7-6,5.6-6
			c2.5,0,4.4,1.3,5,1.8c0.1,0.1,0.1,0.3,0,0.5l-0.4,0.5c-0.1,0.2-0.3,0.2-0.5,0c-0.6-0.4-2-1.6-4.1-1.6c-2.1,0-4.1,1.5-4.1,4.7v4.5
			h9.6c0.2,0,0.4,0.2,0.4,0.4v12.7c0,0.3-0.2,0.4-0.5,0.4h-0.6c-0.2,0-0.4-0.2-0.4-0.4V34.1h-8.6v11.8c0,0.2-0.2,0.4-0.4,0.4h-0.6
			c-0.2,0-0.4-0.2-0.4-0.4V34.1z"/>
		<path class="st2" d="M101.4,23c0-0.2,0.2-0.4,0.4-0.4h0.6c0.2,0,0.4,0.2,0.4,0.4v22.9c0,0.3-0.1,0.4-0.4,0.4h-0.7
			c-0.2,0-0.4-0.2-0.4-0.4V23z"/>
		<path class="st2" d="M117.9,32.4c3.6,0,6.2,2.6,6.2,6.2c0,0.5,0,1.3-0.5,1.3h-10.8c0.1,2.9,2.2,5.4,5.3,5.4c1.8,0,3.2-0.7,4-1.3
			c0.3-0.2,0.4-0.2,0.6,0l0.3,0.5c0.1,0.1,0.1,0.3-0.1,0.5c-0.7,0.7-2.8,1.6-4.9,1.6c-4.1,0-6.7-3.2-6.7-7.2
			C111.2,35.6,113.7,32.4,117.9,32.4z M122.5,38.7c0-2.7-1.6-5-4.7-5c-3,0-5,2.2-5.2,5H122.5z"/>
	</g>
</g>
</svg>
