<?xml version="1.0" encoding="utf-8"?>
<!-- Generator: Adobe Illustrator 25.4.1, SVG Export Plug-In . SVG Version: 6.00 Build 0)  -->
<svg version="1.1" id="レイヤー_1" xmlns="http://www.w3.org/2000/svg" xmlns:xlink="http://www.w3.org/1999/xlink" x="0px"
	 y="0px" viewBox="0 0 113 23" style="enable-background:new 0 0 113 23;" xml:space="preserve">
<style type="text/css">
	.st0{enable-background:new    ;}
	.st1{fill:#333333;}
</style>
<g class="st0">
	<path class="st1" d="M1.6,11.2L5,7.8v2.8h9.2v1.2H5v2.8L1.6,11.2z"/>
</g>
<g class="st0">
	<path class="st1" d="M19.6,6c0-0.1,0.1-0.2,0.2-0.2h3.4c2,0,3.6,1.6,3.6,3.6c0,2-1.6,3.6-3.6,3.6h-2.9v3.8c0,0.1-0.1,0.2-0.3,0.2
		h-0.3c-0.1,0-0.2-0.1-0.2-0.2V6z M23.2,12.3c1.6,0,2.9-1.3,2.9-2.9c0-1.6-1.3-2.8-2.9-2.8h-2.8v5.7H23.2z"/>
	<path class="st1" d="M30.2,10.8c0-0.1,0.1-0.2,0.2-0.2h0.2c0.1,0,0.2,0.1,0.2,0.2l0.1,0.7c0.2-0.2,0.8-1,2-1c0.5,0,0.9,0.1,1,0.2
		c0.1,0,0.2,0.2,0.2,0.3l-0.1,0.3c0,0.1-0.1,0.1-0.3,0.1c-0.1,0-0.4-0.2-0.8-0.2c-1.2,0-1.9,1-1.9,1.1v4.6c0,0.1-0.1,0.2-0.2,0.2
		h-0.3c-0.1,0-0.2-0.1-0.2-0.2V10.8z"/>
	<path class="st1" d="M40,10.4c1.7,0,2.9,1.2,2.9,2.9c0,0.3,0,0.6-0.2,0.6h-5.1c0.1,1.4,1.1,2.5,2.5,2.5c0.8,0,1.5-0.3,1.9-0.6
		c0.1-0.1,0.2-0.1,0.3,0l0.2,0.2c0,0.1,0,0.2-0.1,0.3C42,16.7,41,17.2,40,17.2c-2,0-3.2-1.5-3.2-3.4C36.8,12,38,10.4,40,10.4z
		 M42.2,13.4c0-1.2-0.8-2.3-2.2-2.3c-1.4,0-2.4,1-2.4,2.3H42.2z"/>
	<path class="st1" d="M47.4,21.6c0,0.1-0.1,0.2-0.2,0.2h-0.3c-0.1,0-0.2-0.1-0.2-0.2V10.8c0-0.1,0.1-0.2,0.2-0.2h0.2
		c0.1,0,0.2,0,0.2,0.2l0,0.4c0.2-0.2,0.9-0.8,2.1-0.8c1.8,0,3.1,1.5,3.1,3.4c0,1.9-1.3,3.4-3.2,3.4c-1.1,0-1.7-0.5-1.9-0.7V21.6z
		 M49.2,16.5c1.6,0,2.6-1.2,2.6-2.7c0-1.5-1-2.7-2.4-2.7c-1.2,0-1.9,0.8-2,0.9v3.7C47.4,15.8,48.1,16.5,49.2,16.5z"/>
	<path class="st1" d="M62.3,6c0-0.1,0.1-0.2,0.2-0.2h3.4c2,0,3.6,1.6,3.6,3.6c0,2-1.6,3.6-3.6,3.6H63v3.8c0,0.1-0.1,0.2-0.3,0.2
		h-0.3c-0.1,0-0.2-0.1-0.2-0.2V6z M65.9,12.3c1.6,0,2.9-1.3,2.9-2.9c0-1.6-1.3-2.8-2.9-2.8H63v5.7H65.9z"/>
	<path class="st1" d="M75.4,10.4c1.7,0,2.9,1.2,2.9,2.9c0,0.3,0,0.6-0.2,0.6h-5.1c0.1,1.4,1.1,2.5,2.5,2.5c0.8,0,1.5-0.3,1.9-0.6
		c0.1-0.1,0.2-0.1,0.3,0l0.2,0.2c0,0.1,0,0.2-0.1,0.3c-0.3,0.3-1.3,0.8-2.3,0.8c-2,0-3.2-1.5-3.2-3.4C72.2,12,73.4,10.4,75.4,10.4z
		 M77.6,13.4c0-1.2-0.8-2.3-2.2-2.3c-1.4,0-2.4,1-2.4,2.3H77.6z"/>
	<path class="st1" d="M84.8,10.4c1.8,0,3.2,1.5,3.2,3.3c0,1.9-1.4,3.4-3.2,3.4c-1.8,0-3.2-1.5-3.2-3.4C81.6,12,83,10.4,84.8,10.4z
		 M84.8,16.5c1.4,0,2.5-1.2,2.5-2.7c0-1.5-1.1-2.7-2.5-2.7c-1.4,0-2.5,1.2-2.5,2.7C82.3,15.3,83.4,16.5,84.8,16.5z"/>
	<path class="st1" d="M92.6,21.6c0,0.1-0.1,0.2-0.2,0.2h-0.3c-0.1,0-0.2-0.1-0.2-0.2V10.8c0-0.1,0.1-0.2,0.2-0.2h0.2
		c0.1,0,0.2,0,0.2,0.2l0,0.4c0.2-0.2,0.9-0.8,2.1-0.8c1.8,0,3.1,1.5,3.1,3.4c0,1.9-1.3,3.4-3.2,3.4c-1.1,0-1.7-0.5-1.9-0.7V21.6z
		 M94.4,16.5c1.6,0,2.6-1.2,2.6-2.7c0-1.5-1-2.7-2.4-2.7c-1.2,0-1.9,0.8-2,0.9v3.7C92.6,15.8,93.3,16.5,94.4,16.5z"/>
	<path class="st1" d="M101.6,6c0-0.1,0.1-0.2,0.2-0.2h0.3c0.1,0,0.2,0.1,0.2,0.2v10.8c0,0.1-0.1,0.2-0.2,0.2h-0.3
		c-0.1,0-0.2-0.1-0.2-0.2V6z"/>
	<path class="st1" d="M109.3,10.4c1.7,0,2.9,1.2,2.9,2.9c0,0.3,0,0.6-0.2,0.6h-5.1c0.1,1.4,1.1,2.5,2.5,2.5c0.8,0,1.5-0.3,1.9-0.6
		c0.1-0.1,0.2-0.1,0.3,0l0.2,0.2c0,0.1,0,0.2-0.1,0.3c-0.3,0.3-1.3,0.8-2.3,0.8c-2,0-3.2-1.5-3.2-3.4
		C106.2,12,107.4,10.4,109.3,10.4z M111.5,13.4c0-1.2-0.8-2.3-2.2-2.3c-1.4,0-2.4,1-2.4,2.3H111.5z"/>
</g>
</svg>
