<svg xmlns="http://www.w3.org/2000/svg" width="139.517" height="34.965" viewBox="0 0 139.517 34.965"><g transform="translate(-997 -4380.035)"><g transform="translate(576 -596.958)"><path d="M2.226-.273A.278.278,0,0,0,2.5,0h.378c.21,0,.336-.126.336-.273v-5.4H7.077c.273,0,.5,0,.777-.021L10.9-.189A.3.3,0,0,0,11.193,0h.651c.21,0,.252-.21.147-.378L8.925-5.817a4.6,4.6,0,0,0,3.465-4.389A4.555,4.555,0,0,0,7.707-14.7H2.5a.265.265,0,0,0-.273.273ZM3.234-6.552v-7.182h4.41a3.625,3.625,0,0,1,3.738,3.528A3.67,3.67,0,0,1,7.665-6.552Zm14.2,2.331A4.117,4.117,0,0,0,21.567.21a5.079,5.079,0,0,0,3.045-.987c.126-.126.147-.252.084-.336l-.21-.294c-.1-.147-.189-.126-.378,0A4.483,4.483,0,0,1,21.63-.63a3.316,3.316,0,0,1-3.276-3.318h6.7c.315,0,.315-.483.315-.819a3.7,3.7,0,0,0-3.8-3.843A4.116,4.116,0,0,0,17.43-4.221Zm.945-.483A3.125,3.125,0,0,1,21.567-7.77,2.826,2.826,0,0,1,24.444-4.7ZM30.534-2.583A2.646,2.646,0,0,0,33.285.21,4.39,4.39,0,0,0,36.2-.987l.084.756c.042.147.1.231.252.231h.252a.278.278,0,0,0,.273-.273V-4.935c0-2.142-.105-3.675-2.667-3.675a6.08,6.08,0,0,0-2.877.63c-.1.042-.189.126-.126.315l.1.252a.219.219,0,0,0,.315.168,6.165,6.165,0,0,1,2.52-.567c1.659,0,1.848.924,1.848,2.772a6.91,6.91,0,0,0-2.121-.378C31.857-5.418,30.534-4.2,30.534-2.583ZM31.4-2.6c0-1.239,1.071-2.058,2.667-2.058a5.457,5.457,0,0,1,2.121.441v2.31a3.822,3.822,0,0,1-2.793,1.3A1.9,1.9,0,0,1,31.4-2.6ZM42.924-4.2A4.134,4.134,0,0,0,46.809.21a4.07,4.07,0,0,0,2.9-1.218l.063.735A.269.269,0,0,0,50.064,0h.21a.278.278,0,0,0,.273-.273V-14.427a.275.275,0,0,0-.252-.273h-.378a.265.265,0,0,0-.273.273V-7.77a4.238,4.238,0,0,0-2.583-.84A4.186,4.186,0,0,0,42.924-4.2Zm.924,0a3.3,3.3,0,0,1,3.3-3.507,3.953,3.953,0,0,1,2.5.882v4.7A3.335,3.335,0,0,1,46.872-.63C45.108-.63,43.848-2.247,43.848-4.2ZM65.016-.273A.244.244,0,0,0,65.247,0h.42a.244.244,0,0,0,.273-.273V-6.258a3.386,3.386,0,0,1,2.73-1.449c1.575,0,2.436,1.008,2.436,2.94V-.273A.249.249,0,0,0,71.358,0h.4a.278.278,0,0,0,.273-.273V-4.767a5.513,5.513,0,0,0-.189-1.512,3.6,3.6,0,0,1,2.772-1.428c1.575,0,2.415,1.008,2.415,2.94V-.273A.245.245,0,0,0,77.259,0h.42a.278.278,0,0,0,.273-.273V-4.767c0-2.352-.987-3.843-3.276-3.843a4.254,4.254,0,0,0-3.15,1.533A2.914,2.914,0,0,0,68.775-8.61a3.663,3.663,0,0,0-2.9,1.323l-.105-.9a.229.229,0,0,0-.231-.21h-.252a.278.278,0,0,0-.273.273ZM83.769-4.221A4.3,4.3,0,0,0,87.99.21a4.31,4.31,0,0,0,4.221-4.431A4.313,4.313,0,0,0,87.99-8.61,4.3,4.3,0,0,0,83.769-4.221Zm.9,0A3.4,3.4,0,0,1,87.99-7.728a3.392,3.392,0,0,1,3.3,3.507,3.41,3.41,0,0,1-3.3,3.57A3.413,3.413,0,0,1,84.672-4.221ZM98.133-.273A.244.244,0,0,0,98.364,0h.42a.244.244,0,0,0,.273-.273V-6.258a2.951,2.951,0,0,1,2.5-1.449,2.672,2.672,0,0,1,1.092.252c.147.063.273.042.336-.105l.168-.42c.063-.168-.042-.315-.231-.378a3.476,3.476,0,0,0-1.3-.252,3.222,3.222,0,0,0-2.625,1.3l-.084-.861a.251.251,0,0,0-.252-.231h-.252a.278.278,0,0,0-.273.273Zm9.492-3.948A4.117,4.117,0,0,0,111.762.21a5.079,5.079,0,0,0,3.045-.987c.126-.126.147-.252.084-.336l-.21-.294c-.1-.147-.189-.126-.378,0a4.483,4.483,0,0,1-2.478.777,3.316,3.316,0,0,1-3.276-3.318h6.7c.315,0,.315-.483.315-.819a3.7,3.7,0,0,0-3.8-3.843A4.116,4.116,0,0,0,107.625-4.221Zm.945-.483a3.125,3.125,0,0,1,3.192-3.066A2.826,2.826,0,0,1,114.639-4.7Z" transform="translate(420 4992.958)" fill="#333"/><path d="M8.966,0l8.966,15.517H0Z" transform="translate(560.517 4976.993) rotate(90)" fill="#fff"/><path d="M8.966,2,1.733,14.517H16.2L8.966,2m0-2,8.966,15.517H0Z" transform="translate(560.517 4976.993) rotate(90)" fill="#333"/></g><path d="M0,0H138V7H0Z" transform="translate(997 4408)" fill="#fff"/><path d="M1,1V6H137V1H1M0,0H138V7H0Z" transform="translate(997 4408)" fill="#333"/></g></svg>