<?xml version="1.0" encoding="utf-8"?>
<!-- Generator: Adobe Illustrator 25.4.1, SVG Export Plug-In . SVG Version: 6.00 Build 0)  -->
<svg version="1.1" id="レイヤー_1" xmlns="http://www.w3.org/2000/svg" xmlns:xlink="http://www.w3.org/1999/xlink" x="0px"
	 y="0px" viewBox="0 0 367 70" style="enable-background:new 0 0 367 70;" xml:space="preserve">
<style type="text/css">
	.st0{enable-background:new    ;}
	.st1{fill:#333333;}
	.st2{fill:#16344F;}
</style>
<g id="グループ_2827" transform="translate(-181 -9)">
	<g class="st0">
		<path class="st1" d="M197.9,44.3c0,0,1.1,0.9,1.7,1.5c-0.1,0.2-0.2,0.3-0.5,0.3h-16.8l-0.2-0.6h5v-5.3H183l-0.2-0.6h4.4v-4.4
			l1.9,0.2c-0.1,0.3-0.2,0.5-0.7,0.5v3.7h4.9v-4.4l1.9,0.2c-0.1,0.3-0.2,0.5-0.7,0.5v3.7h2l0.9-1.1c0,0,1,0.8,1.7,1.4
			c-0.1,0.2-0.2,0.3-0.5,0.3h-4v5.3h2.4L197.9,44.3z M182.6,52.2c2.2-1.3,4.4-3.5,5.5-5.2l1.7,1c-0.1,0.2-0.3,0.3-0.7,0.2
			c-1.3,1.5-3.7,3.3-6.3,4.3L182.6,52.2z M188.5,45.5h4.9v-5.3h-4.9V45.5z M192.9,47.3c6.8,2.4,6.5,5.8,4.8,4.9
			c-0.9-1.5-3.3-3.6-5-4.7L192.9,47.3z"/>
	</g>
	<g class="st0">
		<path class="st1" d="M210.1,44.1c-0.4,1-1.3,3.1-1.5,3.9c-0.2,0.6-0.3,1-0.3,1.4c0,0.6,0.4,1.2,0.4,1.6c0,0.4-0.2,0.6-0.6,0.6
			c-0.3,0-0.6-0.3-0.9-0.7c-0.5-0.8-1.1-2.5-1.1-4.3c0-2.3,0.6-3.9,0.9-5c0.2-0.9,0.5-1.6,0.5-2.2c0-0.7-0.4-1.3-1.1-2l0.3-0.2
			c0.4,0.2,0.6,0.3,1,0.6c0.4,0.3,1.2,1.2,1.2,2c0,0.4-0.3,0.8-0.7,1.9c-0.5,1.1-1.2,2.8-1.2,4.7c0,1,0.2,1.4,0.3,1.6
			c0.1,0.2,0.2,0.3,0.4,0c0.4-0.7,1.5-3,1.9-4L210.1,44.1z M212,45.7c0.1,0.5,0.3,1.2,0.6,1.7c0.6,1.1,1.7,1.8,4,1.8
			c2.1,0,2.8-0.3,3.2-0.3c0.5,0,1,0.2,1,0.6c0,0.8-1.8,1-3.8,1c-3,0-4.6-1-5.1-2.9c-0.2-0.6-0.2-1.2-0.2-1.7L212,45.7z M212.2,39.8
			c1.5-0.8,3.2-1.2,4.5-1.2c1.3,0,2,0.1,2.6,0.4c0.4,0.2,0.6,0.4,0.6,0.7c0,0.2-0.1,0.4-0.5,0.5c-0.5,0.1-0.9,0.1-1.6,0.4
			c-0.8,0.4-2.2,1.1-3.1,1.7l-0.3-0.3c0.9-0.6,2.2-1.6,2.6-1.9c0.2-0.2,0.2-0.3-1-0.3c-0.8,0-2,0.1-3.6,0.6L212.2,39.8z"/>
	</g>
	<g class="st0">
		<path class="st1" d="M242,39.9c0,0,1.1,0.8,1.7,1.4c-0.1,0.2-0.2,0.3-0.5,0.3h-16.7l-0.2-0.6h3.6v-4.6l1.8,0.2
			c0,0.2-0.2,0.4-0.6,0.5v3.9h3.2v-6l1.9,0.2c0,0.3-0.2,0.5-0.7,0.5v2.1h3.3l0.9-1.2c0,0,1,0.8,1.7,1.4c0,0.2-0.2,0.3-0.5,0.3h-5.4
			v2.6h5.3L242,39.9z M232.7,43.4c-0.1,0.2-0.3,0.3-0.7,0.2c-1.1,1.5-3.2,3.3-5.5,4.4l-0.2-0.2c1.9-1.4,3.7-3.6,4.6-5.3L232.7,43.4z
			 M227.1,52.1c4.9-1,8.7-2.4,11.8-6.7l1.7,1c-0.1,0.2-0.3,0.2-0.8,0.1c-3.4,4.1-7.4,5.3-12.6,6L227.1,52.1z M231.8,46.9
			c0,0,1.9,0.1,2.3,0.1c0.3,0,0.4-0.1,0.4-0.4v-4.9l1.9,0.2c-0.1,0.3-0.2,0.4-0.6,0.5v4.3c0,1-0.2,1.6-2,1.8
			c-0.1-0.4-0.2-0.7-0.4-0.9c-0.3-0.2-0.7-0.4-1.5-0.5V46.9z M238,42.7c5.9,1.5,5.5,4.8,4,4c-0.7-1.3-2.7-2.9-4.2-3.8L238,42.7z"/>
	</g>
	<g class="st0">
		<path class="st1" d="M249.2,38.7c1,1.1,1.4,1.1,2.3,1.1c0.7,0,1.4-0.1,2-0.2c0-0.7,0.1-1.3,0.1-1.6c0-0.4-0.1-0.6-0.4-0.7
			c-0.2-0.1-0.7-0.2-1-0.3c0-0.1,0-0.4,0-0.4c0.4-0.1,0.7-0.2,1.1-0.2c0.6,0,1.8,0.4,1.8,0.7s-0.2,0.4-0.3,1c0,0.2-0.1,0.7-0.2,1.2
			c1.8-0.5,2.2-1,2.6-1s1,0,1,0.5c0,0.3-0.4,0.6-1.1,0.8c-0.4,0.1-1.4,0.5-2.7,0.8c-0.1,0.8-0.2,1.7-0.3,2.4
			c0.2,0.3,0.4,0.6,0.4,1.2c0,1.3-0.2,2.8-1.1,3.4c-0.2,0.7-0.3,1.4-0.3,1.8c0,1.2,1.4,1.3,3.3,1.3c1.6,0,3-0.3,3.7-0.7
			c0.5-0.2,0.8-0.6,0.8-1.3c0-1-0.6-4.2-0.6-5.7c0-1.9,0.6-2.7,1.7-2.7c1.8,0,3.5,1.7,3.5,3.6c0,0.6-0.2,0.9-1,0.9
			c-0.6,0.1-1.1,0-2,0.2l-0.2-0.4c0.5-0.2,1.2-0.6,1.4-0.7c0.3-0.2,0.3-0.3,0.3-0.6c0-1.2-1.3-2.3-2.2-2.3c-0.6,0-0.8,0.7-0.8,1.7
			c0,1.2,0.5,4.3,0.7,5.1c0.2,0.9,0.6,1.1,0.6,1.8c0,1.5-2.8,2.4-5.7,2.4c-2.8,0-4.4-0.5-4.4-2.3c0-0.6,0.1-1.1,0.2-1.6h-0.2
			c-1.2,0-2.3-1.2-2.3-2.3c0-1.5,1.1-3.1,2.8-3.1c0.2,0,0.4,0,0.5,0c0.1-0.6,0.1-1.2,0.2-1.9c-0.7,0.1-1.4,0.2-2.1,0.2
			c-1.3,0-1.8-0.5-2.5-1.9L249.2,38.7z M253.3,44.2c0-0.7-0.3-1-0.9-1c-1.1,0-1.7,1.2-1.7,2.1c0,0.8,0.6,1.4,1.2,1.4
			C253.1,46.8,253.3,45.8,253.3,44.2z"/>
	</g>
	<g class="st0">
		<path class="st2" d="M314.5,26.6c0-0.5,0.4-0.9,0.9-0.9h14c5.9,0,10.7,4.7,10.7,10.5c0,4.5-3,8.2-7.3,9.9l6.7,12.4
			c0.3,0.6,0,1.4-0.8,1.4h-5.1c-0.4,0-0.7-0.2-0.8-0.4l-6.5-13h-5.4v12.5c0,0.5-0.4,0.9-0.9,0.9h-4.5c-0.5,0-0.9-0.4-0.9-0.9V26.6z
			 M328.9,41.3c2.6,0,4.9-2.3,4.9-5c0-2.6-2.3-4.8-4.9-4.8h-8v9.8H328.9z"/>
		<path class="st2" d="M352.9,26.6c0-0.5,0.4-0.9,0.9-0.9h19.9c0.5,0,0.9,0.4,0.9,0.9v4c0,0.5-0.4,0.9-0.9,0.9h-14.5v8h12.1
			c0.5,0,0.9,0.4,0.9,0.9v4.1c0,0.5-0.4,0.9-0.9,0.9h-12.1v8.6h14.5c0.5,0,0.9,0.4,0.9,0.9v4c0,0.5-0.4,0.9-0.9,0.9h-19.9
			c-0.5,0-0.9-0.4-0.9-0.9V26.6z"/>
		<path class="st2" d="M402.6,25.2c4.9,0,8.5,1.6,11.9,4.6c0.4,0.4,0.4,1,0,1.4l-3,3.1c-0.3,0.4-0.8,0.4-1.2,0
			c-2.1-1.8-4.8-2.9-7.5-2.9c-6.3,0-10.9,5.2-10.9,11.4c0,6.1,4.7,11.3,11,11.3c2.9,0,5.4-1.1,7.5-2.8c0.4-0.3,0.9-0.3,1.2,0l3,3.1
			c0.4,0.3,0.3,1,0,1.3c-3.3,3.2-7.5,4.8-11.9,4.8c-9.8,0-17.7-7.8-17.7-17.6S392.8,25.2,402.6,25.2z"/>
		<path class="st2" d="M426.8,26.6c0-0.5,0.4-0.9,0.9-0.9h14c5.9,0,10.7,4.7,10.7,10.5c0,4.5-3,8.2-7.3,9.9l6.7,12.4
			c0.3,0.6,0,1.4-0.8,1.4h-5.1c-0.4,0-0.7-0.2-0.8-0.4l-6.5-13h-5.4v12.5c0,0.5-0.4,0.9-0.9,0.9h-4.5c-0.5,0-0.9-0.4-0.9-0.9V26.6z
			 M441.2,41.3c2.6,0,4.9-2.3,4.9-5c0-2.6-2.3-4.8-4.9-4.8h-8v9.8H441.2z"/>
		<path class="st2" d="M464.7,26.6c0-0.5,0.4-0.9,0.9-0.9h4.7c0.5,0,0.9,0.4,0.9,0.9v20c0,4.2,2.8,7.4,7.1,7.4
			c4.3,0,7.2-3.3,7.2-7.4V26.6c0-0.5,0.4-0.9,0.9-0.9h4.7c0.5,0,0.9,0.4,0.9,0.9V47c0,7.4-5.9,13.5-13.7,13.5
			c-7.7,0-13.6-6-13.6-13.5V26.6z"/>
		<path class="st2" d="M506.3,26.6c0-0.5,0.4-0.9,0.9-0.9h4.6c0.5,0,0.9,0.4,0.9,0.9v32.4c0,0.5-0.4,0.9-0.9,0.9h-4.6
			c-0.5,0-0.9-0.4-0.9-0.9V26.6z"/>
		<path class="st2" d="M532.1,31.6h-7.5c-0.5,0-0.9-0.4-0.9-0.9v-4c0-0.5,0.4-0.9,0.9-0.9H546c0.5,0,0.9,0.4,0.9,0.9v4
			c0,0.5-0.4,0.9-0.9,0.9h-7.5v27.5c0,0.5-0.4,0.9-0.9,0.9H533c-0.5,0-0.9-0.4-0.9-0.9V31.6z"/>
	</g>
	<g id="グループ_2781" transform="translate(280.816 36.325)">
		<path id="パス_539" class="st1" d="M16.7,1.1L1.1,16.7l-2.1-2.1L14.6-1.1L16.7,1.1z"/>
		<path id="パス_540" class="st1" d="M14.6,16.7L-1.1,1.1l2.1-2.1l15.6,15.6L14.6,16.7z"/>
	</g>
</g>
</svg>
