<?xml version="1.0" encoding="utf-8"?>
<!-- Generator: Adobe Illustrator 25.4.1, SVG Export Plug-In . SVG Version: 6.00 Build 0)  -->
<svg version="1.1" id="レイヤー_1" xmlns="http://www.w3.org/2000/svg" xmlns:xlink="http://www.w3.org/1999/xlink" x="0px"
	 y="0px" viewBox="0 0 77 24" style="enable-background:new 0 0 77 24;" xml:space="preserve">
<style type="text/css">
	.st0{fill:#16344F;}
	.st1{enable-background:new    ;}
	.st2{fill:#FFFFFF;}
</style>
<g id="グループ_3196" transform="translate(-26 -656)">
	<rect id="長方形_2588" x="26" y="656" class="st0" width="77" height="24"/>
	<g class="st1">
		<path class="st2" d="M36.6,663.1c0-0.2,0.1-0.3,0.3-0.3h6.4c0.2,0,0.3,0.1,0.3,0.3v0.9c0,0.2-0.1,0.3-0.3,0.3h-5.1v3.3h4.3
			c0.2,0,0.3,0.1,0.3,0.3v0.9c0,0.2-0.1,0.3-0.3,0.3h-4.3v3.4h5.1c0.2,0,0.3,0.1,0.3,0.3v0.9c0,0.2-0.1,0.3-0.3,0.3h-6.4
			c-0.2,0-0.3-0.1-0.3-0.3V663.1z"/>
		<path class="st2" d="M48.5,662.9c0-0.2,0.1-0.3,0.3-0.3h0.4l6.9,8h0v-7.6c0-0.2,0.1-0.3,0.3-0.3h1c0.2,0,0.3,0.1,0.3,0.3v10.8
			c0,0.2-0.1,0.3-0.3,0.3h-0.4l-6.9-8.3h0v7.8c0,0.2-0.1,0.3-0.3,0.3h-1c-0.2,0-0.3-0.1-0.3-0.3V662.9z"/>
		<path class="st2" d="M65,664.3h-2.6c-0.2,0-0.3-0.1-0.3-0.3v-0.9c0-0.2,0.1-0.3,0.3-0.3h6.9c0.2,0,0.3,0.1,0.3,0.3v0.9
			c0,0.2-0.1,0.3-0.3,0.3h-2.6v9.4c0,0.2-0.1,0.3-0.3,0.3h-1.1c-0.2,0-0.3-0.1-0.3-0.3V664.3z"/>
		<path class="st2" d="M73.9,663.1c0-0.2,0.1-0.3,0.3-0.3h4.4c1.9,0,3.5,1.5,3.5,3.4c0,1.5-1,2.7-2.4,3.2l2.2,4.1
			c0.1,0.2,0,0.5-0.3,0.5h-1.2c-0.1,0-0.2-0.1-0.3-0.1l-2.1-4.2h-2.4v4.1c0,0.2-0.1,0.3-0.3,0.3h-1c-0.2,0-0.3-0.1-0.3-0.3V663.1z
			 M78.4,668.2c1,0,2-0.9,2-2c0-1-0.9-1.9-2-1.9h-2.8v3.9H78.4z"/>
		<path class="st2" d="M89.3,668.6l-3.7-5.3c-0.1-0.2,0-0.5,0.3-0.5H87c0.1,0,0.2,0.1,0.3,0.1l2.9,4.1l2.9-4.1
			c0-0.1,0.1-0.1,0.3-0.1h1.2c0.3,0,0.4,0.3,0.3,0.5l-3.8,5.3v5.1c0,0.2-0.1,0.3-0.3,0.3h-1.1c-0.2,0-0.3-0.1-0.3-0.3V668.6z"/>
	</g>
</g>
</svg>
