<svg xmlns="http://www.w3.org/2000/svg" width="98.439" height="14.4" viewBox="0 0 98.439 14.4"><path d="M1.12-6.98A7.175,7.175,0,0,0,8.36.2a6.911,6.911,0,0,0,4.88-1.94.23.23,0,0,0,0-.34l-.34-.34a.251.251,0,0,0-.32.04A6.341,6.341,0,0,1,8.36-.7,6.244,6.244,0,0,1,2.12-6.98,6.265,6.265,0,0,1,8.36-13.3a6.248,6.248,0,0,1,4.22,1.64c.12.12.22.14.34.02l.32-.34a.254.254,0,0,0-.02-.36A6.852,6.852,0,0,0,8.36-14.2,7.221,7.221,0,0,0,1.12-6.98ZM18.72-5.1A5.018,5.018,0,0,0,23.94.2,5.039,5.039,0,0,0,29.2-5.1v-8.64a.265.265,0,0,0-.26-.26h-.4c-.2,0-.28.1-.28.26v8.56A4.152,4.152,0,0,1,23.94-.72,4.148,4.148,0,0,1,19.66-5.2v-8.54A.265.265,0,0,0,19.4-14h-.42a.265.265,0,0,0-.26.26ZM35.68-.26a.265.265,0,0,0,.26.26H43a.233.233,0,0,0,.26-.22V-.58c0-.14-.02-.26-.26-.26H36.62v-12.9a.262.262,0,0,0-.24-.26h-.44a.265.265,0,0,0-.26.26Zm13.42,0a.265.265,0,0,0,.26.26h.36c.2,0,.32-.12.32-.26V-13.14h3.84a.252.252,0,0,0,.26-.26v-.34a.252.252,0,0,0-.26-.26h-8.6a.252.252,0,0,0-.26.26v.3c0,.18.06.3.26.3H49.1ZM58.66-5.1A5.018,5.018,0,0,0,63.88.2a5.039,5.039,0,0,0,5.26-5.3v-8.64a.265.265,0,0,0-.26-.26h-.4c-.2,0-.28.1-.28.26v8.56A4.152,4.152,0,0,1,63.88-.72,4.148,4.148,0,0,1,59.6-5.2v-8.54a.265.265,0,0,0-.26-.26h-.42a.265.265,0,0,0-.26.26ZM75.62-.26a.265.265,0,0,0,.26.26h.36c.2,0,.32-.12.32-.26V-5.4h3.68c.26,0,.48,0,.74-.02l2.9,5.24a.283.283,0,0,0,.28.18h.62c.2,0,.24-.2.14-.36L82-5.54a4.377,4.377,0,0,0,3.3-4.18A4.339,4.339,0,0,0,80.84-14H75.88a.252.252,0,0,0-.26.26Zm.96-5.98v-6.84h4.2a3.452,3.452,0,0,1,3.56,3.36A3.5,3.5,0,0,1,80.8-6.24ZM91.02-.26a.265.265,0,0,0,.26.26H99.3a.265.265,0,0,0,.26-.26V-.58a.265.265,0,0,0-.26-.26H91.98V-6.76h6.34a.265.265,0,0,0,.26-.26v-.34a.265.265,0,0,0-.26-.26H91.98v-5.52H99.3a.265.265,0,0,0,.26-.26v-.34A.265.265,0,0,0,99.3-14H91.28a.265.265,0,0,0-.26.26Z" transform="translate(-1.12 14.2)" fill="#333"/></svg>