<svg xmlns="http://www.w3.org/2000/svg" width="82.64" height="14.4" viewBox="0 0 82.64 14.4"><path d="M2.12-.26A.265.265,0,0,0,2.38,0h.36c.2,0,.32-.12.32-.26V-4.98H6.7a4.541,4.541,0,0,0,4.5-4.54A4.52,4.52,0,0,0,6.68-14H2.38a.265.265,0,0,0-.26.26ZM3.06-5.9v-7.16H6.62a3.59,3.59,0,0,1,3.64,3.52A3.649,3.649,0,0,1,6.64-5.9ZM16.4-.26a.265.265,0,0,0,.26.26h8.02a.265.265,0,0,0,.26-.26V-.58a.265.265,0,0,0-.26-.26H17.36V-6.76H23.7a.265.265,0,0,0,.26-.26v-.34a.265.265,0,0,0-.26-.26H17.36v-5.52h7.32a.265.265,0,0,0,.26-.26v-.34a.265.265,0,0,0-.26-.26H16.66a.265.265,0,0,0-.26.26ZM29.7-6.98A7.141,7.141,0,0,0,36.9.2a7.145,7.145,0,0,0,7.22-7.18A7.191,7.191,0,0,0,36.9-14.2,7.187,7.187,0,0,0,29.7-6.98Zm.88,0a6.325,6.325,0,0,1,6.32-6.34,6.342,6.342,0,0,1,6.34,6.34A6.308,6.308,0,0,1,36.9-.68,6.291,6.291,0,0,1,30.58-6.98ZM49.76-.26a.265.265,0,0,0,.26.26h.36c.2,0,.32-.12.32-.26V-4.98h3.64a4.541,4.541,0,0,0,4.5-4.54A4.52,4.52,0,0,0,54.32-14h-4.3a.265.265,0,0,0-.26.26ZM50.7-5.9v-7.16h3.56A3.59,3.59,0,0,1,57.9-9.54,3.649,3.649,0,0,1,54.28-5.9ZM64.04-.26A.265.265,0,0,0,64.3,0h7.06a.233.233,0,0,0,.26-.22V-.58c0-.14-.02-.26-.26-.26H64.98v-12.9a.262.262,0,0,0-.24-.26H64.3a.265.265,0,0,0-.26.26Zm12.18,0a.265.265,0,0,0,.26.26H84.5a.265.265,0,0,0,.26-.26V-.58a.265.265,0,0,0-.26-.26H77.18V-6.76h6.34a.265.265,0,0,0,.26-.26v-.34a.265.265,0,0,0-.26-.26H77.18v-5.52H84.5a.265.265,0,0,0,.26-.26v-.34A.265.265,0,0,0,84.5-14H76.48a.265.265,0,0,0-.26.26Z" transform="translate(-2.12 14.2)" fill="#333"/></svg>