<svg xmlns="http://www.w3.org/2000/svg" width="97.18" height="14.4" viewBox="0 0 97.18 14.4"><path d="M2.12-.26A.265.265,0,0,0,2.38,0h.36c.2,0,.32-.12.32-.26V-4.98H6.7a4.541,4.541,0,0,0,4.5-4.54A4.52,4.52,0,0,0,6.68-14H2.38a.265.265,0,0,0-.26.26ZM3.06-5.9v-7.16H6.62a3.59,3.59,0,0,1,3.64,3.52A3.649,3.649,0,0,1,6.64-5.9ZM16.4-.26a.265.265,0,0,0,.26.26h.36c.2,0,.32-.12.32-.26V-5.4h3.68c.26,0,.48,0,.74-.02l2.9,5.24a.283.283,0,0,0,.28.18h.62c.2,0,.24-.2.14-.36L22.78-5.54a4.377,4.377,0,0,0,3.3-4.18A4.339,4.339,0,0,0,21.62-14H16.66a.252.252,0,0,0-.26.26Zm.96-5.98v-6.84h4.2a3.452,3.452,0,0,1,3.56,3.36,3.5,3.5,0,0,1-3.54,3.48ZM30.8-6.98A7.141,7.141,0,0,0,38,.2a7.145,7.145,0,0,0,7.22-7.18A7.191,7.191,0,0,0,38-14.2,7.187,7.187,0,0,0,30.8-6.98Zm.88,0A6.325,6.325,0,0,1,38-13.32a6.342,6.342,0,0,1,6.34,6.34A6.308,6.308,0,0,1,38-.68,6.291,6.291,0,0,1,31.68-6.98ZM48.24-1.3A3.85,3.85,0,0,0,51.3.2c2.38,0,3.88-1.62,3.88-4.42v-9.52a.265.265,0,0,0-.26-.26h-.4a.258.258,0,0,0-.28.26V-4.2c0,2.38-1.22,3.56-2.92,3.56a3.279,3.279,0,0,1-2.46-1.24.2.2,0,0,0-.34,0l-.26.24A.248.248,0,0,0,48.24-1.3ZM61.08-.26a.265.265,0,0,0,.26.26h8.02a.265.265,0,0,0,.26-.26V-.58a.265.265,0,0,0-.26-.26H62.04V-6.76h6.34a.265.265,0,0,0,.26-.26v-.34a.265.265,0,0,0-.26-.26H62.04v-5.52h7.32a.265.265,0,0,0,.26-.26v-.34a.265.265,0,0,0-.26-.26H61.34a.265.265,0,0,0-.26.26Zm13.3-6.72A7.175,7.175,0,0,0,81.62.2,6.911,6.911,0,0,0,86.5-1.74a.23.23,0,0,0,0-.34l-.34-.34a.251.251,0,0,0-.32.04A6.341,6.341,0,0,1,81.62-.7a6.244,6.244,0,0,1-6.24-6.28,6.265,6.265,0,0,1,6.24-6.32,6.248,6.248,0,0,1,4.22,1.64c.12.12.22.14.34.02l.32-.34a.254.254,0,0,0-.02-.36,6.852,6.852,0,0,0-4.86-1.86A7.221,7.221,0,0,0,74.38-6.98ZM94.26-.26a.265.265,0,0,0,.26.26h.36c.2,0,.32-.12.32-.26V-13.14h3.84a.252.252,0,0,0,.26-.26v-.34a.252.252,0,0,0-.26-.26h-8.6a.252.252,0,0,0-.26.26v.3c0,.18.06.3.26.3h3.82Z" transform="translate(-2.12 14.2)" fill="#333"/></svg>