<svg xmlns="http://www.w3.org/2000/svg" width="116" height="61.553" viewBox="0 0 116 61.553">
  <g id="グループ_3199" data-name="グループ 3199" transform="translate(-26 -37.352)">
    <text id="RECRUITMENT" transform="translate(85 93.905)" fill="#16344f" font-size="14" font-family="BrandonGrotesque-Medium, Brandon Grotesque" font-weight="500" letter-spacing="0.12em"><tspan x="-56.21" y="0">RECRUITMENT</tspan></text>
    <g id="グループ_3019" data-name="グループ 3019" transform="translate(7.417 -341.545)">
      <path id="パス_667" data-name="パス 667" d="M279.3,439.605v3.9h4.437l7.765-3.89h2.815L286.055,444l8.307,4.378H291.4l-7.744-3.84H279.3V448.5h-2v-8.891Z" transform="translate(-198.804 -46.648)"/>
      <path id="パス_668" data-name="パス 668" d="M124.175,439.938v1.025h-8.251v7.84H113.87v-7.84h-8.308v-1.025Z" transform="translate(-66.835 -46.904)"/>
      <g id="グループ_3020" data-name="グループ 3020" transform="translate(18.583 378.897)">
        <path id="パス_669" data-name="パス 669" d="M24.561,400.7a5.974,5.974,0,0,1-4.282-1.564h0c-1.564-1.521-2.069-3.928-1.422-6.778a17.8,17.8,0,0,1,4.73-8.193c5.014-5.149,11.69-6.812,14.882-3.706,1.564,1.521,2.069,3.928,1.423,6.778a17.8,17.8,0,0,1-4.729,8.194C31.86,398.824,27.835,400.7,24.561,400.7Zm9.611-21.312c-3.124,0-7.013,1.836-10.221,5.131a17.286,17.286,0,0,0-4.6,7.951c-.606,2.671-.151,4.908,1.281,6.3h0a5.5,5.5,0,0,0,3.942,1.435c3.124,0,7.013-1.835,10.223-5.13a17.284,17.284,0,0,0,4.6-7.952c.605-2.671.15-4.908-1.282-6.3A5.5,5.5,0,0,0,34.173,379.391Z" transform="translate(-18.583 -378.897)"/>
      </g>
      <path id="パス_670" data-name="パス 670" d="M65.184,426.267v9.612l7.933,2.932v-9.69Z" transform="translate(-35.808 -36.4)"/>
      <path id="パス_671" data-name="パス 671" d="M458.07,439.207h-2.017v7.327a.569.569,0,0,1-.569.569h-12.37a.569.569,0,0,1-.57-.569v-7.327h-2.013l-.005,7.36.08.424a2.8,2.8,0,0,0,2.282,1.106H455.71a2.9,2.9,0,0,0,2.108-.888,2.487,2.487,0,0,0,.174-.217l.078-.424Z" transform="translate(-324.222 -46.342)"/>
      <path id="パス_672" data-name="パス 672" d="M206.27,439.164h-11.6c-1.73,0-3.135.639-3.135,1.427v6.174c0,.789,1.4,1.427,3.135,1.427h11.6c1.731,0,3.136-.638,3.136-1.427v-6.174C209.405,439.8,208,439.164,206.27,439.164Zm1.093,7.476a.572.572,0,0,1-.571.57H194.137a.569.569,0,0,1-.57-.57v-5.849a.569.569,0,0,1,.57-.57h12.655a.572.572,0,0,1,.571.57Z" transform="translate(-132.899 -46.309)"/>
      <path id="パス_673" data-name="パス 673" d="M371.326,439.4v3.947H358.215a.571.571,0,0,1-.571-.57v-3.383h-2.029V442.9c0,.788,1.406,1.426,3.135,1.426h12.576v0c-.028,0-.011,2.572-.011,2.572a.7.7,0,0,1-.651.409H355.654v1h14.868c1.047-.1,2.509-.322,2.791-1.309v-7.6Z" transform="translate(-258.977 -46.485)"/>
      <g id="グループ_3023" data-name="グループ 3023" transform="translate(58.574 383.544)">
        <path id="パス_674" data-name="パス 674" d="M197.1,398.964v.533h4.773v.587H197.1v.483h3.861v2.649H198.2a9.108,9.108,0,0,0,3.657,1.45l-.58.607a13.508,13.508,0,0,1-4.183-1.807v1.86h-1.042v-1.841a13.638,13.638,0,0,1-4.145,1.711l-.652-.578c1.241-.236,3.44-.981,3.682-1.4h-2.687v-2.649h3.8v-.483h-4.685V399.5h4.685v-.533Zm0,2.133v.53h2.836v-.53Zm-3.778,0v.53h2.736v-.53Zm3.778,1.048v.54h2.836v-.54Zm-3.778,0v.54h2.736v-.54Z" transform="translate(-191.26 -398.964)" stroke="#fff" stroke-width="0.044"/>
        <g id="グループ_3021" data-name="グループ 3021" transform="translate(11.178 0.055)">
          <path id="パス_675" data-name="パス 675" d="M252.967,418.495c.033.5-.108.75.226.887h2.772a.312.312,0,0,0,.4-.3,2.687,2.687,0,0,1,.077-.312l1.059.181a1.034,1.034,0,0,1-.277.735,1.991,1.991,0,0,1-1.277.3h-3.263c-.258-.059-.647-.1-.726-.373v-1.481h1.01Z" transform="translate(-249.078 -413.742)" stroke="#fff" stroke-width="0.044"/>
          <path id="パス_676" data-name="パス 676" d="M275.553,418.152a8.87,8.87,0,0,1,1.6,1.367l-.883.385-1.551-1.439Z" transform="translate(-266.567 -413.763)" stroke="#fff" stroke-width="0.044"/>
          <path id="パス_677" data-name="パス 677" d="M241.851,418.475a4.108,4.108,0,0,1-1.336,1.53l-.988-.367a9.281,9.281,0,0,0,1.37-1.418Z" transform="translate(-239.527 -413.816)" stroke="#fff" stroke-width="0.044"/>
          <path id="パス_678" data-name="パス 678" d="M241.089,403.338v-.524h7.3v-.529h-7.184v-.468h7.184v-.525H241.5c0,.01,0-.256,0-.256a9.357,9.357,0,0,1-.986.325l-.574-.462a10.324,10.324,0,0,0,3.443-1.7h1.13c0,.149-.18.291-.316.4h3.97c.007.57-.908.947-1.2,1.167h2.508v2.567Zm4.474.094c.477.415.635.517.934.764l-.918.366-1.036-.859a2.593,2.593,0,0,1,1.02-.271m-2.229-3.253-.923.494-.193.1h3.205a2.832,2.832,0,0,0,1.148-.593Z" transform="translate(-239.842 -399.203)" stroke="#fff" stroke-width="0.044"/>
        </g>
        <path id="パス_679" data-name="パス 679" d="M296.894,400.453v.613h-4.675a2.681,2.681,0,0,1-.411.891h4.113v4.537h-1.105V406.2h-6.408v.291H287.3v-4.537h3.235a1.591,1.591,0,0,0,.507-.891h-4.716v-.613Zm-8.487,2.181V403.7h6.408v-1.062Zm0,1.731v1.2h6.408v-1.2Z" transform="translate(-264.309 -400.108)" stroke="#fff" stroke-width="0.044"/>
        <g id="グループ_3022" data-name="グループ 3022" transform="translate(33.075 0.158)">
          <path id="パス_680" data-name="パス 680" d="M335.9,400.953v.887h1.056v-1.3a2.819,2.819,0,0,0,.912-.594l-.912-.3a10.985,10.985,0,0,1-2.885,1.146l.431.575A8.342,8.342,0,0,0,335.9,400.953Z" transform="translate(-334.073 -399.648)" stroke="#fff" stroke-width="0.044"/>
          <path id="パス_681" data-name="パス 681" d="M358.407,400.762a3.135,3.135,0,0,0-.08.36c-.107.155-.405.155-.928.163H354.61c-.2-.083-.231-.222-.228-.432a24.332,24.332,0,0,0,4.813-.515l-.605-.528a15.879,15.879,0,0,1-4.207.432v-.525h-1.094v1.733c.079.274.466.314.724.374h3.366c.453-.019,1.411.013,1.745-.281.2-.2.343-.343.343-.6Z" transform="translate(-348.838 -399.701)" stroke="#fff" stroke-width="0.044"/>
          <path id="パス_682" data-name="パス 682" d="M344.134,410.312v2.825H342.3s.322.331,3,.488l-.317.529a12.689,12.689,0,0,1-3.619-.624,1.667,1.667,0,0,0,.527-.393h-3.665c-.019.185.285.308.4.445a11.119,11.119,0,0,1-3.445.6c-.118-.158-.4-.451-.414-.59a9.245,9.245,0,0,0,3.149-.457h-2.1v-2.825Zm-7.205.473v.293h6.111v-.293Zm0,.8v.292h6.111v-.292Zm0,.75v.293h6.111v-.293Z" transform="translate(-334.608 -407.842)" stroke="#fff" stroke-width="0.044"/>
        </g>
        <path id="パス_683" data-name="パス 683" d="M389.794,399.508v.645h4.238v.624h-4.238v.886h4.238v.569h-4.238v.934h3.733v2.7h-1.069v-.289h-5.124v.289h-1.069v-2.7h2.381v-2.389h-3.069c-.038,1.691.078,3.73-1.239,4.928l-.932-.552c1.3-1.466,1.118-3.217,1.035-5h4.2v-.645Zm-2.46,4.3v1.137h5.124V403.8Z" transform="translate(-338.905 -399.382)" stroke="#fff" stroke-width="0.044"/>
      </g>
    </g>
  </g>
</svg>
