<?xml version="1.0" encoding="utf-8"?>
<!-- Generator: Adobe Illustrator 25.4.1, SVG Export Plug-In . SVG Version: 6.00 Build 0)  -->
<svg version="1.1" id="レイヤー_1" xmlns="http://www.w3.org/2000/svg" xmlns:xlink="http://www.w3.org/1999/xlink" x="0px"
	 y="0px" viewBox="0 0 116.9 61.9" style="enable-background:new 0 0 116.9 61.9;" xml:space="preserve">
<style type="text/css">
	.st0{enable-background:new    ;}
	.st1{fill:#16344F;}
	.st2{stroke:#FFFFFF;stroke-width:4.400000e-02;}
</style>
<g id="グループ_3199" transform="translate(-26 -37.352)">
	<g class="st0">
		<path class="st1" d="M30.1,84.4c0-0.1,0.1-0.3,0.3-0.3h3.8c1.7,0,3.1,1.3,3.1,3c0,1.3-0.9,2.4-2.1,2.8l1.9,3.6
			c0.1,0.2,0,0.4-0.2,0.4h-1.1c-0.1,0-0.2-0.1-0.2-0.1l-1.9-3.7h-2.1v3.6c0,0.1-0.1,0.3-0.3,0.3h-0.9c-0.2,0-0.3-0.1-0.3-0.3V84.4z
			 M34.1,88.9c0.9,0,1.7-0.8,1.7-1.7c0-0.9-0.8-1.7-1.7-1.7h-2.5v3.4H34.1z"/>
		<path class="st1" d="M41.1,84.4c0-0.1,0.1-0.3,0.3-0.3H47c0.2,0,0.3,0.1,0.3,0.3v0.8c0,0.1-0.1,0.3-0.3,0.3h-4.4v2.9h3.7
			c0.1,0,0.3,0.1,0.3,0.3v0.8c0,0.2-0.1,0.3-0.3,0.3h-3.7v3H47c0.2,0,0.3,0.1,0.3,0.3v0.8c0,0.1-0.1,0.3-0.3,0.3h-5.6
			c-0.2,0-0.3-0.1-0.3-0.3V84.4z"/>
		<path class="st1" d="M55.4,84c1.4,0,2.4,0.5,3.4,1.3c0.1,0.1,0.1,0.3,0,0.4l-0.6,0.6c-0.1,0.1-0.2,0.1-0.4,0
			c-0.7-0.6-1.6-0.9-2.4-0.9c-2,0-3.5,1.7-3.5,3.6s1.5,3.6,3.5,3.6c1,0,1.7-0.4,2.4-0.9c0.1-0.1,0.3-0.1,0.3,0l0.6,0.6
			c0.1,0.1,0.1,0.3,0,0.4c-1,0.9-2.2,1.4-3.4,1.4c-2.8,0-5.1-2.2-5.1-5S52.6,84,55.4,84z"/>
		<path class="st1" d="M62.4,84.4c0-0.1,0.1-0.3,0.3-0.3h3.8c1.7,0,3.1,1.3,3.1,3c0,1.3-0.9,2.4-2.1,2.8l1.9,3.6
			c0.1,0.2,0,0.4-0.2,0.4h-1.1c-0.1,0-0.2-0.1-0.2-0.1L66,90.1h-2.1v3.6c0,0.1-0.1,0.3-0.3,0.3h-0.9c-0.2,0-0.3-0.1-0.3-0.3V84.4z
			 M66.4,88.9c0.9,0,1.7-0.8,1.7-1.7c0-0.9-0.8-1.7-1.7-1.7h-2.5v3.4H66.4z"/>
		<path class="st1" d="M73.3,84.4c0-0.1,0.1-0.3,0.3-0.3h0.9c0.2,0,0.3,0.1,0.3,0.3v5.8c0,1.4,0.9,2.5,2.3,2.5
			c1.4,0,2.4-1.1,2.4-2.5v-5.8c0-0.1,0.1-0.3,0.3-0.3h0.9c0.1,0,0.3,0.1,0.3,0.3v5.9c0,2.1-1.6,3.8-3.8,3.8c-2.2,0-3.8-1.7-3.8-3.8
			V84.4z"/>
		<path class="st1" d="M85.2,84.4c0-0.1,0.1-0.3,0.3-0.3h0.9c0.1,0,0.3,0.1,0.3,0.3v9.3c0,0.1-0.1,0.3-0.3,0.3h-0.9
			c-0.1,0-0.3-0.1-0.3-0.3V84.4z"/>
		<path class="st1" d="M92.4,85.4h-2.3c-0.2,0-0.3-0.1-0.3-0.3v-0.8c0-0.1,0.1-0.3,0.3-0.3h6c0.2,0,0.3,0.1,0.3,0.3v0.8
			c0,0.1-0.1,0.3-0.3,0.3h-2.3v8.2c0,0.1-0.1,0.3-0.3,0.3h-0.9c-0.1,0-0.3-0.1-0.3-0.3V85.4z"/>
		<path class="st1" d="M100.5,84.2c0-0.1,0.1-0.2,0.3-0.2h0.2c0.1,0,0.2,0.1,0.2,0.2l2.9,7.2h0.1l2.9-7.2c0-0.1,0.1-0.2,0.2-0.2h0.2
			c0.1,0,0.2,0.1,0.3,0.2l1.7,9.4c0,0.2-0.1,0.3-0.3,0.3h-0.9c-0.1,0-0.2-0.1-0.3-0.2l-1-6.3c0,0,0,0,0,0l-2.5,6.4
			c0,0.1-0.1,0.2-0.2,0.2H104c-0.1,0-0.2-0.1-0.2-0.2l-2.5-6.4c0,0,0,0-0.1,0l-1,6.3c0,0.1-0.1,0.2-0.3,0.2H99
			c-0.2,0-0.3-0.1-0.3-0.3L100.5,84.2z"/>
		<path class="st1" d="M113.3,84.4c0-0.1,0.1-0.3,0.3-0.3h5.6c0.2,0,0.3,0.1,0.3,0.3v0.8c0,0.1-0.1,0.3-0.3,0.3h-4.4v2.9h3.7
			c0.1,0,0.3,0.1,0.3,0.3v0.8c0,0.2-0.1,0.3-0.3,0.3h-3.7v3h4.4c0.2,0,0.3,0.1,0.3,0.3v0.8c0,0.1-0.1,0.3-0.3,0.3h-5.6
			c-0.2,0-0.3-0.1-0.3-0.3V84.4z"/>
		<path class="st1" d="M123.2,84.2c0-0.1,0.1-0.3,0.3-0.3h0.3l6.1,7h0v-6.6c0-0.1,0.1-0.3,0.3-0.3h0.9c0.1,0,0.3,0.1,0.3,0.3v9.4
			c0,0.1-0.1,0.3-0.3,0.3h-0.4l-6.1-7.2h0v6.8c0,0.1-0.1,0.3-0.3,0.3h-0.9c-0.1,0-0.3-0.1-0.3-0.3V84.2z"/>
		<path class="st1" d="M137.1,85.4h-2.3c-0.2,0-0.3-0.1-0.3-0.3v-0.8c0-0.1,0.1-0.3,0.3-0.3h6c0.2,0,0.3,0.1,0.3,0.3v0.8
			c0,0.1-0.1,0.3-0.3,0.3h-2.3v8.2c0,0.1-0.1,0.3-0.3,0.3h-0.9c-0.1,0-0.3-0.1-0.3-0.3V85.4z"/>
	</g>
	<g id="グループ_3019" transform="translate(7.417 -341.545)">
		<path id="パス_667" d="M80.5,393v3.9h4.4l7.8-3.9h2.8l-8.3,4.4l8.3,4.4h-3l-7.7-3.8h-4.4v4h-2V393L80.5,393z"/>
		<path id="パス_668" d="M57.3,393v1h-8.3v7.8H47v-7.8h-8.3v-1H57.3z"/>
		<g id="グループ_3020" transform="translate(18.583 378.897)">
			<path id="パス_669" d="M6,21.8c-1.6,0.1-3.1-0.5-4.3-1.6l0,0c-1.6-1.5-2.1-3.9-1.4-6.8C1.1,10.4,2.7,7.5,5,5.3
				c5-5.1,11.7-6.8,14.9-3.7c1.6,1.5,2.1,3.9,1.4,6.8c-0.8,3.1-2.4,5.9-4.7,8.2C13.3,19.9,9.3,21.8,6,21.8z M15.6,0.5
				c-3.1,0-7,1.8-10.2,5.1c-2.2,2.2-3.8,4.9-4.6,8c-0.6,2.7-0.2,4.9,1.3,6.3l0,0c1.1,1,2.5,1.5,3.9,1.4c3.1,0,7-1.8,10.2-5.1
				c2.2-2.2,3.8-4.9,4.6-8c0.6-2.7,0.2-4.9-1.3-6.3C18.5,0.9,17,0.4,15.6,0.5L15.6,0.5z"/>
		</g>
		<path id="パス_670" d="M29.4,389.9v9.6l7.9,2.9v-9.7L29.4,389.9z"/>
		<path id="パス_671" d="M133.8,392.9h-2v7.3c0,0.3-0.3,0.6-0.6,0.6l0,0h-12.4c-0.3,0-0.6-0.3-0.6-0.6c0,0,0,0,0,0v-7.3h-2l0,7.4
			l0.1,0.4c0.5,0.7,1.4,1.1,2.3,1.1h12.8c0.8,0,1.6-0.3,2.1-0.9c0.1-0.1,0.1-0.1,0.2-0.2l0.1-0.4V392.9z"/>
		<path id="パス_672" d="M73.4,392.9H61.8c-1.7,0-3.1,0.6-3.1,1.4v6.2c0,0.8,1.4,1.4,3.1,1.4h11.6c1.7,0,3.1-0.6,3.1-1.4v-6.2
			C76.5,393.5,75.1,392.9,73.4,392.9z M74.5,400.3c0,0.3-0.3,0.6-0.6,0.6H61.2c-0.3,0-0.6-0.3-0.6-0.6c0,0,0,0,0,0v-5.8
			c0-0.3,0.3-0.6,0.6-0.6c0,0,0,0,0,0h12.7c0.3,0,0.6,0.3,0.6,0.6L74.5,400.3z"/>
		<path id="パス_673" d="M112.3,392.9v3.9H99.2c-0.3,0-0.6-0.3-0.6-0.6v-3.4h-2v3.5c0,0.8,1.4,1.4,3.1,1.4h12.6l0,0
			c0,0,0,2.6,0,2.6c-0.1,0.3-0.4,0.4-0.7,0.4h-15v1h14.9c1-0.1,2.5-0.3,2.8-1.3v-7.6L112.3,392.9z"/>
		<g id="グループ_3023" transform="translate(58.574 383.544)">
			<path id="パス_674" class="st2" d="M5.8,0v0.5h4.8v0.6H5.8v0.5h3.9v2.6H6.9C8,5,9.3,5.5,10.6,5.7L10,6.3C8.5,6,7.1,5.3,5.8,4.5
				v1.9h-1V4.5C3.5,5.3,2.1,5.9,0.6,6.2L0,5.7c1.2-0.2,3.4-1,3.7-1.4H1V1.6h3.8V1.1H0.1V0.5h4.7V0L5.8,0z M5.8,2.1v0.5h2.8V2.1H5.8z
				 M2.1,2.1v0.5h2.7V2.1H2.1z M5.8,3.2v0.5h2.8V3.2H5.8z M2.1,3.2v0.5h2.7V3.2H2.1z"/>
			<g id="グループ_3021" transform="translate(11.178 0.055)">
				<path id="パス_675" class="st2" d="M3.9,4.8c0,0.5-0.1,0.8,0.2,0.9h2.8c0.2,0,0.3,0,0.4-0.2c0,0,0-0.1,0-0.1
					c0-0.1,0-0.2,0.1-0.3l1.1,0.2c0,0.3-0.1,0.5-0.3,0.7C7.8,6.2,7.3,6.3,6.9,6.2H3.6C3.3,6.2,3,6.1,2.9,5.9V4.4h1L3.9,4.8z"/>
				<path id="パス_676" class="st2" d="M9,4.4c0.6,0.4,1.1,0.8,1.6,1.4L9.7,6.1L8.2,4.7L9,4.4z"/>
				<path id="パス_677" class="st2" d="M2.3,4.7C2,5.3,1.6,5.8,1,6.2L0,5.8c0.5-0.4,1-0.9,1.4-1.4L2.3,4.7z"/>
				<path id="パス_678" class="st2" d="M1.2,4.1V3.6h7.3V3.1H1.4V2.6h7.2V2.1H1.7c0,0,0-0.3,0-0.3C1.3,2,1,2.1,0.7,2.2L0.1,1.7
					C1.3,1.4,2.5,0.8,3.5,0h1.1c0,0.1-0.2,0.3-0.3,0.4h4c0,0.6-0.9,0.9-1.2,1.2h2.5v2.6L1.2,4.1z M5.7,4.2C6.2,4.6,6.4,4.7,6.7,5
					L5.7,5.4l-1-0.9C5,4.3,5.4,4.3,5.7,4.2 M3.5,1L2.6,1.5L2.4,1.6h3.2C6,1.5,6.4,1.3,6.7,1L3.5,1z"/>
			</g>
			<path id="パス_679" class="st2" d="M32.6,0.3V1h-4.7c-0.1,0.3-0.2,0.6-0.4,0.9h4.1v4.5h-1.1V6.1h-6.4v0.3H23V1.8h3.2
				c0.3-0.2,0.4-0.5,0.5-0.9H22V0.3L32.6,0.3z M24.1,2.5v1.1h6.4V2.5L24.1,2.5z M24.1,4.3v1.2h6.4V4.3H24.1z"/>
			<g id="グループ_3022" transform="translate(33.075 0.158)">
				<path id="パス_680" class="st2" d="M1.8,1.3v0.9h1.1V0.9c0.3-0.1,0.6-0.3,0.9-0.6L2.9,0C2,0.5,1,0.9,0,1.1l0.4,0.6
					C0.9,1.6,1.4,1.5,1.8,1.3z"/>
				<path id="パス_681" class="st2" d="M9.6,1.1c0,0.1-0.1,0.2-0.1,0.4C9.4,1.6,9.1,1.6,8.6,1.6H5.8C5.6,1.5,5.5,1.4,5.5,1.2
					c1.6,0,3.2-0.2,4.8-0.5L9.8,0.1C8.4,0.4,7,0.6,5.5,0.5V0H4.5v1.7C4.5,2,4.9,2.1,5.2,2.1h3.4c0.5,0,1.4,0,1.7-0.3
					c0.2-0.2,0.3-0.3,0.3-0.6L9.6,1.1z"/>
				<path id="パス_682" class="st2" d="M9.5,2.5v2.8H7.7c0,0,0.3,0.3,3,0.5l-0.3,0.5c-1.2,0-2.4-0.2-3.6-0.6
					C7,5.6,7.1,5.5,7.3,5.3H3.6c0,0.2,0.3,0.3,0.4,0.4C2.9,6.1,1.7,6.3,0.6,6.3C0.5,6.2,0.2,5.9,0.2,5.8c1.1,0,2.1-0.1,3.1-0.5H1.2
					V2.5L9.5,2.5z M2.3,2.9v0.3h6.1V2.9H2.3z M2.3,3.7V4h6.1V3.7H2.3z M2.3,4.5v0.3h6.1V4.5H2.3z"/>
			</g>
			<path id="パス_683" class="st2" d="M50.9,0.1v0.6h4.2v0.6h-4.2v0.9h4.2v0.6h-4.2v0.9h3.7v2.7h-1.1V6.2h-5.1v0.3h-1.1V3.8h2.4
				V1.4h-3.1c0,1.7,0.1,3.7-1.2,4.9l-0.9-0.6c1.3-1.5,1.1-3.2,1-5h4.2V0.1L50.9,0.1z M48.4,4.4v1.1h5.1V4.4L48.4,4.4z"/>
		</g>
	</g>
</g>
</svg>
