<svg xmlns="http://www.w3.org/2000/svg" width="513.54" height="125.95" viewBox="0 0 513.54 125.95"><g transform="translate(-234.79 -1675.95)"><path d="M-65.345-20.3v-6.965c1.26-.315,1.61-.455,1.61-.77,0-.385-.98-.6-4.165-.945a43.641,43.641,0,0,1,.21,4.375V-20.3h-4.2a12.57,12.57,0,0,1-2.835-.28l.21,1.26a18.147,18.147,0,0,1,2.38-.175h4.445v9.45h-6.125a9.669,9.669,0,0,1-2.765-.35l.245,1.4a10.148,10.148,0,0,1,2.38-.245H-45.08c.245,0,.455-.1.455-.245a.653.653,0,0,0-.175-.35,31.121,31.121,0,0,0-3.15-2.835c-.945,1.085-1.26,1.435-2.17,2.625h-4.795v-9.45h7.98c.175,0,.315-.105.315-.21a.488.488,0,0,0-.14-.315c-1.295-1.155-1.715-1.5-3.08-2.625-.84.98-1.085,1.26-1.89,2.345h-3.185v-6.755c1.19-.385,1.54-.56,1.54-.875,0-.35-.245-.42-4.06-.98a30.982,30.982,0,0,1,.175,3.85v4.76Zm0,.805h8.085v9.45h-8.085ZM-76.9,2A35.986,35.986,0,0,0-71.085-.84,28.534,28.534,0,0,0-65.1-5.285h.98c.63,0,1.015-.175,1.015-.455s-.175-.385-1.96-1.12c-.385-.14-.98-.385-1.75-.735A25.1,25.1,0,0,1-70.07-3.78a36.452,36.452,0,0,1-7.14,5.32ZM-58.24-6.93a37.623,37.623,0,0,1,7.77,7c1.19,1.33,1.365,1.505,1.715,1.505.385,0,.6-.665.6-1.89a2.66,2.66,0,0,0-1.12-2.52,34.131,34.131,0,0,0-6.685-3.64c-.42-.175-1.155-.49-1.96-.875Zm31.01-6.125-1.855,4.9a27.743,27.743,0,0,1-1.26,2.975A13.263,13.263,0,0,1-31.01-9.8a19.2,19.2,0,0,1,.455-4.34,29.77,29.77,0,0,1,1.89-5.565c.7-1.4.735-1.54.735-2.1a4.724,4.724,0,0,0-1.295-2.765c-.945-1.225-1.575-1.68-2.345-1.715A6.224,6.224,0,0,1-30.59-23a16.383,16.383,0,0,1-.49,3.255,53.553,53.553,0,0,0-1.225,6.615,31.538,31.538,0,0,0-.28,3.745A20.739,20.739,0,0,0-31.36-1.925c.385.945.91,1.435,1.5,1.435a.86.86,0,0,0,.84-.6,5.111,5.111,0,0,0,.1-1.505,13.764,13.764,0,0,1,.6-3.71c.98-4.06,1.505-6.265,1.575-6.58Zm4.515-8.785a6.168,6.168,0,0,0,4.76,1.96c.315,0,.7-.035,1.435-.07-.56.42-1.75,1.4-3.325,2.73l.35.35a35.744,35.744,0,0,1,4.515-2.485,20.064,20.064,0,0,1,4.97-1.225c.735-.14.98-.35.98-.805s-.35-.875-1.085-1.3a2.663,2.663,0,0,0-1.225-.49c-.245,0-.315.035-.77.28a18.585,18.585,0,0,1-7.035,1.575A5.478,5.478,0,0,1-22.4-22.26Zm-.21,10.57a9.488,9.488,0,0,0-.42,2.765,5.814,5.814,0,0,0,1.89,4.55c1.575,1.4,4.69,2.135,9.065,2.135A17.6,17.6,0,0,0-8.015-2.2c.49-.175.77-.455.77-.875a2.693,2.693,0,0,0-2.2-2.065,1.727,1.727,0,0,0-.525.105,5.452,5.452,0,0,1-1.855.56,16.518,16.518,0,0,1-2.975.245c-5.425,0-7.63-1.575-7.63-5.425a13.612,13.612,0,0,1,.1-1.47ZM22.05-16.66H36.47c.21,0,.385-.14.385-.245a.559.559,0,0,0-.1-.28c-1.505-1.33-1.995-1.75-3.57-2.975-.98,1.12-1.295,1.47-2.275,2.695H22.05v-5.04H32.83c.21,0,.35-.07.35-.21a.465.465,0,0,0-.1-.245c-1.365-1.3-1.82-1.68-3.22-2.87-.945,1.05-1.225,1.4-2.17,2.52H22.05V-27.4c.98-.35,1.33-.525,1.33-.805,0-.315-.49-.455-2.17-.63-.35-.035-.91-.105-1.61-.21.105,1.33.14,1.925.14,3.255v8.33H13.895V-24.92c.98-.315,1.4-.525,1.4-.805,0-.35-.525-.455-3.85-.805a24.246,24.246,0,0,1,.14,3.08v5.985H8.47a12.309,12.309,0,0,1-3.43-.35l.21,1.365a12.575,12.575,0,0,1,2.9-.21H19.74v8.925c0,.315-.14.385-.7.42-1.89-.07-1.96-.07-5.425-.28v.525A9.235,9.235,0,0,1,16.87-6.4c.56.315.735.595.945,1.785,3.29-.665,4.2-1.4,4.27-3.325-.035-2.765-.035-2.765-.035-3.4v-5.32ZM5-4.06c3.955-2.275,5.845-3.955,9.59-8.54,1.225-.07,1.61-.175,1.61-.49s-.49-.56-3.745-1.855a11.579,11.579,0,0,1-2.03,4.025A31.419,31.419,0,0,1,4.69-4.41ZM25.13-14.175a34.458,34.458,0,0,1,4.725,3.255A23.521,23.521,0,0,1,33-7.875c.35.42.595.595.84.595.385,0,.665-.595.665-1.435a3.036,3.036,0,0,0-1.645-2.835,30.9,30.9,0,0,0-7.56-3.08ZM5.74,3.045c7.84-.8,12.53-2.31,17.22-5.53a28.126,28.126,0,0,0,5.81-5.18,6.494,6.494,0,0,0,.77.035c.56,0,.875-.14.875-.385,0-.28-.875-.84-3.22-2.1a22.433,22.433,0,0,1-7.56,7.49A38.171,38.171,0,0,1,5.6,2.415Zm41.23-25.3c1.68,2.38,2.94,3.045,5.67,3.045.49,0,.945-.035,1.82-.07-.035,1.33-.07,1.61-.07,2.03-.14,1.785-.14,1.785-.14,2.1a3.433,3.433,0,0,0-2.135-.665c-2.2,0-3.745,1.925-3.745,4.76a5.321,5.321,0,0,0,1.89,4.305,3.674,3.674,0,0,0,1.89.735h.28a7.1,7.1,0,0,0-.455,2.345c0,2.87,2.66,4.2,8.365,4.2a29.369,29.369,0,0,0,8.05-1.05c1.68-.525,2.835-1.645,2.835-2.765a2.712,2.712,0,0,0-.63-1.645,5.332,5.332,0,0,1-.735-1.96A53.479,53.479,0,0,1,68.5-17.675c0-1.47.455-2.205,1.33-2.205a3.284,3.284,0,0,1,2.205,1.12,5.005,5.005,0,0,1,1.225,2.38c0,.315-.84.84-3.465,2.17l.14.35a21.762,21.762,0,0,1,2.555-.49,2.237,2.237,0,0,1,1.05.21,1.522,1.522,0,0,0,.805.245,1.5,1.5,0,0,0,1.435-1.645c0-2.45-2.8-5.075-5.46-5.075a2.417,2.417,0,0,0-2.065.98c-.455.56-.6,1.33-.6,2.87,0,.525,0,.98.035,1.47.315,6.685.35,8.225.35,10.535,0,1.19-.14,1.505-.84,1.855a20.274,20.274,0,0,1-7.98,1.4c-4.165,0-6.055-.665-6.055-2.17,0-.875.455-1.89,1.505-3.465a6.9,6.9,0,0,0,1.365-4.34,5.55,5.55,0,0,0-.455-2.38c.035-1.4.35-4.655.49-5.67a27.477,27.477,0,0,0,6.09-1.855c1.12-.525,1.54-.875,1.54-1.3,0-.63-1.015-1.3-1.995-1.3a1.267,1.267,0,0,0-.945.35,4.7,4.7,0,0,1-1.47,1.085,12.637,12.637,0,0,1-3.01,1.225,16.413,16.413,0,0,1,.875-3.57c.385-.7.385-.7.385-.98,0-.385-.385-.8-1.015-1.05a9.183,9.183,0,0,0-3.115-.7,1.774,1.774,0,0,0-1.505.56,3.32,3.32,0,0,1,2.17.98c.42.525.525,1.015.525,2.765,0,1.015,0,1.47-.07,2.345a18.332,18.332,0,0,1-2.9.315c-1.75,0-2.485-.35-4.235-1.96Zm7.1,10.85a7.253,7.253,0,0,1-.42,2.66,1.307,1.307,0,0,1-1.225.77c-1.575,0-2.8-1.68-2.8-3.85,0-1.925.91-3.22,2.24-3.22,1.435,0,2.2,1.12,2.2,3.22Z" transform="translate(312 1705)" fill="#333"/><path d="M8.19-1.71A1.709,1.709,0,0,0,9.9,0h8.28a1.77,1.77,0,0,0,1.71-1.71V-22.86H31.14A20.243,20.243,0,0,0,51.21-43.11,20.129,20.129,0,0,0,31.05-63H9.9a1.709,1.709,0,0,0-1.71,1.71Zm11.7-32.13V-51.93H30.33A8.979,8.979,0,0,1,39.6-43.2a9.276,9.276,0,0,1-9.27,9.36ZM72.27-1.71A1.709,1.709,0,0,0,73.98,0h8.28a1.77,1.77,0,0,0,1.71-1.71V-24.66h9.99L105.93-.81a1.543,1.543,0,0,0,1.44.81h9.45a1.7,1.7,0,0,0,1.53-2.61L106.02-25.47c7.83-3.15,13.32-9.9,13.32-18.18A19.494,19.494,0,0,0,99.72-63H73.98a1.709,1.709,0,0,0-1.71,1.71ZM84.06-34.29V-52.2H98.73a8.954,8.954,0,0,1,8.91,8.73,9.167,9.167,0,0,1-8.91,9.18Zm54.45,2.88A32.113,32.113,0,0,0,170.82.9a32.189,32.189,0,0,0,32.4-32.31,32.342,32.342,0,0,0-32.4-32.49A32.266,32.266,0,0,0,138.51-31.41Zm11.7,0A20.82,20.82,0,0,1,170.82-52.2a20.9,20.9,0,0,1,20.7,20.79,20.742,20.742,0,0,1-20.7,20.61A20.665,20.665,0,0,1,150.21-31.41ZM214.74-5.67A17.253,17.253,0,0,0,228.42.9c10.53,0,18.9-7.2,18.9-19.71V-61.29A1.709,1.709,0,0,0,245.61-63h-8.46a1.709,1.709,0,0,0-1.71,1.71v42.48c0,6.21-3.69,9.09-7.2,9.09a7.828,7.828,0,0,1-5.94-2.88,1.739,1.739,0,0,0-2.7-.09l-4.68,4.77A1.9,1.9,0,0,0,214.74-5.67Zm58.05,3.96A1.709,1.709,0,0,0,274.5,0h36.63a1.709,1.709,0,0,0,1.71-1.71V-9.09a1.709,1.709,0,0,0-1.71-1.71H284.49V-26.55h22.23a1.709,1.709,0,0,0,1.71-1.71v-7.47a1.77,1.77,0,0,0-1.71-1.71H284.49V-52.2h26.64a1.709,1.709,0,0,0,1.71-1.71v-7.38A1.709,1.709,0,0,0,311.13-63H274.5a1.709,1.709,0,0,0-1.71,1.71Zm58.86-29.7A32.266,32.266,0,0,0,364.14.9a30.889,30.889,0,0,0,21.87-8.73,1.714,1.714,0,0,0,.09-2.43l-5.58-5.76a1.658,1.658,0,0,0-2.25,0,21.6,21.6,0,0,1-13.77,5.13c-11.52,0-20.16-9.54-20.16-20.79,0-11.34,8.55-20.97,20.07-20.97a21.292,21.292,0,0,1,13.86,5.31,1.441,1.441,0,0,0,2.25,0l5.49-5.67a1.673,1.673,0,0,0-.09-2.52,30.46,30.46,0,0,0-21.78-8.37A32.418,32.418,0,0,0,331.65-31.41Zm85.41,29.7A1.77,1.77,0,0,0,418.77,0h8.37a1.77,1.77,0,0,0,1.71-1.71V-52.2h13.77a1.709,1.709,0,0,0,1.71-1.71v-7.38A1.709,1.709,0,0,0,442.62-63H403.29a1.709,1.709,0,0,0-1.71,1.71v7.38a1.709,1.709,0,0,0,1.71,1.71h13.77Z" transform="translate(304 1801)" fill="#16344f"/><g transform="translate(413.482 1677.465)"><path d="M39.7,1.5H0v-3H39.7Z" transform="translate(0 28.07) rotate(-45)" fill="#333"/><path d="M39.7,1.5H0v-3H39.7Z" transform="translate(0.001 0) rotate(45)" fill="#333"/></g></g></svg>