<svg xmlns="http://www.w3.org/2000/svg" width="178.07" height="63.2" viewBox="0 0 178.07 63.2">
  <g id="グループ_3303" data-name="グループ 3303" transform="translate(-551 -2588.6)">
    <path id="パス_907" data-name="パス 907" d="M-89.56-2.72A12.868,12.868,0,0,0-80.76.4c5.64,0,9.2-3.8,9.2-7.92,0-5.16-4.48-7.48-8.36-9.04-3.24-1.32-4.72-2.6-4.72-4.48,0-1.28,1.24-2.8,3.52-2.8,2.2,0,5.24,2,5.56,2.2a1.053,1.053,0,0,0,1.4-.48l1.52-2.28a.991.991,0,0,0-.24-1.32,14.083,14.083,0,0,0-8-2.68c-6.36,0-9,4.12-9,7.68,0,4.72,3.76,7.12,7.52,8.64,3.36,1.36,5.08,2.76,5.08,4.8,0,1.72-1.56,3.08-3.64,3.08-2.6,0-5.84-2.36-6.04-2.48a.927.927,0,0,0-1.36.28l-1.44,2.48C-90.12-3.28-89.92-3.08-89.56-2.72ZM-61.64-.76a.759.759,0,0,0,.76.76h14.64a.759.759,0,0,0,.76-.76V-4.04a.759.759,0,0,0-.76-.76h-10.2V-27.24A.787.787,0,0,0-57.2-28h-3.68a.759.759,0,0,0-.76.76Zm22.72-13.2A14.272,14.272,0,0,0-24.56.4a14.306,14.306,0,0,0,14.4-14.36A14.374,14.374,0,0,0-24.56-28.4,14.34,14.34,0,0,0-38.92-13.96Zm5.2,0a9.253,9.253,0,0,1,9.16-9.24,9.288,9.288,0,0,1,9.2,9.24,9.219,9.219,0,0,1-9.2,9.16A9.184,9.184,0,0,1-33.72-13.96Zm31.6,0A14.264,14.264,0,0,0,12.24.36a20.211,20.211,0,0,0,9.92-2.6.769.769,0,0,0,.32-.64V-13.12a.752.752,0,0,0-.72-.76H14.08a.735.735,0,0,0-.76.76v3.16a.727.727,0,0,0,.76.72h3.2v3.4a12.513,12.513,0,0,1-4.76,1,9.1,9.1,0,0,1-9-9.16,9.171,9.171,0,0,1,8.96-9.28,9.068,9.068,0,0,1,6.04,2.32.683.683,0,0,0,1.04,0l2.48-2.6A.774.774,0,0,0,22-24.68a15.121,15.121,0,0,0-9.76-3.72A14.366,14.366,0,0,0-2.12-13.96ZM30.2,0h3.48a1.206,1.206,0,0,0,1.16-.8L36.8-5.12H48.76L50.72-.8a1.15,1.15,0,0,0,1.16.8h3.48a.706.706,0,0,0,.68-1.04L43.72-27.96a.68.68,0,0,0-.68-.44h-.4a.719.719,0,0,0-.68.44L29.52-1.04A.706.706,0,0,0,30.2,0Zm8.56-9.56,3.92-8.8h.12l4,8.8ZM64.48-.76a.787.787,0,0,0,.76.76h3.64a.759.759,0,0,0,.76-.76v-17.2h.04L86.4.4h.96a.752.752,0,0,0,.76-.72V-27.24a.787.787,0,0,0-.76-.76H83.68a.759.759,0,0,0-.76.76v16.52h-.04L66.24-28.4h-1a.752.752,0,0,0-.76.72Z" transform="translate(640.95 2617)" fill="#16344f"/>
    <path id="パス_908" data-name="パス 908" d="M-40.176-10.608a2.731,2.731,0,0,0,.224.976c.192.416.832,1.1,1.3,1.1.384,0,.448-.288.944-.416.88-.224,3.1-.768,4.24-.944.176-.016.272.016.192.224-1.488,3.28-5.264,7.04-9.024,8.992l.24.4a19.469,19.469,0,0,0,6.784-4.72A14.216,14.216,0,0,1-31.744-2c.848.96,1.072,1.472,1.5,1.472A.533.533,0,0,0-29.7-1.12c0-1.328-2.624-3.1-5.2-4.272A26.8,26.8,0,0,0-32.24-9.024c.208-.32.688-.448.688-.768,0-.352-1.04-1.184-1.52-1.184-.224,0-.416.3-.752.4a37.325,37.325,0,0,1-4.912.784c-.528,0-.832-.576-1.1-.96ZM-20.8-2.88c-.064-1.776-.208-4.688-.256-5.664a1.651,1.651,0,0,0,.64.208c.288,0,.736-.16,1.264-.208.88-.1,3.568-.3,4.592-.3.144,0,.192.048.192.176a52.2,52.2,0,0,1-.672,5.424C-16.528-3.184-19.088-2.992-20.8-2.88Zm-.416-6.272a3.869,3.869,0,0,0-1.728-.832l-.224.272A2.491,2.491,0,0,1-22.3-8.368a26.611,26.611,0,0,1,.448,4.432c0,.688-.048,1.68-.048,2,0,.656.352,1.088.656,1.088.336,0,.48-.192.48-.592,0-.24,0-.432-.016-.64,1.92-.112,4.08-.224,5.328-.224.736,0,1.584.1,1.936.1a.414.414,0,0,0,.464-.464c0-.3-.4-.528-.976-.576.32-1.744.672-3.9.816-4.608.1-.432.592-.544.592-.912,0-.384-1.1-1.28-1.5-1.28-.3,0-.368.352-.928.4C-15.68-9.568-19.632-9.216-21.216-9.152Zm14.992,2.48a2.839,2.839,0,0,0,.144.9c.224.544.976,1.328,1.424,1.328.464,0,.64-.24,1.552-.336,1.2-.144,5.7-.384,6.7-.384.976,0,1.536.032,2.1.032.544,0,.7-.176.7-.464,0-.432-.72-.7-1.328-.7-.416,0-.864.1-1.936.176-.736.032-6.336.4-7.76.4-.672,0-.928-.5-1.28-1.04Zm22.352-4.976a5.869,5.869,0,0,1,1.024.224c.24.1.288.208.288.512a19.8,19.8,0,0,1-.4,2.608c-1.76.224-3.52.416-4.048.416-.432,0-.672-.544-.9-.976l-.32.08a2.386,2.386,0,0,0,.1,1.008c.128.368.768,1.152,1.184,1.152.32,0,.416-.224.912-.336.448-.112,1.856-.368,2.88-.544A13.907,13.907,0,0,1,11.1.48L11.36.8a12.693,12.693,0,0,0,6.576-8.464A27.978,27.978,0,0,1,21.136-8c.128,0,.192.064.192.176,0,1.024-.64,4.928-1.664,6.192-.224.272-.384.288-.816.16-.32-.112-1.136-.48-1.808-.784l-.192.3c.912.672,1.424.944,1.584,1.536.1.336.224.48.5.48a2.079,2.079,0,0,0,1.68-1.216,18.794,18.794,0,0,0,1.728-6.16c.064-.448.464-.4.464-.752,0-.336-.944-1.088-1.28-1.088-.256,0-.384.352-.816.4-.528.064-1.5.192-2.592.32.16-.656.288-1.376.368-1.792.112-.608.48-.608.48-.96,0-.4-1.072-.976-1.68-.992a5.1,5.1,0,0,0-1.152.192Zm5.088.464a6.471,6.471,0,0,1,1.456,1.408c.32.384.5.752.768.752a.371.371,0,0,0,.384-.416,1.31,1.31,0,0,0-.56-.96,5.8,5.8,0,0,0-1.84-1.056Zm1.408-1.04a6.97,6.97,0,0,1,1.472,1.28c.352.384.5.768.768.768a.363.363,0,0,0,.384-.416,1.34,1.34,0,0,0-.592-.992,6.557,6.557,0,0,0-1.824-.928Zm8.192,1.632A10.773,10.773,0,0,1,33.6-8.176c.416.5.624.672.88.672a.546.546,0,0,0,.56-.592c0-1.232-2.208-2.32-4.032-2.832ZM32.4-1.776c-.512,0-1.024-.512-1.5-1.04l-.256.16a3.424,3.424,0,0,0,.336,1.04,3.124,3.124,0,0,0,1.9,1.232c.352,0,.528-.4.848-.592a24.025,24.025,0,0,0,8.4-8.208l-.368-.24C39.488-6.016,33.632-1.776,32.4-1.776Z" transform="translate(640.304 2651)" fill="#333"/>
  </g>
</svg>
