<svg xmlns="http://www.w3.org/2000/svg" width="319.651" height="35.28" viewBox="0 0 319.651 35.28">
  <g id="グループ_2827" data-name="グループ 2827" transform="translate(-182.086 -25.21)">
    <path id="パス_911" data-name="パス 911" d="M-35.473-11.02V-14.8c.684-.171.874-.247.874-.418,0-.209-.532-.323-2.261-.513a23.691,23.691,0,0,1,.114,2.375v2.337h-2.28a6.824,6.824,0,0,1-1.539-.152l.114.684a9.852,9.852,0,0,1,1.292-.095h2.413v5.13h-3.325a5.249,5.249,0,0,1-1.5-.19l.133.76a5.509,5.509,0,0,1,1.292-.133h15.675c.133,0,.247-.057.247-.133a.354.354,0,0,0-.095-.19,16.9,16.9,0,0,0-1.71-1.539c-.513.589-.684.779-1.178,1.425h-2.6v-5.13h4.332c.1,0,.171-.057.171-.114a.265.265,0,0,0-.076-.171c-.7-.627-.931-.817-1.672-1.425-.456.532-.589.684-1.026,1.273h-1.729v-3.667c.646-.209.836-.3.836-.475,0-.19-.133-.228-2.2-.532a16.819,16.819,0,0,1,.095,2.09v2.584Zm0,.437h4.389v5.13h-4.389Zm-6.27,11.666A19.535,19.535,0,0,0-38.589-.456,15.49,15.49,0,0,0-35.34-2.869h.532c.342,0,.551-.1.551-.247s-.1-.209-1.064-.608c-.209-.076-.532-.209-.95-.4a13.627,13.627,0,0,1-1.767,2.071A19.788,19.788,0,0,1-41.914.836Zm10.127-4.845A20.424,20.424,0,0,1-27.4.038c.646.722.741.817.931.817.209,0,.323-.361.323-1.026a1.444,1.444,0,0,0-.608-1.368,18.528,18.528,0,0,0-3.629-1.976c-.228-.095-.627-.266-1.064-.475Zm16.834-3.325-1.007,2.66a15.061,15.061,0,0,1-.684,1.615,7.2,7.2,0,0,1-.361-2.508,10.421,10.421,0,0,1,.247-2.356A16.161,16.161,0,0,1-15.561-10.7c.38-.76.4-.836.4-1.14a2.565,2.565,0,0,0-.7-1.5c-.513-.665-.855-.912-1.273-.931a3.379,3.379,0,0,1,.532,1.786,8.894,8.894,0,0,1-.266,1.767,29.071,29.071,0,0,0-.665,3.591,17.121,17.121,0,0,0-.152,2.033,11.258,11.258,0,0,0,.665,4.047c.209.513.494.779.817.779a.467.467,0,0,0,.456-.323,2.775,2.775,0,0,0,.057-.817,7.472,7.472,0,0,1,.323-2.014c.532-2.2.817-3.4.855-3.572Zm2.451-4.769a3.348,3.348,0,0,0,2.584,1.064c.171,0,.38-.019.779-.038-.3.228-.95.76-1.805,1.482l.19.19a19.4,19.4,0,0,1,2.451-1.349,10.892,10.892,0,0,1,2.7-.665c.4-.076.532-.19.532-.437s-.19-.475-.589-.7a1.446,1.446,0,0,0-.665-.266c-.133,0-.171.019-.418.152a10.089,10.089,0,0,1-3.819.855,2.974,2.974,0,0,1-1.767-.513Zm-.114,5.738a5.151,5.151,0,0,0-.228,1.5,3.156,3.156,0,0,0,1.026,2.47c.855.76,2.546,1.159,4.921,1.159A9.554,9.554,0,0,0-4.351-1.2c.266-.1.418-.247.418-.475a1.462,1.462,0,0,0-1.2-1.121.938.938,0,0,0-.285.057,2.96,2.96,0,0,1-1.007.3A8.967,8.967,0,0,1-8.037-2.3c-2.945,0-4.142-.855-4.142-2.945a7.39,7.39,0,0,1,.057-.8ZM11.97-9.044H19.8c.114,0,.209-.076.209-.133a.3.3,0,0,0-.057-.152c-.817-.722-1.083-.95-1.938-1.615-.532.608-.7.8-1.235,1.463H11.97v-2.736h5.852c.114,0,.19-.038.19-.114a.253.253,0,0,0-.057-.133c-.741-.7-.988-.912-1.748-1.558-.513.57-.665.76-1.178,1.368H11.97v-2.223c.532-.19.722-.285.722-.437,0-.171-.266-.247-1.178-.342-.19-.019-.494-.057-.874-.114.057.722.076,1.045.076,1.767v4.522H7.543v-4.047c.532-.171.76-.285.76-.437,0-.19-.285-.247-2.09-.437a13.162,13.162,0,0,1,.076,1.672v3.249H4.6a6.682,6.682,0,0,1-1.862-.19l.114.741a6.827,6.827,0,0,1,1.577-.114h6.289V-4.2c0,.171-.076.209-.38.228-1.026-.038-1.064-.038-2.945-.152v.285a5.013,5.013,0,0,1,1.767.361c.3.171.4.323.513.969,1.786-.361,2.28-.76,2.318-1.8-.019-1.5-.019-1.5-.019-1.843V-9.044ZM2.717-2.2A16.09,16.09,0,0,0,7.923-6.84c.665-.038.874-.1.874-.266s-.266-.3-2.033-1.007a6.286,6.286,0,0,1-1.1,2.185A17.056,17.056,0,0,1,2.546-2.394ZM13.642-7.7a18.706,18.706,0,0,1,2.565,1.767,12.768,12.768,0,0,1,1.71,1.653c.19.228.323.323.456.323.209,0,.361-.323.361-.779a1.648,1.648,0,0,0-.893-1.539,16.772,16.772,0,0,0-4.1-1.672ZM3.116,1.653c4.256-.437,6.8-1.254,9.348-3a15.268,15.268,0,0,0,3.154-2.812,3.525,3.525,0,0,0,.418.019c.3,0,.475-.076.475-.209,0-.152-.475-.456-1.748-1.14a12.178,12.178,0,0,1-4.1,4.066A20.722,20.722,0,0,1,3.04,1.311ZM25.5-12.084a3.153,3.153,0,0,0,3.078,1.653c.266,0,.513-.019.988-.038-.019.722-.038.874-.038,1.1-.076.969-.076.969-.076,1.14a1.864,1.864,0,0,0-1.159-.361c-1.2,0-2.033,1.045-2.033,2.584a2.889,2.889,0,0,0,1.026,2.337,1.994,1.994,0,0,0,1.026.4h.152a3.857,3.857,0,0,0-.247,1.273c0,1.558,1.444,2.28,4.541,2.28a15.943,15.943,0,0,0,4.37-.57c.912-.285,1.539-.893,1.539-1.5a1.472,1.472,0,0,0-.342-.893,2.894,2.894,0,0,1-.4-1.064A29.031,29.031,0,0,1,37.183-9.6c0-.8.247-1.2.722-1.2a1.783,1.783,0,0,1,1.2.608,2.717,2.717,0,0,1,.665,1.292c0,.171-.456.456-1.881,1.178l.076.19a11.814,11.814,0,0,1,1.387-.266,1.215,1.215,0,0,1,.57.114.826.826,0,0,0,.437.133.814.814,0,0,0,.779-.893,3.154,3.154,0,0,0-2.964-2.755,1.312,1.312,0,0,0-1.121.532A2.366,2.366,0,0,0,36.727-9.1c0,.285,0,.532.019.8.171,3.629.19,4.465.19,5.719,0,.646-.076.817-.456,1.007a11.006,11.006,0,0,1-4.332.76c-2.261,0-3.287-.361-3.287-1.178a3.683,3.683,0,0,1,.817-1.881,3.743,3.743,0,0,0,.741-2.356,3.013,3.013,0,0,0-.247-1.292c.019-.76.19-2.527.266-3.078a14.916,14.916,0,0,0,3.306-1.007c.608-.285.836-.475.836-.7,0-.342-.551-.7-1.083-.7a.688.688,0,0,0-.513.19,2.552,2.552,0,0,1-.8.589,6.86,6.86,0,0,1-1.634.665,8.91,8.91,0,0,1,.475-1.938c.209-.38.209-.38.209-.532,0-.209-.209-.437-.551-.57a4.985,4.985,0,0,0-1.691-.38.963.963,0,0,0-.817.3,1.8,1.8,0,0,1,1.178.532c.228.285.285.551.285,1.5,0,.551,0,.8-.038,1.273a9.952,9.952,0,0,1-1.577.171,2.817,2.817,0,0,1-2.3-1.064Zm3.857,5.89a3.938,3.938,0,0,1-.228,1.444.71.71,0,0,1-.665.418c-.855,0-1.52-.912-1.52-2.09,0-1.045.494-1.748,1.216-1.748.779,0,1.2.608,1.2,1.748Z" transform="translate(224 51)" fill="#333"/>
    <path id="パス_910" data-name="パス 910" d="M15.141-.049a.88.88,0,0,0,.833.539h.49A.88.88,0,0,0,17.3-.049l15.19-32.977a.865.865,0,0,0-.833-1.274h-5a.9.9,0,0,0-.833.539l-9.408,21.07h-.343L6.664-33.761a.9.9,0,0,0-.833-.539h-5A.865.865,0,0,0,0-33.026ZM42.826-.931A.964.964,0,0,0,43.757,0h4.557a.964.964,0,0,0,.931-.931V-33.369a.964.964,0,0,0-.931-.931H43.757a.964.964,0,0,0-.931.931Zm19.453-2.4A15.763,15.763,0,0,0,73.059.49c6.909,0,11.27-4.655,11.27-9.7,0-6.321-5.488-9.163-10.241-11.074-3.969-1.617-5.782-3.185-5.782-5.488,0-1.568,1.519-3.43,4.312-3.43,2.7,0,6.419,2.45,6.811,2.695a1.289,1.289,0,0,0,1.715-.588l1.862-2.793a1.213,1.213,0,0,0-.294-1.617,17.251,17.251,0,0,0-9.8-3.283c-7.791,0-11.025,5.047-11.025,9.408,0,5.782,4.606,8.722,9.212,10.584,4.116,1.666,6.223,3.381,6.223,5.88,0,2.107-1.911,3.773-4.459,3.773-3.185,0-7.154-2.891-7.4-3.038A1.135,1.135,0,0,0,63.8-7.84L62.034-4.8C61.593-4.018,61.838-3.773,62.279-3.332Zm34.2,2.4A.964.964,0,0,0,97.412,0h4.557a.964.964,0,0,0,.931-.931V-33.369a.964.964,0,0,0-.931-.931H97.412a.964.964,0,0,0-.931.931ZM115.248-17.1A17.484,17.484,0,0,0,132.839.49,17.525,17.525,0,0,0,150.479-17.1a17.608,17.608,0,0,0-17.64-17.689A17.567,17.567,0,0,0,115.248-17.1Zm6.37,0A11.335,11.335,0,0,1,132.839-28.42,11.377,11.377,0,0,1,144.109-17.1,11.293,11.293,0,0,1,132.839-5.88,11.251,11.251,0,0,1,121.618-17.1Zm41.16,16.17a.964.964,0,0,0,.931.931h4.459a.93.93,0,0,0,.931-.931V-22h.049L189.63.49h1.176a.921.921,0,0,0,.931-.882V-33.369a.964.964,0,0,0-.931-.931H186.3a.93.93,0,0,0-.931.931v20.237h-.049L164.934-34.79h-1.225a.921.921,0,0,0-.931.882Z" transform="translate(310 60)" fill="#16344f"/>
    <g id="グループ_2781" data-name="グループ 2781" transform="translate(280.816 36.325)">
      <path id="パス_539" data-name="パス 539" d="M0,0H22.077" transform="translate(0 15.611) rotate(-45)" fill="none" stroke="#333" stroke-width="3"/>
      <path id="パス_540" data-name="パス 540" d="M0,0H22.077" transform="translate(0 0) rotate(45)" fill="none" stroke="#333" stroke-width="3"/>
    </g>
  </g>
</svg>
