<?xml version="1.0" encoding="utf-8"?>
<!-- Generator: Adobe Illustrator 25.4.1, SVG Export Plug-In . SVG Version: 6.00 Build 0)  -->
<svg version="1.1" id="レイヤー_1" xmlns="http://www.w3.org/2000/svg" xmlns:xlink="http://www.w3.org/1999/xlink" x="0px"
	 y="0px" viewBox="0 0 326 70" style="enable-background:new 0 0 326 70;" xml:space="preserve">
<style type="text/css">
	.st0{enable-background:new    ;}
	.st1{fill:#333333;}
	.st2{fill:#16344F;}
</style>
<g id="グループ_2827" transform="translate(-181 -9)">
	<g class="st0">
		<path class="st1" d="M182.1,51.8c1.6-1,2.7-1.8,3.9-2.9c0.6-0.6,1.1-1.1,1.8-2.1c0.4,0.2,0.7,0.3,0.9,0.4c1,0.4,1.1,0.5,1.1,0.6
			c0,0.2-0.2,0.2-0.6,0.2h-0.4c0,0-0.1,0-0.1,0c-1.2,1.1-1.9,1.6-3.2,2.4c-1.1,0.6-1.7,1-3.2,1.5L182.1,51.8z M192.9,40v-2.6
			c0-0.9,0-1.4-0.1-2.1c2.1,0.3,2.2,0.3,2.2,0.5c0,0.2-0.2,0.3-0.8,0.5V40h1.7c0.4-0.6,0.6-0.7,1-1.3c0.7,0.6,1,0.8,1.7,1.4
			c0.1,0.1,0.1,0.1,0.1,0.2c0,0.1-0.1,0.1-0.2,0.1h-4.3v5.1h2.6c0.5-0.6,0.7-0.8,1.2-1.4c0.8,0.6,1,0.9,1.7,1.5
			c0.1,0.1,0.1,0.1,0.1,0.2c0,0.1-0.1,0.1-0.2,0.1h-15.7c-0.5,0-0.9,0-1.3,0.1l-0.1-0.8c0.6,0.2,0.9,0.2,1.5,0.2h3.3v-5.1h-2.4
			c-0.4,0-0.9,0-1.3,0.1l-0.1-0.7c0.6,0.1,0.9,0.2,1.5,0.2h2.3v-2.3c0-0.9,0-1.6-0.1-2.4c1.7,0.2,2.3,0.3,2.3,0.5
			c0,0.2-0.2,0.2-0.9,0.4V40H192.9z M188.5,45.5h4.4v-5.1h-4.4V45.5z M192.6,47c0.4,0.2,0.8,0.4,1.1,0.5c1.7,0.8,2.8,1.3,3.6,2
			c0.5,0.3,0.6,0.7,0.6,1.4c0,0.7-0.1,1-0.3,1c-0.2,0-0.3-0.1-0.9-0.8c-1.6-1.8-2.1-2.2-4.2-3.8L192.6,47z"/>
		<path class="st1" d="M208.7,44c0,0.2-0.3,1.4-0.9,3.6c-0.3,1.1-0.3,1.4-0.3,2c0,0.6,0,0.7-0.1,0.8c-0.1,0.2-0.2,0.3-0.5,0.3
			c-0.3,0-0.6-0.3-0.8-0.8c-0.4-1-0.7-2.5-0.7-4c0-0.6,0.1-1.3,0.2-2c0.1-1.1,0.1-1.1,0.7-3.6c0.2-0.9,0.3-1.4,0.3-1.8
			c0-0.6-0.2-1.1-0.5-1.8c0.4,0,0.8,0.3,1.3,0.9c0.5,0.6,0.7,1.1,0.7,1.5c0,0.3,0,0.4-0.4,1.1c-0.4,0.8-0.8,2.1-1,3
			c-0.2,0.7-0.2,1.5-0.2,2.4c0,1,0.1,1.7,0.4,2.5c0.3-0.7,0.5-1,0.7-1.6l1-2.7L208.7,44z M211.1,45c0,0.4-0.1,0.6-0.1,0.8
			c0,2.1,1.2,2.9,4.1,2.9c0.6,0,1.1,0,1.6-0.1c0.4-0.1,0.4-0.1,1-0.3c0.1,0,0.2-0.1,0.3-0.1c0.5,0,1.2,0.7,1.2,1.1
			c0,0.2-0.2,0.4-0.4,0.5c-0.4,0.1-1.3,0.2-2.4,0.2c-2.4,0-4.1-0.4-4.9-1.2c-0.7-0.6-1-1.4-1-2.5c0-0.5,0.1-0.9,0.2-1.5L211.1,45z
			 M211,38.9c0.7,0.4,1.1,0.5,1.8,0.5c1.2,0,3-0.4,3.8-0.9c0.2-0.1,0.3-0.2,0.4-0.2c0.2,0,0.4,0.1,0.7,0.3c0.4,0.2,0.6,0.5,0.6,0.7
			s-0.1,0.4-0.5,0.4c-1.3,0.2-2,0.4-2.7,0.7c-0.6,0.2-1.7,0.9-2.5,1.3l-0.2-0.2c0.9-0.7,1.5-1.3,1.8-1.5c-0.4,0-0.6,0-0.8,0
			c-1.1,0-1.8-0.3-2.6-1.1L211,38.9z"/>
		<path class="st1" d="M224.5,48.6c1.4-1.3,2.2-2.2,3.1-3.5c0.7-1,0.9-1.5,1.1-2.2c1.8,0.7,2,0.8,2,1c0,0.2-0.2,0.2-0.9,0.3
			c-2,2.5-3.1,3.4-5.2,4.6L224.5,48.6z M234,43.9v0.9c0,0.3,0,0.3,0,1.8c0,1-0.5,1.4-2.3,1.8c-0.1-0.6-0.2-0.8-0.5-1
			c-0.3-0.2-0.8-0.3-1.8-0.4v-0.3c1.9,0.1,1.9,0.1,2.9,0.2c0.3,0,0.4-0.1,0.4-0.2V42h-6.3c-0.8,0-1.1,0-1.6,0.1l-0.1-0.7
			c0.6,0.2,1,0.2,1.9,0.2h1.7v-3.2c0-0.9,0-1.1-0.1-1.7c1.8,0.2,2.1,0.2,2.1,0.4c0,0.2-0.2,0.3-0.8,0.4v4h3.2V37c0-0.7,0-1-0.1-1.8
			c0.4,0.1,0.7,0.1,0.9,0.1c0.9,0.1,1.2,0.2,1.2,0.3c0,0.2-0.2,0.2-0.7,0.4v2.2h3.1c0.5-0.6,0.7-0.8,1.2-1.4c0.8,0.6,1,0.9,1.7,1.6
			c0,0.1,0.1,0.1,0.1,0.1c0,0.1-0.1,0.1-0.2,0.1H234v2.7h4.8c0.5-0.7,0.7-0.9,1.2-1.5c0.9,0.7,1.1,0.9,1.9,1.6
			c0,0.1,0.1,0.1,0.1,0.2c0,0.1-0.1,0.1-0.2,0.1H234V43.9z M225,52.3c3.1-0.6,5.5-1.4,7.6-2.7c1.8-1.1,3-2.4,4.1-4.1
			c1.3,0.7,1.7,1,1.7,1.1c0,0.1-0.2,0.2-0.5,0.2c-0.1,0-0.2,0-0.4,0c-1.2,1.3-1.9,2-3.2,2.8c-2.5,1.7-5.1,2.6-9.3,3L225,52.3z
			 M235.7,43.1c1.7,0.5,3.2,1.1,4.1,1.7c0.6,0.4,0.9,0.9,0.9,1.5c0,0.5-0.2,0.8-0.4,0.8c-0.1,0-0.3-0.1-0.5-0.3
			c-0.7-0.7-0.9-1-1.7-1.7c-0.9-0.7-1.6-1.2-2.6-1.8L235.7,43.1z"/>
		<path class="st1" d="M246.9,38.7c1,0.9,1.3,1.1,2.3,1.1c0.4,0,1.1-0.1,1.6-0.2c0-0.5,0-0.7,0-1.3c0-0.9-0.1-1.2-0.3-1.5
			c-0.2-0.3-0.6-0.4-1.2-0.5c0.3-0.2,0.4-0.3,0.8-0.3c0.5,0,1.1,0.2,1.7,0.4c0.3,0.1,0.6,0.4,0.6,0.6c0,0.2,0,0.2-0.2,0.5
			c-0.2,0.3-0.4,1.2-0.5,1.9c0.6-0.2,1.1-0.4,1.6-0.7c0.4-0.2,0.4-0.2,0.8-0.6c0.2-0.1,0.3-0.2,0.5-0.2c0.5,0,1.1,0.4,1.1,0.7
			c0,0.2-0.2,0.4-0.8,0.7c-1,0.4-1.9,0.7-3.3,1c-0.1,0.6-0.2,2.3-0.3,3.1c0.2,0.5,0.2,0.8,0.2,1.3c0,0.9-0.2,1.6-0.7,2.4
			c-0.6,0.9-0.8,1.4-0.8,1.9c0,0.8,1,1.2,3.3,1.2c1.7,0,3.4-0.3,4.3-0.8c0.4-0.2,0.5-0.4,0.5-1c0-1.3,0-2.1-0.2-5.7
			c0-0.3,0-0.5,0-0.8c0-0.8,0.1-1.3,0.3-1.6c0.3-0.4,0.6-0.5,1.1-0.5c1.4,0,3,1.4,3,2.8c0,0.5-0.3,0.9-0.8,0.9c-0.2,0-0.3,0-0.4-0.1
			c-0.2-0.1-0.3-0.1-0.6-0.1c-0.2,0-0.9,0.2-1.4,0.3l-0.1-0.2c1.4-0.7,1.9-1,1.9-1.2c0-0.3-0.3-1-0.7-1.3c-0.4-0.4-0.8-0.6-1.2-0.6
			c-0.5,0-0.7,0.4-0.7,1.2c0,1.6,0.3,4.2,0.7,5.9c0.1,0.6,0.2,0.8,0.4,1.1c0.3,0.4,0.3,0.6,0.3,0.9c0,0.6-0.6,1.2-1.5,1.5
			c-1.1,0.3-2.8,0.6-4.4,0.6c-3.1,0-4.5-0.7-4.5-2.3c0-0.4,0.1-0.7,0.2-1.3c-0.1,0-0.1,0-0.2,0c-0.3,0-0.7-0.2-1-0.4
			c-0.6-0.5-1-1.3-1-2.3c0-1.5,0.8-2.6,2-2.6c0.5,0,0.8,0.1,1.2,0.4c0-0.2,0-0.2,0.1-1.1c0-0.2,0-0.4,0-1.1c-0.5,0-0.7,0-1,0
			c-1.5,0-2.2-0.4-3.1-1.7L246.9,38.7z M250.5,44.6c0-1.1-0.4-1.7-1.2-1.7c-0.7,0-1.2,0.7-1.2,1.7c0,1.2,0.7,2.1,1.5,2.1
			c0.3,0,0.6-0.2,0.7-0.4c0.1-0.3,0.2-0.9,0.2-1.4V44.6z"/>
	</g>
	<g class="st0">
		<path class="st2" d="M310,27c-0.3-0.6,0.1-1.3,0.8-1.3h5c0.4,0,0.7,0.3,0.8,0.5l9.4,21.1h0.3l9.4-21.1c0.1-0.2,0.4-0.5,0.8-0.5h5
			c0.7,0,1.1,0.6,0.8,1.3l-15.2,33c-0.1,0.3-0.4,0.5-0.8,0.5H326c-0.4,0-0.7-0.2-0.8-0.5L310,27z"/>
		<path class="st2" d="M352.8,26.6c0-0.5,0.4-0.9,0.9-0.9h4.6c0.5,0,0.9,0.4,0.9,0.9v32.4c0,0.5-0.4,0.9-0.9,0.9h-4.6
			c-0.5,0-0.9-0.4-0.9-0.9V26.6z"/>
		<path class="st2" d="M371.9,55.2l1.8-3c0.4-0.7,1.2-0.7,1.7-0.3c0.2,0.1,4.2,3,7.4,3c2.5,0,4.5-1.7,4.5-3.8c0-2.5-2.1-4.2-6.2-5.9
			c-4.6-1.9-9.2-4.8-9.2-10.6c0-4.4,3.2-9.4,11-9.4c5,0,8.8,2.5,9.8,3.3c0.5,0.3,0.6,1.1,0.3,1.6l-1.9,2.8c-0.4,0.6-1.1,1-1.7,0.6
			c-0.4-0.2-4.1-2.7-6.8-2.7c-2.8,0-4.3,1.9-4.3,3.4c0,2.3,1.8,3.9,5.8,5.5c4.8,1.9,10.2,4.8,10.2,11.1c0,5-4.4,9.7-11.3,9.7
			c-6.2,0-9.8-2.9-10.8-3.8C371.7,56.2,371.5,56,371.9,55.2z"/>
		<path class="st2" d="M406.3,26.6c0-0.5,0.4-0.9,0.9-0.9h4.6c0.5,0,0.9,0.4,0.9,0.9v32.4c0,0.5-0.4,0.9-0.9,0.9h-4.6
			c-0.5,0-0.9-0.4-0.9-0.9V26.6z"/>
		<path class="st2" d="M442.6,25.2c9.8,0,17.6,7.9,17.6,17.7s-7.8,17.6-17.6,17.6c-9.8,0-17.6-7.8-17.6-17.6S432.8,25.2,442.6,25.2z
			 M442.6,54.1c6.2,0,11.3-5,11.3-11.2s-5.1-11.3-11.3-11.3c-6.2,0-11.2,5.1-11.2,11.3S436.5,54.1,442.6,54.1z"/>
		<path class="st2" d="M472.5,26.1c0-0.5,0.4-0.9,0.9-0.9h1.2l20.4,21.7h0V26.6c0-0.5,0.4-0.9,0.9-0.9h4.5c0.5,0,0.9,0.4,0.9,0.9v33
			c0,0.5-0.4,0.9-0.9,0.9h-1.2L478.9,38h0v21.1c0,0.5-0.4,0.9-0.9,0.9h-4.5c-0.5,0-0.9-0.4-0.9-0.9V26.1z"/>
	</g>
	<g id="グループ_2781" transform="translate(280.816 36.325)">
		<path id="パス_539" class="st1" d="M16.7,1.1L1.1,16.7l-2.1-2.1L14.6-1.1L16.7,1.1z"/>
		<path id="パス_540" class="st1" d="M14.6,16.7L-1.1,1.1l2.1-2.1l15.6,15.6L14.6,16.7z"/>
	</g>
</g>
</svg>
