<svg xmlns="http://www.w3.org/2000/svg" width="162" height="76.224" viewBox="0 0 162 76.224">
  <g id="グループ_3302" data-name="グループ 3302" transform="translate(-560 -2575)">
    <text id="VISION" transform="translate(641 2617)" fill="#16344f" font-size="40" font-family="BrandonGrotesque-Bold, Brandon Grotesque" font-weight="700" letter-spacing="0.12em"><tspan x="-80.08" y="0">VISION</tspan></text>
    <path id="パス_906" data-name="パス 906" d="M-24.624-9.3a1.791,1.791,0,0,1,.384.528c.128.272.08.4-.192.608a22.4,22.4,0,0,1-5.344,2.608c.064-1.536.144-3.216.224-3.9.048-.5.352-.56.352-.864,0-.384-.928-.992-1.584-1.024a4.162,4.162,0,0,0-1.136.208l.016.288c.832.112,1.184.208,1.248.656.08.752-.112,6.016-.1,7.44.016,2.256.432,2.736,3.3,2.736A20.56,20.56,0,0,0-22.7-.4c.3-.112.528-.256.528-.576,0-.368-.48-.544-1.232-.544a21.221,21.221,0,0,1-4.16.512c-1.92,0-2.272-.112-2.272-1.68,0-.416.016-1.264.048-2.224A36.99,36.99,0,0,0-23.76-7.264c.608-.32,1.024-.416,1.024-.736a2.145,2.145,0,0,0-.9-1.232,1.834,1.834,0,0,0-.752-.272Zm.992-1.728a7.305,7.305,0,0,1,1.408,1.456c.32.4.464.768.7.784a.4.4,0,0,0,.432-.432c.016-.3-.16-.576-.528-.96a6.189,6.189,0,0,0-1.792-1.12Zm1.376-1.2A8.294,8.294,0,0,1-20.848-10.9c.336.416.5.784.752.8a.363.363,0,0,0,.384-.416,1.2,1.2,0,0,0-.544-.992,6.421,6.421,0,0,0-1.792-.992Zm18.32,3.04a.382.382,0,0,0,.4-.416,1.452,1.452,0,0,0-.544-.976,6.458,6.458,0,0,0-1.84-1.088l-.208.288A8.29,8.29,0,0,1-4.672-9.9C-4.352-9.5-4.192-9.184-3.936-9.184Zm1.664-1.232a.371.371,0,0,0,.384-.416,1.312,1.312,0,0,0-.576-.976,6.417,6.417,0,0,0-1.84-.976l-.192.272a9.437,9.437,0,0,1,1.44,1.344C-2.7-10.768-2.528-10.416-2.272-10.416ZM-10.9-9.6c.848.688,1.168,1.328,1.616,1.328A.481.481,0,0,0-8.816-8.8c0-.56-.48-1.088-1.568-1.632A15.862,15.862,0,0,0-12.4-11.12l-.176.368A9.892,9.892,0,0,1-10.9-9.6Zm-1.776,8.48c-.544,0-1.04-.544-1.472-1.056l-.256.144A2.641,2.641,0,0,0-14.048-.96,3.261,3.261,0,0,0-12.192.224c.416,0,.592-.416.912-.608,3.536-1.952,6.912-4.752,8.736-7.952l-.368-.24C-5.792-4.576-11.584-1.12-12.672-1.12ZM-12.9-6.48c.832.624,1.088,1.2,1.584,1.2a.462.462,0,0,0,.464-.5c0-.608-.592-1.184-1.568-1.584a16.8,16.8,0,0,0-2.144-.672l-.16.352A11.208,11.208,0,0,1-12.9-6.48ZM5.072-7.616a3.249,3.249,0,0,0,.1.656c.1.3.672.96,1.04.96a5.716,5.716,0,0,0,.864-.272,33.28,33.28,0,0,1,4.208-.48c.08,0,.128.032.112.128-.048.368-.128,1.088-.224,1.9-1.536.112-4.224.4-4.688.4a1.465,1.465,0,0,1-.928-.56l-.208.112a1.73,1.73,0,0,0,.176.656c.16.3.656.816.992.816.224,0,.4-.16.768-.224.96-.128,2.464-.32,3.808-.416-.1.832-.176,1.7-.256,2.32-1.36.1-4.016.4-4.832.4-.448,0-.688-.336-.96-.64l-.192.112a1.811,1.811,0,0,0,.144.656c.128.3.688.928,1.088.928A5.854,5.854,0,0,0,6.9-.384a30.578,30.578,0,0,1,3.84-.352c.512,0,1.088.112,1.344.112a.353.353,0,0,0,.384-.384c0-.224-.32-.48-.688-.592.224-1.392.528-3.472.7-4.416.048-.368.416-.464.416-.752,0-.368-.976-1.04-1.328-1.04-.272,0-.352.24-.768.288-.72.112-3.888.448-4.624.448-.384,0-.624-.336-.864-.624Zm16.784-2.976A10.773,10.773,0,0,1,24.64-8.176c.416.5.624.672.88.672a.546.546,0,0,0,.56-.592c0-1.232-2.208-2.32-4.032-2.832ZM23.44-1.776c-.512,0-1.024-.512-1.5-1.04l-.256.16a3.424,3.424,0,0,0,.336,1.04,3.124,3.124,0,0,0,1.9,1.232c.352,0,.528-.4.848-.592a24.025,24.025,0,0,0,8.4-8.208l-.368-.24C30.528-6.016,24.672-1.776,23.44-1.776Z" transform="translate(641 2651)" fill="#333"/>
  </g>
</svg>
