<svg xmlns="http://www.w3.org/2000/svg" width="247.32" height="43.2" viewBox="0 0 247.32 43.2"><path d="M5.46-1.14A1.139,1.139,0,0,0,6.6,0h5.52a1.18,1.18,0,0,0,1.14-1.14v-14.1h7.5a13.5,13.5,0,0,0,13.38-13.5A13.419,13.419,0,0,0,20.7-42H6.6a1.139,1.139,0,0,0-1.14,1.14Zm7.8-21.42V-34.62h6.96A5.986,5.986,0,0,1,26.4-28.8a6.184,6.184,0,0,1-6.18,6.24ZM48.18-1.14A1.139,1.139,0,0,0,49.32,0H73.74a1.139,1.139,0,0,0,1.14-1.14V-6.06A1.139,1.139,0,0,0,73.74-7.2H55.98V-17.7H70.8a1.139,1.139,0,0,0,1.14-1.14v-4.98a1.18,1.18,0,0,0-1.14-1.14H55.98V-34.8H73.74a1.139,1.139,0,0,0,1.14-1.14v-4.92A1.139,1.139,0,0,0,73.74-42H49.32a1.139,1.139,0,0,0-1.14,1.14Zm39.48-19.8A21.409,21.409,0,0,0,109.2.6a21.459,21.459,0,0,0,21.6-21.54A21.561,21.561,0,0,0,109.2-42.6,21.51,21.51,0,0,0,87.66-20.94Zm7.8,0A13.88,13.88,0,0,1,109.2-34.8,13.931,13.931,0,0,1,123-20.94,13.828,13.828,0,0,1,109.2-7.2,13.777,13.777,0,0,1,95.46-20.94Zm50.4,19.8A1.139,1.139,0,0,0,147,0h5.52a1.18,1.18,0,0,0,1.14-1.14v-14.1h7.5a13.5,13.5,0,0,0,13.38-13.5A13.419,13.419,0,0,0,161.1-42H147a1.139,1.139,0,0,0-1.14,1.14Zm7.8-21.42V-34.62h6.96a5.986,5.986,0,0,1,6.18,5.82,6.184,6.184,0,0,1-6.18,6.24ZM188.58-1.14A1.139,1.139,0,0,0,189.72,0h21.96a1.139,1.139,0,0,0,1.14-1.14V-6.06a1.139,1.139,0,0,0-1.14-1.14h-15.3V-40.86A1.18,1.18,0,0,0,195.24-42h-5.52a1.139,1.139,0,0,0-1.14,1.14Zm37.5,0A1.139,1.139,0,0,0,227.22,0h24.42a1.139,1.139,0,0,0,1.14-1.14V-6.06a1.139,1.139,0,0,0-1.14-1.14H233.88V-17.7H248.7a1.139,1.139,0,0,0,1.14-1.14v-4.98a1.18,1.18,0,0,0-1.14-1.14H233.88V-34.8h17.76a1.139,1.139,0,0,0,1.14-1.14v-4.92A1.139,1.139,0,0,0,251.64-42H227.22a1.139,1.139,0,0,0-1.14,1.14Z" transform="translate(-5.46 42.6)" fill="#16344f"/></svg>