<svg xmlns="http://www.w3.org/2000/svg" width="101.007" height="9.94" viewBox="0 0 101.007 9.94">
  <path id="パス_920" data-name="パス 920" d="M3.542-.182c0,.224.294.182.476.182A.185.185,0,0,0,4.2-.182V-4.774L7.84-9.59c.084-.112.028-.21-.112-.21h-.42a.226.226,0,0,0-.182.084L3.878-5.362.686-9.716A.226.226,0,0,0,.5-9.8H.084c-.14,0-.2.1-.112.21l3.57,4.83ZM8.6-1.722A1.764,1.764,0,0,0,10.43.14a2.927,2.927,0,0,0,1.946-.8l.056.5c.028.1.07.154.168.154h.168a.185.185,0,0,0,.182-.182V-3.29c0-1.428-.07-2.45-1.778-2.45a4.053,4.053,0,0,0-1.918.42c-.07.028-.126.084-.084.21l.07.168a.146.146,0,0,0,.21.112,4.11,4.11,0,0,1,1.68-.378c1.106,0,1.232.616,1.232,1.848a4.606,4.606,0,0,0-1.414-.252C9.478-3.612,8.6-2.8,8.6-1.722Zm.574-.014c0-.826.714-1.372,1.778-1.372a3.638,3.638,0,0,1,1.414.294v1.54A2.548,2.548,0,0,1,10.5-.406,1.264,1.264,0,0,1,9.17-1.736ZM16.436-.49A2.852,2.852,0,0,0,18.27.14a1.81,1.81,0,0,0,1.988-1.554c0-1.022-.924-1.372-1.974-1.764-.826-.294-1.33-.56-1.33-1.12,0-.378.322-.9,1.2-.9a2.646,2.646,0,0,1,1.288.392.188.188,0,0,0,.266-.07l.084-.154a.2.2,0,0,0-.056-.266,2.957,2.957,0,0,0-1.582-.448,1.625,1.625,0,0,0-1.834,1.456c0,.868.728,1.3,1.722,1.652.938.35,1.568.616,1.568,1.26,0,.546-.546.994-1.344.994a2.487,2.487,0,0,1-1.5-.546.163.163,0,0,0-.252.014l-.14.224A.155.155,0,0,0,16.436-.49Zm7.042-1.918c0,1.582.672,2.548,2.24,2.548A2.551,2.551,0,0,0,27.65-.714l.056.546c.014.084.056.168.168.168h.168a.185.185,0,0,0,.182-.182V-5.418a.185.185,0,0,0-.182-.182H27.79a.169.169,0,0,0-.182.182v3.99a2.332,2.332,0,0,1-1.848.98c-1.064,0-1.666-.658-1.666-1.96v-3.01a.185.185,0,0,0-.182-.182H23.66a.185.185,0,0,0-.182.182ZM32.032-.182A.163.163,0,0,0,32.186,0h.266a.163.163,0,0,0,.182-.182V-4.158a2.826,2.826,0,0,1,2-.98c1.064,0,1.666.672,1.666,1.96v3A.185.185,0,0,0,36.484,0h.252a.185.185,0,0,0,.182-.182v-3c0-1.666-.8-2.562-2.254-2.562a2.95,2.95,0,0,0-2.03.9V-9.618a.185.185,0,0,0-.182-.182h-.224a.189.189,0,0,0-.2.182ZM40.95-8.344a.469.469,0,0,0,.476-.462.484.484,0,0,0-.476-.49.484.484,0,0,0-.476.49A.469.469,0,0,0,40.95-8.344ZM40.642-.182A.163.163,0,0,0,40.8,0h.28a.163.163,0,0,0,.182-.182V-5.418a.185.185,0,0,0-.182-.182h-.252a.185.185,0,0,0-.182.182Zm4.424,0A.163.163,0,0,0,45.22,0h.28a.163.163,0,0,0,.182-.182v-3.99a1.967,1.967,0,0,1,1.666-.966,1.781,1.781,0,0,1,.728.168c.1.042.182.028.224-.07l.112-.28c.042-.112-.028-.21-.154-.252a2.317,2.317,0,0,0-.868-.168,2.148,2.148,0,0,0-1.75.868l-.056-.574a.167.167,0,0,0-.168-.154h-.168a.185.185,0,0,0-.182.182ZM50.82-2.814A2.865,2.865,0,0,0,53.634.14a2.873,2.873,0,0,0,2.814-2.954A2.875,2.875,0,0,0,53.634-5.74,2.866,2.866,0,0,0,50.82-2.814Zm.6,0a2.264,2.264,0,0,1,2.212-2.338,2.262,2.262,0,0,1,2.2,2.338,2.273,2.273,0,0,1-2.2,2.38A2.275,2.275,0,0,1,51.422-2.814ZM64.974-.182A.185.185,0,0,0,65.156,0h.294a.188.188,0,0,0,.2-.182V-9.618a.185.185,0,0,0-.182-.182h-.308a.185.185,0,0,0-.182.182Zm5.012-8.162a.469.469,0,0,0,.476-.462.484.484,0,0,0-.476-.49.484.484,0,0,0-.476.49A.469.469,0,0,0,69.986-8.344ZM69.678-.182A.163.163,0,0,0,69.832,0h.28a.163.163,0,0,0,.182-.182V-5.418a.185.185,0,0,0-.182-.182H69.86a.185.185,0,0,0-.182.182Zm3.836.028A.159.159,0,0,0,73.682,0H77.35a.176.176,0,0,0,.182-.182v-.2A.169.169,0,0,0,77.35-.56h-2.9V-.6l3.276-4.732a.171.171,0,0,0-.154-.266H73.948a.166.166,0,0,0-.168.182v.2a.174.174,0,0,0,.168.182H76.8V-5l-3.29,4.69Zm7.378-2.254c0,1.582.672,2.548,2.24,2.548a2.551,2.551,0,0,0,1.932-.854l.056.546c.014.084.056.168.168.168h.168a.185.185,0,0,0,.182-.182V-5.418a.185.185,0,0,0-.182-.182H85.2a.169.169,0,0,0-.182.182v3.99a2.332,2.332,0,0,1-1.848.98c-1.064,0-1.666-.658-1.666-1.96v-3.01a.185.185,0,0,0-.182-.182h-.252a.185.185,0,0,0-.182.182ZM89.446-.182A.163.163,0,0,0,89.6,0h.266a.163.163,0,0,0,.182-.182V-2.9L93.282-.112a.4.4,0,0,0,.28.112H94a.13.13,0,0,0,.07-.238l-3.374-2.9L93.7-5.348c.112-.07.1-.252-.042-.252h-.406a.372.372,0,0,0-.224.084l-2.982,2.17V-9.618a.185.185,0,0,0-.182-.182h-.238a.185.185,0,0,0-.182.182Zm7.14-1.54A1.764,1.764,0,0,0,98.42.14a2.927,2.927,0,0,0,1.946-.8l.056.5c.028.1.07.154.168.154h.168a.185.185,0,0,0,.182-.182V-3.29c0-1.428-.07-2.45-1.778-2.45a4.053,4.053,0,0,0-1.918.42c-.07.028-.126.084-.084.21l.07.168a.146.146,0,0,0,.21.112,4.11,4.11,0,0,1,1.68-.378c1.106,0,1.232.616,1.232,1.848a4.606,4.606,0,0,0-1.414-.252C97.468-3.612,96.586-2.8,96.586-1.722Zm.574-.014c0-.826.714-1.372,1.778-1.372a3.638,3.638,0,0,1,1.414.294v1.54a2.548,2.548,0,0,1-1.862.868A1.264,1.264,0,0,1,97.16-1.736Z" transform="translate(0.067 9.8)" fill="#333"/>
</svg>
