<?xml version="1.0" encoding="utf-8"?>
<!-- Generator: Adobe Illustrator 25.4.1, SVG Export Plug-In . SVG Version: 6.00 Build 0)  -->
<svg version="1.1" id="レイヤー_1" xmlns="http://www.w3.org/2000/svg" xmlns:xlink="http://www.w3.org/1999/xlink" x="0px"
	 y="0px" viewBox="0 0 115.9 61.9" style="enable-background:new 0 0 115.9 61.9;" xml:space="preserve">
<style type="text/css">
	.st0{enable-background:new    ;}
	.st1{fill:#16344F;}
	.st2{fill:#FFFFFF;}
</style>
<g id="グループ_3199" transform="translate(-26 -37.352)">
	<g class="st0">
		<path class="st1" d="M29.1,84.4c0-0.1,0.1-0.3,0.3-0.3h3.8c1.7,0,3.1,1.3,3.1,3c0,1.3-0.9,2.4-2.1,2.8l1.9,3.6
			c0.1,0.2,0,0.4-0.2,0.4h-1.1c-0.1,0-0.2-0.1-0.2-0.1l-1.9-3.7h-2.1v3.6c0,0.1-0.1,0.3-0.3,0.3h-0.9c-0.2,0-0.3-0.1-0.3-0.3V84.4z
			 M33.1,88.9c0.9,0,1.7-0.8,1.7-1.7c0-0.9-0.8-1.7-1.7-1.7h-2.5v3.4H33.1z"/>
		<path class="st1" d="M40.1,84.4c0-0.1,0.1-0.3,0.3-0.3H46c0.2,0,0.3,0.1,0.3,0.3v0.8c0,0.1-0.1,0.3-0.3,0.3h-4.4v2.9h3.7
			c0.1,0,0.3,0.1,0.3,0.3v0.8c0,0.2-0.1,0.3-0.3,0.3h-3.7v3H46c0.2,0,0.3,0.1,0.3,0.3v0.8c0,0.1-0.1,0.3-0.3,0.3h-5.6
			c-0.2,0-0.3-0.1-0.3-0.3V84.4z"/>
		<path class="st1" d="M54.4,84c1.4,0,2.4,0.5,3.4,1.3c0.1,0.1,0.1,0.3,0,0.4l-0.6,0.6c-0.1,0.1-0.2,0.1-0.4,0
			c-0.7-0.6-1.6-0.9-2.4-0.9c-2,0-3.5,1.7-3.5,3.6s1.5,3.6,3.5,3.6c1,0,1.7-0.4,2.4-0.9c0.1-0.1,0.3-0.1,0.3,0l0.6,0.6
			c0.1,0.1,0.1,0.3,0,0.4c-1,0.9-2.2,1.4-3.4,1.4c-2.8,0-5.1-2.2-5.1-5S51.6,84,54.4,84z"/>
		<path class="st1" d="M61.4,84.4c0-0.1,0.1-0.3,0.3-0.3h3.8c1.7,0,3.1,1.3,3.1,3c0,1.3-0.9,2.4-2.1,2.8l1.9,3.6
			c0.1,0.2,0,0.4-0.2,0.4h-1.1c-0.1,0-0.2-0.1-0.2-0.1L65,90.1h-2.1v3.6c0,0.1-0.1,0.3-0.3,0.3h-0.9c-0.2,0-0.3-0.1-0.3-0.3V84.4z
			 M65.4,88.9c0.9,0,1.7-0.8,1.7-1.7c0-0.9-0.8-1.7-1.7-1.7h-2.5v3.4H65.4z"/>
		<path class="st1" d="M72.3,84.4c0-0.1,0.1-0.3,0.3-0.3h0.9c0.2,0,0.3,0.1,0.3,0.3v5.8c0,1.4,0.9,2.5,2.3,2.5
			c1.4,0,2.4-1.1,2.4-2.5v-5.8c0-0.1,0.1-0.3,0.3-0.3h0.9c0.1,0,0.3,0.1,0.3,0.3v5.9c0,2.1-1.6,3.8-3.8,3.8c-2.2,0-3.8-1.7-3.8-3.8
			V84.4z"/>
		<path class="st1" d="M84.2,84.4c0-0.1,0.1-0.3,0.3-0.3h0.9c0.1,0,0.3,0.1,0.3,0.3v9.3c0,0.1-0.1,0.3-0.3,0.3h-0.9
			c-0.1,0-0.3-0.1-0.3-0.3V84.4z"/>
		<path class="st1" d="M91.4,85.4h-2.3c-0.2,0-0.3-0.1-0.3-0.3v-0.8c0-0.1,0.1-0.3,0.3-0.3h6c0.2,0,0.3,0.1,0.3,0.3v0.8
			c0,0.1-0.1,0.3-0.3,0.3h-2.3v8.2c0,0.1-0.1,0.3-0.3,0.3h-0.9c-0.1,0-0.3-0.1-0.3-0.3V85.4z"/>
		<path class="st1" d="M99.5,84.2c0-0.1,0.1-0.2,0.3-0.2h0.2c0.1,0,0.2,0.1,0.2,0.2l2.9,7.2h0.1l2.9-7.2c0-0.1,0.1-0.2,0.2-0.2h0.2
			c0.1,0,0.2,0.1,0.3,0.2l1.7,9.4c0,0.2-0.1,0.3-0.3,0.3h-0.9c-0.1,0-0.2-0.1-0.3-0.2l-1-6.3c0,0,0,0,0,0l-2.5,6.4
			c0,0.1-0.1,0.2-0.2,0.2H103c-0.1,0-0.2-0.1-0.2-0.2l-2.5-6.4c0,0,0,0-0.1,0l-1,6.3c0,0.1-0.1,0.2-0.3,0.2H98
			c-0.2,0-0.3-0.1-0.3-0.3L99.5,84.2z"/>
		<path class="st1" d="M112.3,84.4c0-0.1,0.1-0.3,0.3-0.3h5.6c0.2,0,0.3,0.1,0.3,0.3v0.8c0,0.1-0.1,0.3-0.3,0.3h-4.4v2.9h3.7
			c0.1,0,0.3,0.1,0.3,0.3v0.8c0,0.2-0.1,0.3-0.3,0.3h-3.7v3h4.4c0.2,0,0.3,0.1,0.3,0.3v0.8c0,0.1-0.1,0.3-0.3,0.3h-5.6
			c-0.2,0-0.3-0.1-0.3-0.3V84.4z"/>
		<path class="st1" d="M122.2,84.2c0-0.1,0.1-0.3,0.3-0.3h0.3l6.1,7h0v-6.6c0-0.1,0.1-0.3,0.3-0.3h0.9c0.1,0,0.3,0.1,0.3,0.3v9.4
			c0,0.1-0.1,0.3-0.3,0.3h-0.4l-6.1-7.2h0v6.8c0,0.1-0.1,0.3-0.3,0.3h-0.9c-0.1,0-0.3-0.1-0.3-0.3V84.2z"/>
		<path class="st1" d="M136.1,85.4h-2.3c-0.2,0-0.3-0.1-0.3-0.3v-0.8c0-0.1,0.1-0.3,0.3-0.3h6c0.2,0,0.3,0.1,0.3,0.3v0.8
			c0,0.1-0.1,0.3-0.3,0.3h-2.3v8.2c0,0.1-0.1,0.3-0.3,0.3h-0.9c-0.1,0-0.3-0.1-0.3-0.3V85.4z"/>
	</g>
	<g id="グループ_3019" transform="translate(7.417 -341.545)">
		<path id="パス_667" d="M80.4,392.9v3.9h4.4l7.7-3.9h2.8l-8.2,4.4l8.3,4.4h-3l-7.7-3.8h-4.3v4h-2v-8.9H80.4z"/>
		<path id="パス_668" d="M57.3,393v1H49v7.8h-2V394h-8.3v-1L57.3,393z"/>
		<g id="グループ_3020" transform="translate(18.583 378.897)">
			<path id="パス_669" d="M6,21.8c-1.6,0.1-3.1-0.5-4.3-1.6l0,0c-1.6-1.5-2.1-3.9-1.4-6.8C1.1,10.3,2.7,7.5,5,5.3
				c5-5.1,11.7-6.8,14.8-3.7c1.6,1.5,2.1,3.9,1.4,6.8c-0.8,3.1-2.4,5.9-4.7,8.2C13.2,19.9,9.2,21.8,6,21.8z M15.6,0.5
				c-3.1,0-7,1.8-10.2,5.1c-2.2,2.2-3.8,4.9-4.6,7.9c-0.6,2.7-0.1,4.9,1.3,6.3l0,0c1.1,1,2.5,1.5,3.9,1.4c3.1,0,7-1.8,10.2-5.1
				c2.2-2.2,3.8-4.9,4.6-7.9c0.6-2.7,0.2-4.9-1.3-6.3C18.4,0.9,17,0.4,15.6,0.5L15.6,0.5z"/>
		</g>
		<path id="パス_670" d="M29.4,389.8v9.6l7.9,2.9v-9.7L29.4,389.8z"/>
		<path id="パス_671" d="M133.6,392.8h-2v7.3c0,0.3-0.3,0.6-0.6,0.6h-12.3c-0.3,0-0.6-0.3-0.6-0.6c0,0,0,0,0,0v-7.3h-2l0,7.3
			l0.1,0.4c0.5,0.7,1.4,1.1,2.3,1.1h12.8c0.8,0,1.6-0.3,2.1-0.9c0.1-0.1,0.1-0.1,0.2-0.2l0.1-0.4L133.6,392.8z"/>
		<path id="パス_672" d="M73.2,392.8H61.7c-1.7,0-3.1,0.6-3.1,1.4v6.2c0,0.8,1.4,1.4,3.1,1.4h11.6c1.7,0,3.1-0.6,3.1-1.4v-6.2
			C76.4,393.5,75,392.8,73.2,392.8z M74.3,400.3c0,0.3-0.3,0.6-0.6,0.6H61.1c-0.3,0-0.6-0.3-0.6-0.6c0,0,0,0,0,0v-5.8
			c0-0.3,0.3-0.6,0.6-0.6c0,0,0,0,0,0h12.6c0.3,0,0.6,0.3,0.6,0.6L74.3,400.3z"/>
		<path id="パス_673" d="M112.1,392.9v3.9H99.1c-0.3,0-0.6-0.3-0.6-0.6v-3.4h-2v3.5c0,0.8,1.4,1.4,3.1,1.4h12.5l0,0
			c0,0,0,2.6,0,2.6c-0.1,0.3-0.4,0.4-0.6,0.4h-15v1h14.8c1-0.1,2.5-0.3,2.8-1.3v-7.6H112.1z"/>
		<g id="グループ_3023" transform="translate(58.483 383.534)">
			<path id="パス_674" d="M5.8,0v0.5h4.8v0.6H5.8v0.5h3.9v2.6H6.9C8,5,9.3,5.5,10.6,5.7L10,6.3c-1.5-0.4-2.9-1-4.2-1.8v1.9h-1V4.5
				C3.5,5.3,2.1,5.9,0.6,6.2L0,5.6c1.2-0.2,3.4-1,3.7-1.4H1V1.6h3.8V1.1H0.1V0.5h4.7V0L5.8,0z M5.8,2.1v0.5h2.8V2.1H5.8z M2.1,2.1
				v0.5h2.7V2.1H2.1z M5.8,3.2v0.5h2.8V3.2H5.8z M2.1,3.2v0.5h2.7V3.2H2.1z"/>
			<path id="パス_674_-_アウトライン" class="st2" d="M4.8,0h1.1v0.5h4.8v0.6H5.8v0.4h3.9v2.7H7C8.1,5,9.3,5.4,10.6,5.7l0,0
				L10,6.3h0C8.5,6,7.1,5.4,5.8,4.5v1.8H4.8V4.6C3.5,5.3,2.1,5.9,0.7,6.2h0L0,5.6l0,0c1.3-0.2,2.5-0.7,3.6-1.4H1V1.6h3.8V1.1H0.1
				V0.5h4.7V0z M5.8,0h-1v0.5H0.1v0.5h4.7v0.5H1v2.6h2.7l0,0C3.4,4.7,1.3,5.4,0,5.7l0.6,0.5c1.5-0.3,2.8-0.9,4.1-1.7l0,0v1.9h1V4.5
				l0,0C7.1,5.3,8.5,5.9,10,6.3l0.5-0.6C9.2,5.5,8,5,6.9,4.3l0,0h2.8V1.6H5.8V1.1h4.8V0.6H5.8L5.8,0z M2,2.1h2.8v0.6H2V2.1z
				 M4.8,2.2H2.1v0.5h2.7V2.2z M5.8,2.1h2.9v0.6H5.8V2.1z M8.6,2.2H5.8v0.5h2.8V2.2z M2,3.2h2.8v0.6H2V3.2z M4.8,3.2H2.1v0.5h2.7
				V3.2z M5.8,3.2h2.9v0.6H5.8V3.2z M8.6,3.2H5.8v0.5h2.8V3.2z"/>
			<g id="グループ_3021" transform="translate(11.153 0.055)">
				<path id="パス_675" d="M3.9,4.7c0,0.5-0.1,0.7,0.2,0.9h2.8c0.2,0,0.3,0,0.4-0.2c0,0,0-0.1,0-0.1c0-0.1,0-0.2,0.1-0.3l1.1,0.2
					c0,0.3-0.1,0.5-0.3,0.7C7.7,6.2,7.3,6.3,6.9,6.2H3.6C3.3,6.2,3,6.1,2.9,5.9V4.4h1L3.9,4.7z"/>
				<path id="パス_675_-_アウトライン" class="st2" d="M2.8,4.4h1.1v0.4c0,0.1,0,0.2,0,0.4c0,0.3,0,0.4,0.2,0.5h2.8
					c0,0,0.1,0,0.1,0c0.2,0,0.3-0.1,0.3-0.3c0,0,0,0,0,0C7.3,5,7.3,5,7.3,5l0,0l1.1,0.2v0c0,0.3-0.1,0.5-0.3,0.7
					C7.8,6.2,7.4,6.3,7,6.2l-0.2,0H3.6l-0.1,0C3.2,6.2,2.9,6.1,2.8,5.9L2.8,4.4L2.8,4.4z M3.9,4.4h-1v1.5C3,6.1,3.3,6.1,3.5,6.2
					l0.1,0h3.3l0.2,0c0.4,0,0.8-0.1,1.1-0.3c0.2-0.2,0.3-0.4,0.3-0.7L7.4,5c0,0,0,0.2-0.1,0.3c0,0.2-0.2,0.3-0.3,0.3
					c0,0-0.1,0-0.1,0H4.1l0,0C3.8,5.6,3.8,5.4,3.9,5.1c0-0.1,0-0.2,0-0.4L3.9,4.4z"/>
				<path id="パス_676" d="M9,4.4c0.6,0.4,1.1,0.8,1.6,1.4L9.7,6.1L8.1,4.7L9,4.4z"/>
				<path id="パス_676_-_アウトライン" class="st2" d="M9,4.4L9,4.4c0.1,0.1,0.2,0.1,0.3,0.2c0.5,0.3,0.9,0.7,1.3,1.2l0,0
					L9.7,6.2l0,0L8.1,4.7L9,4.4z M10.5,5.7c-0.4-0.4-0.8-0.8-1.3-1.1C9.1,4.5,9,4.5,9,4.4L8.2,4.7l1.5,1.4L10.5,5.7z"/>
				<path id="パス_677" d="M2.3,4.7C2,5.3,1.6,5.8,1,6.2L0,5.8c0.5-0.4,1-0.9,1.4-1.4L2.3,4.7z"/>
				<path id="パス_677_-_アウトライン" class="st2" d="M1.4,4.4l1,0.3l0,0C2,5.3,1.6,5.8,1,6.2l0,0L0,5.8l0,0
					C0.5,5.4,0.9,4.9,1.4,4.4L1.4,4.4z M2.3,4.7L1.4,4.4C1,4.9,0.5,5.4,0,5.8L1,6.2C1.5,5.8,2,5.3,2.3,4.7L2.3,4.7z"/>
				<path id="パス_678" d="M1.2,4.1V3.6h7.3V3.1H1.4V2.6h7.2V2.1H1.7c0,0,0-0.3,0-0.3C1.3,2,1,2.1,0.7,2.2L0.1,1.7
					C1.3,1.4,2.5,0.8,3.5,0h1.1c0,0.1-0.2,0.3-0.3,0.4h4c0,0.6-0.9,0.9-1.2,1.2h2.5v2.6L1.2,4.1z M5.7,4.2C6.2,4.6,6.3,4.7,6.6,5
					L5.7,5.3l-1-0.9C5,4.3,5.4,4.2,5.7,4.2 M3.5,1L2.6,1.5L2.4,1.6h3.2C6,1.5,6.4,1.3,6.7,1L3.5,1z"/>
				<path id="パス_678_-_アウトライン" class="st2" d="M5.7,5.4L4.6,4.5l0,0c0.3-0.2,0.7-0.3,1-0.3h0l0,0
					C6,4.5,6.2,4.6,6.4,4.7C6.5,4.8,6.5,4.9,6.7,5l0,0L5.7,5.4z M4.7,4.5l1,0.8L6.6,5C6.5,4.9,6.4,4.8,6.3,4.8
					C6.2,4.6,6,4.5,5.7,4.2C5.4,4.3,5,4.4,4.7,4.5L4.7,4.5z M9.6,4.2H1.2V3.6h7.3V3.1H1.3V2.6h7.2V2.1H1.6l0,0c0,0,0,0,0,0l0,0v0
					c0,0,0-0.1,0-0.2C1.4,1.9,1.4,2,1.3,2C1.1,2.1,0.9,2.1,0.7,2.2h0L0.1,1.7l0,0l0.4-0.2c1.1-0.3,2.1-0.8,3-1.5l0,0h1.2v0
					c0,0.1-0.1,0.3-0.3,0.4h3.9v0c0,0.5-0.6,0.8-0.9,1c-0.1,0-0.2,0.1-0.2,0.1h2.5L9.6,4.2z M1.3,4.1h8.3V1.6H7l0.1,0
					c0.1,0,0.2-0.1,0.3-0.2c0.4-0.2,0.9-0.5,0.9-1h-4l0.1,0C4.5,0.3,4.6,0.2,4.6,0H3.5c-0.9,0.7-1.9,1.2-3,1.5L0.1,1.7l0.5,0.4
					C0.9,2.1,1.1,2,1.3,1.9c0.1,0,0.1-0.1,0.3-0.1l0,0v0c0,0,0,0.2,0,0.2h6.9v0.6H1.4v0.4h7.2v0.6H1.3L1.3,4.1z M5.6,1.6H2.4l0,0
					l0.2-0.1L3.5,1h3.3l0,0C6.4,1.3,6,1.5,5.6,1.6L5.6,1.6z M2.5,1.5h3.1C6,1.4,6.3,1.3,6.7,1H3.5L2.5,1.5z"/>
			</g>
			<path id="パス_679" d="M32.5,0.3V1h-4.7c-0.1,0.3-0.2,0.6-0.4,0.9h4.1v4.5h-1.1V6.1H24v0.3h-1.1V1.8h3.2
				c0.3-0.2,0.4-0.5,0.5-0.9H22V0.3H32.5z M24,2.5v1.1h6.4V2.5H24z M24,4.2v1.2h6.4V4.2H24z"/>
			<path id="パス_679_-_アウトライン" class="st2" d="M21.9,0.3h10.6V1h-4.7c-0.1,0.3-0.2,0.6-0.4,0.8h4.1v4.6h-1.1V6.1
				h-6.4v0.3h-1.1V1.8h3.2c0.2-0.2,0.4-0.5,0.5-0.8h-4.7L21.9,0.3z M32.5,0.4H22v0.6h4.7v0c-0.1,0.3-0.2,0.7-0.5,0.9l0,0H23v4.5H24
				V6.1h6.4v0.3h1.1V1.9h-4.1l0,0c0.2-0.3,0.3-0.6,0.4-0.9v0h4.7L32.5,0.4z M24,2.5h6.4v1.1H24V2.5z M30.4,2.5h-6.4v1h6.4V2.5z
				 M24,4.2h6.4v1.2H24V4.2z M30.4,4.3h-6.4v1.2h6.4V4.3z"/>
			<g id="グループ_3022" transform="translate(32.999 0.158)">
				<path id="パス_680" d="M1.8,1.3v0.9h1.1V0.9c0.3-0.1,0.6-0.3,0.9-0.6L2.9,0C2,0.5,1,0.9,0,1.1l0.4,0.6
					C0.9,1.6,1.4,1.5,1.8,1.3z"/>
				<path id="パス_680_-_アウトライン" class="st2" d="M2.9,2.2H1.8V1.3C1.4,1.5,0.9,1.6,0.4,1.7h0L0,1.1l0.2-0.1
					C1.1,0.8,2,0.5,2.9,0l0,0l1,0.3l0,0C3.6,0.5,3.3,0.7,3,0.9l-0.1,0L2.9,2.2z M1.8,2.2h1V0.9l0,0l0.1,0c0.3-0.1,0.6-0.3,0.8-0.5
					L2.9,0C2,0.5,1.1,0.9,0.2,1.1L0,1.2l0.4,0.5c0.5-0.1,0.9-0.2,1.4-0.4l0,0L1.8,2.2z"/>
				<path id="パス_681" d="M9.6,1.1c0,0.1-0.1,0.2-0.1,0.4C9.4,1.6,9.1,1.6,8.5,1.6H5.8C5.6,1.5,5.5,1.4,5.5,1.2
					c1.6,0,3.2-0.2,4.8-0.5L9.7,0.1C8.4,0.4,6.9,0.6,5.5,0.5V0H4.4v1.7C4.5,2,4.9,2.1,5.2,2.1h3.4c0.5,0,1.4,0,1.7-0.3
					c0.2-0.2,0.3-0.3,0.3-0.6L9.6,1.1z"/>
				<path id="パス_681_-_アウトライン" class="st2" d="M4.4,0h1.1v0.5c0.2,0,0.4,0,0.6,0c1.2,0,2.4-0.2,3.6-0.4h0l0.6,0.6
					l0,0C8.8,1,7.2,1.2,5.6,1.2c0,0.2,0,0.3,0.2,0.4h2.8c0.5,0,0.8,0,0.9-0.1c0.1-0.3,0.1-0.4,0.1-0.4l0,0l1.1,0.2v0
					c0,0.3-0.1,0.4-0.3,0.6c-0.5,0.2-1,0.3-1.5,0.3c-0.1,0-0.2,0-0.2,0H5.2L5,2.1C4.8,2.1,4.5,2,4.4,1.8L4.4,0L4.4,0z M5.5,0h-1v1.7
					C4.5,2,4.8,2,5.1,2.1l0.1,0h3.4c0.1,0,0.2,0,0.2,0c0.5,0,1,0,1.5-0.3c0.2-0.2,0.3-0.3,0.3-0.6l-1-0.2c0,0,0,0.2-0.1,0.3v0
					C9.4,1.6,9.1,1.6,8.6,1.6h0H5.7C5.5,1.5,5.5,1.4,5.5,1.2v0h0c1.6,0,3.2-0.2,4.8-0.5L9.7,0.1C8.5,0.4,7.3,0.6,6.1,0.6
					c-0.2,0-0.4,0-0.6,0h0L5.5,0z"/>
				<path id="パス_682" d="M9.5,2.5v2.8H7.7c0,0,0.3,0.3,3,0.5l-0.3,0.5c-1.2,0-2.4-0.2-3.6-0.6c0.2-0.1,0.4-0.2,0.5-0.4H3.6
					c0,0.2,0.3,0.3,0.4,0.4C2.9,6.1,1.7,6.3,0.6,6.3C0.5,6.2,0.2,5.9,0.2,5.7c1.1,0,2.1-0.1,3.1-0.5H1.2V2.5L9.5,2.5z M2.3,2.9v0.3
					h6.1V2.9H2.3z M2.3,3.7V4h6.1V3.7H2.3z M2.3,4.5v0.3h6.1V4.5H2.3z"/>
				<path id="パス_682_-_アウトライン" class="st2" d="M1.2,2.4h8.3v2.9H7.7c0.9,0.3,1.9,0.5,2.9,0.4h0l-0.3,0.6h0
					c-1.2,0-2.4-0.2-3.6-0.6l0,0l0,0c0.1,0,0.1-0.1,0.2-0.1C7,5.5,7.1,5.4,7.2,5.3H3.6c0,0.1,0.1,0.2,0.2,0.3C3.9,5.6,4,5.7,4,5.7
					l0,0l0,0C2.9,6.1,1.7,6.3,0.6,6.3h0l0,0c0,0-0.1-0.1-0.1-0.1C0.3,6.1,0.2,5.9,0.1,5.7v0h0c0.1,0,0.3,0,0.4,0
					c0.9,0,1.8-0.1,2.6-0.4h-2L1.2,2.4z M9.5,2.5H1.2v2.8h2.1l0,0C2.5,5.6,1.5,5.8,0.6,5.7c-0.2,0-0.3,0-0.4,0
					C0.3,5.9,0.4,6,0.5,6.2c0,0.1,0.1,0.1,0.1,0.1c1.2,0,2.3-0.2,3.4-0.6c0,0-0.1-0.1-0.1-0.1C3.7,5.5,3.6,5.4,3.6,5.3v0h3.7l0,0
					C7.2,5.4,7.1,5.5,6.9,5.6c0,0-0.1,0-0.1,0.1C7.9,6,9.1,6.2,10.3,6.3l0.3-0.5c-2.6-0.2-3-0.5-3-0.5l0,0h1.9L9.5,2.5z M2.3,2.9
					h6.1v0.3H2.3L2.3,2.9z M8.4,3H2.3v0.2h6L8.4,3z M2.3,3.7h6.1V4H2.3L2.3,3.7z M8.4,3.8H2.3V4h6L8.4,3.8z M2.3,4.5h6.1v0.3H2.3
					L2.3,4.5z M8.4,4.5H2.3v0.2h6L8.4,4.5z"/>
			</g>
			<path id="パス_683" d="M50.8,0.1v0.6H55v0.6h-4.2v0.9H55v0.6h-4.2v0.9h3.7v2.7h-1.1V6.2h-5.1v0.3h-1.1V3.8h2.4V1.4h-3.1
				c0,1.7,0.1,3.7-1.2,4.9l-0.9-0.6c1.3-1.5,1.1-3.2,1-5h4.2V0.1H50.8z M48.3,4.4v1.1h5.1V4.4H48.3z"/>
			<path id="パス_683_-_アウトライン" class="st2" d="M49.6,0.1h1.2v0.6H55v0.7h-4.2v0.8H55v0.6h-4.2v0.9h3.7v2.7h-1.1V6.2
				h-5.1v0.3h-1.1V3.8h2.4V1.4h-3c0,0.2,0,0.3,0,0.5c0,1.6,0,3.3-1.2,4.4l0,0l-1-0.6l0,0c1.2-1.4,1.1-2.9,1-4.6c0-0.1,0-0.2,0-0.4v0
				h4.2L49.6,0.1z M50.7,0.2h-1.1v0.6h-4.2c0,0.1,0,0.2,0,0.3c0.1,1.7,0.2,3.3-1,4.6l0.9,0.5c1.2-1.1,1.2-2.8,1.2-4.4
				c0-0.2,0-0.3,0-0.5v0h3.1v2.4h-2.4v2.6h1V6.2h5.2v0.3h1V3.8h-3.7v-1H55V2.3h-4.2V1.4H55V0.8h-4.2L50.7,0.2z M48.3,4.4h5.2v1.2
				h-5.2L48.3,4.4z M53.4,4.4h-5.1v1.1h5.1V4.4z"/>
		</g>
	</g>
</g>
</svg>
