<svg xmlns="http://www.w3.org/2000/svg" width="135" height="26" viewBox="0 0 135 26"><g transform="translate(12563 2525)"><rect width="135" height="26" transform="translate(-12563 -2525)" fill="#16344f"/><g transform="translate(6114.15 101.481)"><path d="M31.11.5H0v-1H31.11Z" transform="translate(-18674.266 -2602.483) rotate(-45)" fill="#fff"/><path d="M31.11.5H0v-1H31.11Z" transform="translate(-18674.264 -2624.481) rotate(45)" fill="#fff"/></g><path d="M2.12-.26A.265.265,0,0,0,2.38,0h.36c.2,0,.32-.12.32-.26V-5.4H6.74c.26,0,.48,0,.74-.02l2.9,5.24a.283.283,0,0,0,.28.18h.62c.2,0,.24-.2.14-.36L8.5-5.54a4.377,4.377,0,0,0,3.3-4.18A4.339,4.339,0,0,0,7.34-14H2.38a.252.252,0,0,0-.26.26Zm.96-5.98v-6.84h4.2a3.452,3.452,0,0,1,3.56,3.36A3.5,3.5,0,0,1,7.3-6.24ZM17.52-.26a.265.265,0,0,0,.26.26H25.8a.265.265,0,0,0,.26-.26V-.58a.265.265,0,0,0-.26-.26H18.48V-6.76h6.34a.265.265,0,0,0,.26-.26v-.34a.265.265,0,0,0-.26-.26H18.48v-5.52H25.8a.265.265,0,0,0,.26-.26v-.34A.265.265,0,0,0,25.8-14H17.78a.265.265,0,0,0-.26.26Zm13.3-6.72A7.175,7.175,0,0,0,38.06.2a6.911,6.911,0,0,0,4.88-1.94.23.23,0,0,0,0-.34l-.34-.34a.251.251,0,0,0-.32.04A6.341,6.341,0,0,1,38.06-.7a6.244,6.244,0,0,1-6.24-6.28,6.265,6.265,0,0,1,6.24-6.32,6.248,6.248,0,0,1,4.22,1.64c.12.12.22.14.34.02l.32-.34a.254.254,0,0,0-.02-.36,6.852,6.852,0,0,0-4.86-1.86A7.221,7.221,0,0,0,30.82-6.98ZM48.58-.26a.265.265,0,0,0,.26.26h.36c.2,0,.32-.12.32-.26V-5.4H53.2c.26,0,.48,0,.74-.02l2.9,5.24a.283.283,0,0,0,.28.18h.62c.2,0,.24-.2.14-.36L54.96-5.54a4.377,4.377,0,0,0,3.3-4.18A4.339,4.339,0,0,0,53.8-14H48.84a.252.252,0,0,0-.26.26Zm.96-5.98v-6.84h4.2A3.452,3.452,0,0,1,57.3-9.72a3.5,3.5,0,0,1-3.54,3.48ZM63.82-5.1A5.018,5.018,0,0,0,69.04.2,5.039,5.039,0,0,0,74.3-5.1v-8.64a.265.265,0,0,0-.26-.26h-.4c-.2,0-.28.1-.28.26v8.56A4.152,4.152,0,0,1,69.04-.72,4.148,4.148,0,0,1,64.76-5.2v-8.54A.265.265,0,0,0,64.5-14h-.42a.265.265,0,0,0-.26.26ZM80.78-.26a.265.265,0,0,0,.26.26h.42a.269.269,0,0,0,.28-.26V-13.74a.265.265,0,0,0-.26-.26h-.44a.265.265,0,0,0-.26.26Zm9.72,0a.265.265,0,0,0,.26.26h.36c.2,0,.32-.12.32-.26V-13.14h3.84a.252.252,0,0,0,.26-.26v-.34a.252.252,0,0,0-.26-.26h-8.6a.252.252,0,0,0-.26.26v.3c0,.18.06.3.26.3H90.5Z" transform="translate(-12531 -2504.8)" fill="#fff"/></g></svg>