<svg xmlns="http://www.w3.org/2000/svg" width="119.43" height="14.4" viewBox="0 0 119.43 14.4">
  <path id="パス_925" data-name="パス 925" d="M2.12-.26A.265.265,0,0,0,2.38,0H2.8a.269.269,0,0,0,.28-.26V-13.74A.265.265,0,0,0,2.82-14H2.38a.265.265,0,0,0-.26.26Zm7.6,0A.265.265,0,0,0,9.98,0h.38a.265.265,0,0,0,.26-.26V-12.42h.02C20.14.14,20.3.2,20.32.2h.26c.16,0,.32-.08.32-.26V-13.74a.265.265,0,0,0-.26-.26h-.4a.265.265,0,0,0-.26.26V-1.7h-.02l-9.6-12.5h-.34a.275.275,0,0,0-.3.26Zm19.94,0a.265.265,0,0,0,.26.26h.36c.2,0,.32-.12.32-.26V-13.14h3.84a.252.252,0,0,0,.26-.26v-.34a.252.252,0,0,0-.26-.26h-8.6a.252.252,0,0,0-.26.26v.3c0,.18.06.3.26.3h3.82Zm9.72,0a.265.265,0,0,0,.26.26h8.02a.265.265,0,0,0,.26-.26V-.58a.265.265,0,0,0-.26-.26H40.34V-6.76h6.34a.265.265,0,0,0,.26-.26v-.34a.265.265,0,0,0-.26-.26H40.34v-5.52h7.32a.265.265,0,0,0,.26-.26v-.34a.265.265,0,0,0-.26-.26H39.64a.265.265,0,0,0-.26.26Zm14.36,0A.265.265,0,0,0,54,0h.36c.2,0,.32-.12.32-.26V-5.4h3.68c.26,0,.48,0,.74-.02L62-.18a.283.283,0,0,0,.28.18h.62c.2,0,.24-.2.14-.36L60.12-5.54a4.377,4.377,0,0,0,3.3-4.18A4.339,4.339,0,0,0,58.96-14H54a.252.252,0,0,0-.26.26Zm.96-5.98v-6.84h4.2a3.452,3.452,0,0,1,3.56,3.36,3.5,3.5,0,0,1-3.54,3.48ZM73.18.02A.264.264,0,0,0,73.4.2h.1a.258.258,0,0,0,.24-.18l6.14-13.74c.08-.16,0-.28-.18-.28h-.52a.233.233,0,0,0-.22.14L73.5-1.44h-.04l-5.4-12.42a.233.233,0,0,0-.22-.14H67.3c-.18,0-.24.1-.16.26ZM84.56-.26a.265.265,0,0,0,.26.26h.42a.269.269,0,0,0,.28-.26V-13.74a.265.265,0,0,0-.26-.26h-.44a.265.265,0,0,0-.26.26Zm7.6,0a.265.265,0,0,0,.26.26h8.02a.265.265,0,0,0,.26-.26V-.58a.265.265,0,0,0-.26-.26H93.12V-6.76h6.34a.265.265,0,0,0,.26-.26v-.34a.265.265,0,0,0-.26-.26H93.12v-5.52h7.32a.265.265,0,0,0,.26-.26v-.34a.265.265,0,0,0-.26-.26H92.42a.265.265,0,0,0-.26.26Zm16.98.32a.192.192,0,0,0,.18.14h.22a.192.192,0,0,0,.2-.14l3.6-12.18h.04L116.98.06a.193.193,0,0,0,.2.14h.22a.192.192,0,0,0,.18-.14l3.96-13.8c.04-.2-.04-.26-.22-.26h-.48a.256.256,0,0,0-.24.22L117.26-2.06h-.04l-3.54-11.96a.31.31,0,0,0-.3-.18h-.04a.31.31,0,0,0-.3.18L109.52-2.06h-.04l-3.36-11.72a.256.256,0,0,0-.24-.22h-.48c-.18,0-.26.06-.22.26Z" transform="translate(-2.12 14.2)" fill="#333"/>
</svg>
