<svg xmlns="http://www.w3.org/2000/svg" width="180.95" height="21.6" viewBox="0 0 180.95 21.6"><g transform="translate(-238 -1029.7)"><path d="M3.18-.39A.4.4,0,0,0,3.57,0h.54c.3,0,.48-.18.48-.39V-7.47h5.46a6.812,6.812,0,0,0,6.75-6.81A6.78,6.78,0,0,0,10.02-21H3.57a.4.4,0,0,0-.39.39ZM4.59-8.85V-19.59H9.93a5.386,5.386,0,0,1,5.46,5.28A5.474,5.474,0,0,1,9.96-8.85ZM24.6-.39a.4.4,0,0,0,.39.39h.54c.3,0,.48-.18.48-.39V-8.1h5.52c.39,0,.72,0,1.11-.03L36.99-.27a.425.425,0,0,0,.42.27h.93c.3,0,.36-.3.21-.54L34.17-8.31a6.566,6.566,0,0,0,4.95-6.27A6.508,6.508,0,0,0,32.43-21H24.99a.378.378,0,0,0-.39.39Zm1.44-8.97V-19.62h6.3a5.178,5.178,0,0,1,5.34,5.04,5.243,5.243,0,0,1-5.31,5.22ZM46.2-10.47A10.711,10.711,0,0,0,57,.3,10.718,10.718,0,0,0,67.83-10.47,10.787,10.787,0,0,0,57-21.3,10.781,10.781,0,0,0,46.2-10.47Zm1.32,0A9.487,9.487,0,0,1,57-19.98a9.513,9.513,0,0,1,9.51,9.51A9.462,9.462,0,0,1,57-1.02,9.436,9.436,0,0,1,47.52-10.47ZM72.36-1.95A5.775,5.775,0,0,0,76.95.3c3.57,0,5.82-2.43,5.82-6.63V-20.61a.4.4,0,0,0-.39-.39h-.6a.386.386,0,0,0-.42.39V-6.3c0,3.57-1.83,5.34-4.38,5.34a4.919,4.919,0,0,1-3.69-1.86.307.307,0,0,0-.51,0l-.39.36A.371.371,0,0,0,72.36-1.95ZM91.62-.39a.4.4,0,0,0,.39.39h12.03a.4.4,0,0,0,.39-.39V-.87a.4.4,0,0,0-.39-.39H93.06v-8.88h9.51a.4.4,0,0,0,.39-.39v-.51a.4.4,0,0,0-.39-.39H93.06v-8.28h10.98a.4.4,0,0,0,.39-.39v-.51a.4.4,0,0,0-.39-.39H92.01a.4.4,0,0,0-.39.39Zm19.95-10.08A10.762,10.762,0,0,0,122.43.3a10.366,10.366,0,0,0,7.32-2.91.345.345,0,0,0,0-.51l-.51-.51a.376.376,0,0,0-.48.06,9.511,9.511,0,0,1-6.33,2.52,9.366,9.366,0,0,1-9.36-9.42,9.4,9.4,0,0,1,9.36-9.48,9.371,9.371,0,0,1,6.33,2.46c.18.18.33.21.51.03l.48-.51a.382.382,0,0,0-.03-.54,10.278,10.278,0,0,0-7.29-2.79A10.832,10.832,0,0,0,111.57-10.47ZM141.39-.39a.4.4,0,0,0,.39.39h.54c.3,0,.48-.18.48-.39V-19.71h5.76a.378.378,0,0,0,.39-.39v-.51a.378.378,0,0,0-.39-.39h-12.9a.378.378,0,0,0-.39.39v.45c0,.27.09.45.39.45h5.73Z" transform="translate(270 1051)" fill="#333"/><path d="M25,1H0V-1H25Z" transform="translate(238 1048.5)" fill="#333"/></g></svg>