<svg xmlns="http://www.w3.org/2000/svg" width="159.14" height="21.6" viewBox="0 0 159.14 21.6"><g transform="translate(-484 -1065.7)"><path d="M3.18-.39A.4.4,0,0,0,3.57,0h.54c.3,0,.48-.18.48-.39V-7.47h5.46a6.812,6.812,0,0,0,6.75-6.81A6.78,6.78,0,0,0,10.02-21H3.57a.4.4,0,0,0-.39.39ZM4.59-8.85V-19.59H9.93a5.386,5.386,0,0,1,5.46,5.28A5.474,5.474,0,0,1,9.96-8.85ZM24.6-.39a.4.4,0,0,0,.39.39H37.02a.4.4,0,0,0,.39-.39V-.87a.4.4,0,0,0-.39-.39H26.04v-8.88h9.51a.4.4,0,0,0,.39-.39v-.51a.4.4,0,0,0-.39-.39H26.04v-8.28H37.02a.4.4,0,0,0,.39-.39v-.51a.4.4,0,0,0-.39-.39H24.99a.4.4,0,0,0-.39.39ZM44.55-10.47A10.711,10.711,0,0,0,55.35.3,10.718,10.718,0,0,0,66.18-10.47,10.787,10.787,0,0,0,55.35-21.3,10.781,10.781,0,0,0,44.55-10.47Zm1.32,0a9.487,9.487,0,0,1,9.48-9.51,9.513,9.513,0,0,1,9.51,9.51,9.462,9.462,0,0,1-9.51,9.45A9.436,9.436,0,0,1,45.87-10.47ZM74.64-.39a.4.4,0,0,0,.39.39h.54c.3,0,.48-.18.48-.39V-7.47h5.46a6.812,6.812,0,0,0,6.75-6.81A6.78,6.78,0,0,0,81.48-21H75.03a.4.4,0,0,0-.39.39Zm1.41-8.46V-19.59h5.34a5.386,5.386,0,0,1,5.46,5.28,5.474,5.474,0,0,1-5.43,5.46ZM96.06-.39a.4.4,0,0,0,.39.39h10.59a.349.349,0,0,0,.39-.33V-.87c0-.21-.03-.39-.39-.39H97.47V-20.61a.393.393,0,0,0-.36-.39h-.66a.4.4,0,0,0-.39.39Zm18.27,0a.4.4,0,0,0,.39.39h12.03a.4.4,0,0,0,.39-.39V-.87a.4.4,0,0,0-.39-.39H115.77v-8.88h9.51a.4.4,0,0,0,.39-.39v-.51a.4.4,0,0,0-.39-.39h-9.51v-8.28h10.98a.4.4,0,0,0,.39-.39v-.51a.4.4,0,0,0-.39-.39H114.72a.4.4,0,0,0-.39.39Z" transform="translate(516 1087)" fill="#333"/><path d="M25,1H0V-1H25Z" transform="translate(484 1084.5)" fill="#333"/></g></svg>