<svg xmlns="http://www.w3.org/2000/svg" width="146.36" height="21.6" viewBox="0 0 146.36 21.6"><g transform="translate(-238 -1029.7)"><path d="M9.24.03A.4.4,0,0,0,9.57.3h.15a.388.388,0,0,0,.36-.27l9.21-20.61c.12-.24,0-.42-.27-.42h-.78a.349.349,0,0,0-.33.21L9.72-2.16H9.66L1.56-20.79A.349.349,0,0,0,1.23-21H.42c-.27,0-.36.15-.24.39ZM26.31-.39A.4.4,0,0,0,26.7,0h.63a.4.4,0,0,0,.42-.39V-20.61a.4.4,0,0,0-.39-.39H26.7a.4.4,0,0,0-.39.39ZM36.54-2.16A9.772,9.772,0,0,0,42.9.3c3.45,0,6.54-2.34,6.54-5.34,0-3.48-2.61-4.92-6.72-6.33-3.03-.99-4.98-2.1-4.98-4.65,0-1.71,1.38-3.99,5.07-3.99a8.794,8.794,0,0,1,4.41,1.41.432.432,0,0,0,.66-.15,2.739,2.739,0,0,1,.24-.39.43.43,0,0,0-.12-.63,9.852,9.852,0,0,0-5.16-1.53c-4.68,0-6.48,3.06-6.48,5.31,0,3.45,2.31,4.68,5.79,5.91,3.63,1.23,5.82,2.43,5.82,5.1,0,2.19-2.31,4.02-5.04,4.02a8.726,8.726,0,0,1-5.55-2.31c-.24-.21-.45-.12-.66.12l-.27.36C36.21-2.46,36.36-2.31,36.54-2.16ZM57.6-.39a.4.4,0,0,0,.39.39h.63a.4.4,0,0,0,.42-.39V-20.61a.4.4,0,0,0-.39-.39h-.66a.4.4,0,0,0-.39.39Zm9.9-10.08A10.711,10.711,0,0,0,78.3.3,10.718,10.718,0,0,0,89.13-10.47,10.787,10.787,0,0,0,78.3-21.3,10.781,10.781,0,0,0,67.5-10.47Zm1.32,0a9.487,9.487,0,0,1,9.48-9.51,9.513,9.513,0,0,1,9.51,9.51A9.462,9.462,0,0,1,78.3-1.02,9.436,9.436,0,0,1,68.82-10.47ZM97.59-.39a.4.4,0,0,0,.39.39h.57a.4.4,0,0,0,.39-.39V-18.63h.03C113.22.21,113.46.3,113.49.3h.39c.24,0,.48-.12.48-.39V-20.61a.4.4,0,0,0-.39-.39h-.6a.4.4,0,0,0-.39.39V-2.55h-.03L98.55-21.3h-.51a.412.412,0,0,0-.45.39Z" transform="translate(270 1051)" fill="#333"/><path d="M25,1H0V-1H25Z" transform="translate(238 1048.5)" fill="#333"/></g></svg>