<svg xmlns="http://www.w3.org/2000/svg" width="181.34" height="21.6" viewBox="0 0 181.34 21.6"><g transform="translate(-238 -1029.7)"><path d="M1.68-10.47A10.762,10.762,0,0,0,12.54.3a10.366,10.366,0,0,0,7.32-2.91.345.345,0,0,0,0-.51l-.51-.51a.376.376,0,0,0-.48.06,9.511,9.511,0,0,1-6.33,2.52,9.366,9.366,0,0,1-9.36-9.42,9.4,9.4,0,0,1,9.36-9.48,9.371,9.371,0,0,1,6.33,2.46c.18.18.33.21.51.03l.48-.51a.382.382,0,0,0-.03-.54,10.278,10.278,0,0,0-7.29-2.79A10.832,10.832,0,0,0,1.68-10.47Zm26.4,2.82C28.08-3.06,31.17.3,35.91.3A7.559,7.559,0,0,0,43.8-7.65V-20.61a.4.4,0,0,0-.39-.39h-.6c-.3,0-.42.15-.42.39V-7.77c0,3.87-2.46,6.69-6.48,6.69-3.99,0-6.42-2.85-6.42-6.72V-20.61A.4.4,0,0,0,29.1-21h-.63a.4.4,0,0,0-.39.39ZM53.52-.39a.4.4,0,0,0,.39.39H64.5a.349.349,0,0,0,.39-.33V-.87c0-.21-.03-.39-.39-.39H54.93V-20.61a.393.393,0,0,0-.36-.39h-.66a.4.4,0,0,0-.39.39Zm20.13,0a.4.4,0,0,0,.39.39h.54c.3,0,.48-.18.48-.39V-19.71h5.76a.378.378,0,0,0,.39-.39v-.51a.378.378,0,0,0-.39-.39H67.92a.378.378,0,0,0-.39.39v.45c0,.27.09.45.39.45h5.73ZM87.99-7.65C87.99-3.06,91.08.3,95.82.3a7.559,7.559,0,0,0,7.89-7.95V-20.61a.4.4,0,0,0-.39-.39h-.6c-.3,0-.42.15-.42.39V-7.77c0,3.87-2.46,6.69-6.48,6.69-3.99,0-6.42-2.85-6.42-6.72V-20.61a.4.4,0,0,0-.39-.39h-.63a.4.4,0,0,0-.39.39ZM113.43-.39a.4.4,0,0,0,.39.39h.54c.3,0,.48-.18.48-.39V-8.1h5.52c.39,0,.72,0,1.11-.03l4.35,7.86a.425.425,0,0,0,.42.27h.93c.3,0,.36-.3.21-.54L123-8.31a6.566,6.566,0,0,0,4.95-6.27A6.508,6.508,0,0,0,121.26-21h-7.44a.378.378,0,0,0-.39.39Zm1.44-8.97V-19.62h6.3a5.178,5.178,0,0,1,5.34,5.04,5.243,5.243,0,0,1-5.31,5.22ZM136.53-.39a.4.4,0,0,0,.39.39h12.03a.4.4,0,0,0,.39-.39V-.87a.4.4,0,0,0-.39-.39H137.97v-8.88h9.51a.4.4,0,0,0,.39-.39v-.51a.4.4,0,0,0-.39-.39h-9.51v-8.28h10.98a.4.4,0,0,0,.39-.39v-.51a.4.4,0,0,0-.39-.39H136.92a.4.4,0,0,0-.39.39Z" transform="translate(270 1051)" fill="#333"/><path d="M25,1H0V-1H25Z" transform="translate(238 1048.5)" fill="#333"/></g></svg>