<svg xmlns="http://www.w3.org/2000/svg" width="105.126" height="10.08" viewBox="0 0 105.126 10.08">
  <path id="パス_894" data-name="パス 894" d="M1.484-.182A.185.185,0,0,0,1.666,0h.266a.185.185,0,0,0,.182-.182V-8.694h.014C8.778.1,8.89.14,8.9.14h.182C9.2.14,9.31.084,9.31-.042V-9.618A.185.185,0,0,0,9.128-9.8h-.28a.185.185,0,0,0-.182.182V-1.19H8.652L1.932-9.94H1.694a.192.192,0,0,0-.21.182Zm11.368-1.54A1.764,1.764,0,0,0,14.686.14a2.927,2.927,0,0,0,1.946-.8l.056.5c.028.1.07.154.168.154h.168a.185.185,0,0,0,.182-.182V-3.29c0-1.428-.07-2.45-1.778-2.45a4.053,4.053,0,0,0-1.918.42c-.07.028-.126.084-.084.21l.07.168a.146.146,0,0,0,.21.112,4.11,4.11,0,0,1,1.68-.378c1.106,0,1.232.616,1.232,1.848A4.606,4.606,0,0,0,15.2-3.612C13.734-3.612,12.852-2.8,12.852-1.722Zm.574-.014c0-.826.714-1.372,1.778-1.372a3.638,3.638,0,0,1,1.414.294v1.54a2.548,2.548,0,0,1-1.862.868A1.264,1.264,0,0,1,13.426-1.736Zm7.77.294c0,.9.1,1.582,1.26,1.582A2.786,2.786,0,0,0,24.08-.378a.161.161,0,0,0,.042-.238l-.1-.168c-.042-.07-.1-.126-.224-.056a2.99,2.99,0,0,1-1.274.378c-.658,0-.728-.364-.728-1.022v-3.57h1.946a.169.169,0,0,0,.182-.182v-.182a.176.176,0,0,0-.182-.182H21.8V-7.14a.185.185,0,0,0-.182-.182l-.238.014a.176.176,0,0,0-.182.182V-5.6h-.658c-.1,0-.168.042-.168.14v.224c0,.112.028.182.168.182H21.2Zm5.782.952a2.852,2.852,0,0,0,1.834.63A1.81,1.81,0,0,0,30.8-1.414c0-1.022-.924-1.372-1.974-1.764C28-3.472,27.5-3.738,27.5-4.3c0-.378.322-.9,1.2-.9a2.646,2.646,0,0,1,1.288.392.188.188,0,0,0,.266-.07l.084-.154a.2.2,0,0,0-.056-.266A2.957,2.957,0,0,0,28.7-5.74a1.625,1.625,0,0,0-1.834,1.456c0,.868.728,1.3,1.722,1.652.938.35,1.568.616,1.568,1.26,0,.546-.546.994-1.344.994a2.487,2.487,0,0,1-1.5-.546.163.163,0,0,0-.252.014l-.14.224A.155.155,0,0,0,26.978-.49ZM34.02-2.408c0,1.582.672,2.548,2.24,2.548a2.551,2.551,0,0,0,1.932-.854l.056.546c.014.084.056.168.168.168h.168a.185.185,0,0,0,.182-.182V-5.418a.185.185,0,0,0-.182-.182h-.252a.169.169,0,0,0-.182.182v3.99a2.332,2.332,0,0,1-1.848.98c-1.064,0-1.666-.658-1.666-1.96v-3.01a.185.185,0,0,0-.182-.182H34.2a.185.185,0,0,0-.182.182ZM42.574-.182A.163.163,0,0,0,42.728,0h.266a.163.163,0,0,0,.182-.182V-2.9L46.41-.112A.4.4,0,0,0,46.69,0h.434a.13.13,0,0,0,.07-.238l-3.374-2.9,3.01-2.212c.112-.07.1-.252-.042-.252h-.406a.372.372,0,0,0-.224.084l-2.982,2.17V-9.618a.185.185,0,0,0-.182-.182h-.238a.185.185,0,0,0-.182.182ZM49.7-2.814A2.865,2.865,0,0,0,52.514.14a2.873,2.873,0,0,0,2.814-2.954A2.875,2.875,0,0,0,52.514-5.74,2.866,2.866,0,0,0,49.7-2.814Zm.6,0a2.264,2.264,0,0,1,2.212-2.338,2.262,2.262,0,0,1,2.2,2.338,2.273,2.273,0,0,1-2.2,2.38A2.275,2.275,0,0,1,50.3-2.814ZM63.308-1.008A4.56,4.56,0,0,0,66.276.14c1.61,0,3.052-1.092,3.052-2.492,0-1.624-1.218-2.3-3.136-2.954-1.414-.462-2.324-.98-2.324-2.17,0-.8.644-1.862,2.366-1.862a4.1,4.1,0,0,1,2.058.658.2.2,0,0,0,.308-.07,1.278,1.278,0,0,1,.112-.182.2.2,0,0,0-.056-.294,4.6,4.6,0,0,0-2.408-.714c-2.184,0-3.024,1.428-3.024,2.478,0,1.61,1.078,2.184,2.7,2.758,1.694.574,2.716,1.134,2.716,2.38A2.181,2.181,0,0,1,66.29-.448,4.072,4.072,0,0,1,63.7-1.526c-.112-.1-.21-.056-.308.056l-.126.168C63.154-1.148,63.224-1.078,63.308-1.008Zm8.96-.714A1.764,1.764,0,0,0,74.1.14a2.927,2.927,0,0,0,1.946-.8l.056.5c.028.1.07.154.168.154h.168a.185.185,0,0,0,.182-.182V-3.29c0-1.428-.07-2.45-1.778-2.45a4.053,4.053,0,0,0-1.918.42c-.07.028-.126.084-.084.21l.07.168a.146.146,0,0,0,.21.112,4.11,4.11,0,0,1,1.68-.378c1.106,0,1.232.616,1.232,1.848a4.606,4.606,0,0,0-1.414-.252C73.15-3.612,72.268-2.8,72.268-1.722Zm.574-.014c0-.826.714-1.372,1.778-1.372a3.638,3.638,0,0,1,1.414.294v1.54a2.548,2.548,0,0,1-1.862.868A1.264,1.264,0,0,1,72.842-1.736ZM81.466.014a.152.152,0,0,0,.168.126h.056a.176.176,0,0,0,.168-.126L83.538-4.7h.014L85.246.014a.176.176,0,0,0,.168.126h.056a.152.152,0,0,0,.168-.126l1.68-5.39c.042-.126.042-.224-.084-.224h-.308a.175.175,0,0,0-.182.126l-1.316,4.41h-.014l-1.666-4.55a.176.176,0,0,0-.168-.126h-.056a.152.152,0,0,0-.168.126L81.69-1.064h-.014L80.36-5.474a.175.175,0,0,0-.182-.126H79.87c-.126,0-.126.1-.084.224ZM90.09-1.722A1.764,1.764,0,0,0,91.924.14a2.927,2.927,0,0,0,1.946-.8l.056.5c.028.1.07.154.168.154h.168a.185.185,0,0,0,.182-.182V-3.29c0-1.428-.07-2.45-1.778-2.45a4.053,4.053,0,0,0-1.918.42c-.07.028-.126.084-.084.21l.07.168a.146.146,0,0,0,.21.112,4.11,4.11,0,0,1,1.68-.378c1.106,0,1.232.616,1.232,1.848a4.606,4.606,0,0,0-1.414-.252C90.972-3.612,90.09-2.8,90.09-1.722Zm.574-.014c0-.826.714-1.372,1.778-1.372a3.638,3.638,0,0,1,1.414.294v1.54a2.548,2.548,0,0,1-1.862.868A1.264,1.264,0,0,1,90.664-1.736ZM98.2-.182A.163.163,0,0,0,98.35,0h.266A.163.163,0,0,0,98.8-.182V-2.9l3.234,2.786a.4.4,0,0,0,.28.112h.434a.13.13,0,0,0,.07-.238l-3.374-2.9,3.01-2.212c.112-.07.1-.252-.042-.252H102a.372.372,0,0,0-.224.084L98.8-3.346V-9.618a.185.185,0,0,0-.182-.182h-.238a.185.185,0,0,0-.182.182Zm7.938-8.162a.469.469,0,0,0,.476-.462.484.484,0,0,0-.476-.49.484.484,0,0,0-.476.49A.469.469,0,0,0,106.134-8.344Zm-.308,8.162A.163.163,0,0,0,105.98,0h.28a.163.163,0,0,0,.182-.182V-5.418a.185.185,0,0,0-.182-.182h-.252a.185.185,0,0,0-.182.182Z" transform="translate(-1.484 9.94)" fill="#333"/>
</svg>
