<svg xmlns="http://www.w3.org/2000/svg" width="127.344" height="9.94" viewBox="0 0 127.344 9.94">
  <path id="パス_895" data-name="パス 895" d="M2.968-.182A.185.185,0,0,0,3.15,0H3.4c.14,0,.224-.084.224-.182V-9.2H6.314A.176.176,0,0,0,6.5-9.38v-.238A.176.176,0,0,0,6.314-9.8H.294a.176.176,0,0,0-.182.182v.21c0,.126.042.21.182.21H2.968Zm4.69-1.54A1.764,1.764,0,0,0,9.492.14a2.927,2.927,0,0,0,1.946-.8l.056.5c.028.1.07.154.168.154h.168a.185.185,0,0,0,.182-.182V-3.29c0-1.428-.07-2.45-1.778-2.45a4.053,4.053,0,0,0-1.918.42c-.07.028-.126.084-.084.21l.07.168a.146.146,0,0,0,.21.112,4.11,4.11,0,0,1,1.68-.378c1.106,0,1.232.616,1.232,1.848a4.606,4.606,0,0,0-1.414-.252C8.54-3.612,7.658-2.8,7.658-1.722Zm.574-.014c0-.826.714-1.372,1.778-1.372a3.638,3.638,0,0,1,1.414.294v1.54a2.548,2.548,0,0,1-1.862.868A1.264,1.264,0,0,1,8.232-1.736ZM15.764-.182A.163.163,0,0,0,15.918,0h.266a.163.163,0,0,0,.182-.182V-2.9L19.6-.112A.4.4,0,0,0,19.88,0h.434a.13.13,0,0,0,.07-.238l-3.374-2.9,3.01-2.212c.112-.07.1-.252-.042-.252h-.406a.372.372,0,0,0-.224.084l-2.982,2.17V-9.618a.185.185,0,0,0-.182-.182h-.238a.185.185,0,0,0-.182.182Zm7.14-1.54A1.764,1.764,0,0,0,24.738.14a2.927,2.927,0,0,0,1.946-.8l.056.5c.028.1.07.154.168.154h.168a.185.185,0,0,0,.182-.182V-3.29c0-1.428-.07-2.45-1.778-2.45a4.053,4.053,0,0,0-1.918.42c-.07.028-.126.084-.084.21l.07.168a.146.146,0,0,0,.21.112,4.11,4.11,0,0,1,1.68-.378c1.106,0,1.232.616,1.232,1.848a4.606,4.606,0,0,0-1.414-.252C23.786-3.612,22.9-2.8,22.9-1.722Zm.574-.014c0-.826.714-1.372,1.778-1.372a3.638,3.638,0,0,1,1.414.294v1.54a2.548,2.548,0,0,1-1.862.868A1.264,1.264,0,0,1,23.478-1.736Zm7.084.014A1.764,1.764,0,0,0,32.4.14a2.927,2.927,0,0,0,1.946-.8l.056.5c.028.1.07.154.168.154h.168a.185.185,0,0,0,.182-.182V-3.29c0-1.428-.07-2.45-1.778-2.45a4.053,4.053,0,0,0-1.918.42c-.07.028-.126.084-.084.21l.07.168a.146.146,0,0,0,.21.112,4.11,4.11,0,0,1,1.68-.378c1.106,0,1.232.616,1.232,1.848a4.606,4.606,0,0,0-1.414-.252C31.444-3.612,30.562-2.8,30.562-1.722Zm.574-.014c0-.826.714-1.372,1.778-1.372a3.638,3.638,0,0,1,1.414.294v1.54a2.548,2.548,0,0,1-1.862.868A1.264,1.264,0,0,1,31.136-1.736ZM38.668-.182A.163.163,0,0,0,38.822,0h.266a.163.163,0,0,0,.182-.182V-2.9L42.5-.112a.4.4,0,0,0,.28.112h.434a.13.13,0,0,0,.07-.238l-3.374-2.9,3.01-2.212c.112-.07.1-.252-.042-.252h-.406a.372.372,0,0,0-.224.084L39.27-3.346V-9.618a.185.185,0,0,0-.182-.182H38.85a.185.185,0,0,0-.182.182Zm7.938-8.162a.469.469,0,0,0,.476-.462.484.484,0,0,0-.476-.49.484.484,0,0,0-.476.49A.469.469,0,0,0,46.606-8.344ZM46.3-.182A.163.163,0,0,0,46.452,0h.28a.163.163,0,0,0,.182-.182V-5.418a.185.185,0,0,0-.182-.182H46.48a.185.185,0,0,0-.182.182Zm9.562,0A.185.185,0,0,0,56.042,0h.294a.176.176,0,0,0,.182-.182v-4.55H62.8v4.55A.185.185,0,0,0,62.986,0h.294a.176.176,0,0,0,.182-.182V-9.618A.176.176,0,0,0,63.28-9.8h-.294a.185.185,0,0,0-.182.182v4.3H56.518v-4.3a.176.176,0,0,0-.182-.182h-.294a.185.185,0,0,0-.182.182ZM67-1.722A1.764,1.764,0,0,0,68.838.14a2.927,2.927,0,0,0,1.946-.8l.056.5c.028.1.07.154.168.154h.168a.185.185,0,0,0,.182-.182V-3.29c0-1.428-.07-2.45-1.778-2.45a4.053,4.053,0,0,0-1.918.42c-.07.028-.126.084-.084.21l.07.168a.146.146,0,0,0,.21.112,4.11,4.11,0,0,1,1.68-.378c1.106,0,1.232.616,1.232,1.848a4.606,4.606,0,0,0-1.414-.252C67.886-3.612,67-2.8,67-1.722Zm.574-.014c0-.826.714-1.372,1.778-1.372a3.638,3.638,0,0,1,1.414.294v1.54a2.548,2.548,0,0,1-1.862.868A1.264,1.264,0,0,1,67.578-1.736ZM74.844-.49a2.853,2.853,0,0,0,1.834.63,1.81,1.81,0,0,0,1.988-1.554c0-1.022-.924-1.372-1.974-1.764-.826-.294-1.33-.56-1.33-1.12,0-.378.322-.9,1.2-.9a2.646,2.646,0,0,1,1.288.392.188.188,0,0,0,.266-.07l.084-.154a.2.2,0,0,0-.056-.266,2.957,2.957,0,0,0-1.582-.448,1.625,1.625,0,0,0-1.834,1.456c0,.868.728,1.3,1.722,1.652.938.35,1.568.616,1.568,1.26,0,.546-.546.994-1.344.994a2.486,2.486,0,0,1-1.5-.546.163.163,0,0,0-.252.014l-.14.224A.155.155,0,0,0,74.844-.49Zm7.126.308A.163.163,0,0,0,82.124,0h.266a.163.163,0,0,0,.182-.182V-4.158a2.826,2.826,0,0,1,2-.98c1.064,0,1.666.672,1.666,1.96v3A.185.185,0,0,0,86.422,0h.252a.185.185,0,0,0,.182-.182v-3c0-1.666-.8-2.562-2.254-2.562a2.95,2.95,0,0,0-2.03.9V-9.618A.185.185,0,0,0,82.39-9.8h-.224a.189.189,0,0,0-.2.182Zm8.918-8.162a.469.469,0,0,0,.476-.462.484.484,0,0,0-.476-.49.484.484,0,0,0-.476.49A.469.469,0,0,0,90.888-8.344ZM90.58-.182A.163.163,0,0,0,90.734,0h.28A.163.163,0,0,0,91.2-.182V-5.418a.185.185,0,0,0-.182-.182h-.252a.185.185,0,0,0-.182.182ZM95-.182A.163.163,0,0,0,95.158,0h.28a.163.163,0,0,0,.182-.182v-3.99a2.257,2.257,0,0,1,1.82-.966c1.05,0,1.624.672,1.624,1.96v3A.166.166,0,0,0,99.232,0H99.5a.185.185,0,0,0,.182-.182v-3a3.675,3.675,0,0,0-.126-1.008,2.4,2.4,0,0,1,1.848-.952c1.05,0,1.61.672,1.61,1.96v3a.164.164,0,0,0,.154.182h.28a.185.185,0,0,0,.182-.182v-3c0-1.568-.658-2.562-2.184-2.562a2.836,2.836,0,0,0-2.1,1.022A1.943,1.943,0,0,0,97.51-5.74a2.442,2.442,0,0,0-1.932.882l-.07-.6a.153.153,0,0,0-.154-.14h-.168A.185.185,0,0,0,95-5.418Zm11.942-2.632A2.865,2.865,0,0,0,109.76.14a2.874,2.874,0,0,0,2.814-2.954A2.875,2.875,0,0,0,109.76-5.74,2.866,2.866,0,0,0,106.946-2.814Zm.6,0a2.264,2.264,0,0,1,2.212-2.338,2.262,2.262,0,0,1,2.2,2.338,2.273,2.273,0,0,1-2.2,2.38A2.275,2.275,0,0,1,107.548-2.814ZM116.2-1.442c0,.9.1,1.582,1.26,1.582a2.786,2.786,0,0,0,1.624-.518.161.161,0,0,0,.042-.238l-.1-.168c-.042-.07-.1-.126-.224-.056a2.99,2.99,0,0,1-1.274.378c-.658,0-.728-.364-.728-1.022v-3.57h1.946a.169.169,0,0,0,.182-.182v-.182a.176.176,0,0,0-.182-.182H116.8V-7.14a.185.185,0,0,0-.182-.182l-.238.014a.176.176,0,0,0-.182.182V-5.6h-.658c-.1,0-.168.042-.168.14v.224c0,.112.028.182.168.182h.658Zm5.628-1.372A2.865,2.865,0,0,0,124.642.14a2.874,2.874,0,0,0,2.814-2.954,2.875,2.875,0,0,0-2.814-2.926A2.866,2.866,0,0,0,121.828-2.814Zm.6,0a2.264,2.264,0,0,1,2.212-2.338,2.262,2.262,0,0,1,2.2,2.338,2.273,2.273,0,0,1-2.2,2.38A2.275,2.275,0,0,1,122.43-2.814Z" transform="translate(-0.112 9.8)" fill="#333"/>
</svg>
