<svg xmlns="http://www.w3.org/2000/svg" width="12.642" height="61.236" viewBox="0 0 12.642 61.236">
  <path id="パス_919" data-name="パス 919" d="M.784-4.886A5,5,0,0,0,5.824.14,5.472,5.472,0,0,0,7.1-.014L8.652,2.562c.07.112.14.14.182.14H9.3c.112,0,.14-.14.1-.21L7.728-.224a4.971,4.971,0,0,0,3.15-4.662A5.034,5.034,0,0,0,5.824-9.94,5.031,5.031,0,0,0,.784-4.886Zm.616,0A4.427,4.427,0,0,1,5.824-9.324a4.439,4.439,0,0,1,4.438,4.438A4.416,4.416,0,0,1,5.824-.476,4.4,4.4,0,0,1,1.4-4.886ZM14.2-2.408c0,1.582.672,2.548,2.24,2.548a2.551,2.551,0,0,0,1.932-.854l.056.546c.014.084.056.168.168.168h.168a.185.185,0,0,0,.182-.182V-5.418A.185.185,0,0,0,18.76-5.6h-.252a.169.169,0,0,0-.182.182v3.99a2.332,2.332,0,0,1-1.848.98c-1.064,0-1.666-.658-1.666-1.96v-3.01A.185.185,0,0,0,14.63-5.6h-.252a.185.185,0,0,0-.182.182Zm8.148-.406A2.744,2.744,0,0,0,25.1.14a3.386,3.386,0,0,0,2.03-.658c.084-.084.1-.168.056-.224l-.14-.2c-.07-.1-.126-.084-.252,0a2.988,2.988,0,0,1-1.652.518A2.211,2.211,0,0,1,22.96-2.632h4.466c.21,0,.21-.322.21-.546A2.464,2.464,0,0,0,25.1-5.74,2.744,2.744,0,0,0,22.344-2.814Zm.63-.322A2.083,2.083,0,0,1,25.1-5.18,1.884,1.884,0,0,1,27.02-3.136ZM30.7-.49a2.852,2.852,0,0,0,1.834.63,1.81,1.81,0,0,0,1.988-1.554c0-1.022-.924-1.372-1.974-1.764-.826-.294-1.33-.56-1.33-1.12,0-.378.322-.9,1.2-.9a2.646,2.646,0,0,1,1.288.392.188.188,0,0,0,.266-.07l.084-.154a.2.2,0,0,0-.056-.266,2.957,2.957,0,0,0-1.582-.448A1.625,1.625,0,0,0,30.59-4.284c0,.868.728,1.3,1.722,1.652.938.35,1.568.616,1.568,1.26,0,.546-.546.994-1.344.994a2.487,2.487,0,0,1-1.5-.546.163.163,0,0,0-.252.014l-.14.224A.155.155,0,0,0,30.7-.49Zm7.364-.952c0,.9.1,1.582,1.26,1.582A2.786,2.786,0,0,0,40.95-.378a.161.161,0,0,0,.042-.238l-.1-.168c-.042-.07-.1-.126-.224-.056A2.99,2.99,0,0,1,39.4-.462c-.658,0-.728-.364-.728-1.022v-3.57h1.946a.169.169,0,0,0,.182-.182v-.182a.176.176,0,0,0-.182-.182H38.668V-7.14a.185.185,0,0,0-.182-.182l-.238.014a.176.176,0,0,0-.182.182V-5.6h-.658c-.1,0-.168.042-.168.14v.224c0,.112.028.182.168.182h.658Zm6.356-6.9a.469.469,0,0,0,.476-.462.484.484,0,0,0-.476-.49.484.484,0,0,0-.476.49A.469.469,0,0,0,44.422-8.344ZM44.114-.182A.163.163,0,0,0,44.268,0h.28a.163.163,0,0,0,.182-.182V-5.418a.185.185,0,0,0-.182-.182H44.3a.185.185,0,0,0-.182.182Zm4-2.632A2.865,2.865,0,0,0,50.932.14a2.873,2.873,0,0,0,2.814-2.954A2.875,2.875,0,0,0,50.932-5.74,2.866,2.866,0,0,0,48.118-2.814Zm.6,0a2.264,2.264,0,0,1,2.212-2.338,2.262,2.262,0,0,1,2.2,2.338,2.273,2.273,0,0,1-2.2,2.38A2.275,2.275,0,0,1,48.72-2.814ZM57.134-.182A.163.163,0,0,0,57.288,0h.266a.163.163,0,0,0,.182-.182v-3.99a2.87,2.87,0,0,1,2-.966c1.064,0,1.666.672,1.666,1.96v3A.185.185,0,0,0,61.586,0h.252a.185.185,0,0,0,.182-.182v-3c0-1.568-.686-2.562-2.254-2.562a2.992,2.992,0,0,0-2.072.882l-.056-.6a.157.157,0,0,0-.168-.14h-.14a.189.189,0,0,0-.2.182Z" transform="translate(2.702 -0.784) rotate(90)" fill="#16344f"/>
</svg>
