<svg xmlns="http://www.w3.org/2000/svg" width="74.827" height="14.28" viewBox="0 0 74.827 14.28"><path d="M3.542-.182c0,.224.294.182.476.182A.185.185,0,0,0,4.2-.182V-4.774L7.84-9.59c.084-.112.028-.21-.112-.21h-.42a.226.226,0,0,0-.182.084L3.878-5.362.686-9.716A.226.226,0,0,0,.5-9.8H.084c-.14,0-.2.1-.112.21l3.57,4.83ZM9.366-2.408c0,1.582.672,2.548,2.24,2.548a2.551,2.551,0,0,0,1.932-.854l.056.546c.014.084.056.168.168.168h.168a.185.185,0,0,0,.182-.182V-5.418A.185.185,0,0,0,13.93-5.6h-.252a.169.169,0,0,0-.182.182v3.99a2.332,2.332,0,0,1-1.848.98c-1.064,0-1.666-.658-1.666-1.96v-3.01A.185.185,0,0,0,9.8-5.6H9.548a.185.185,0,0,0-.182.182Zm8.862-5.936a.469.469,0,0,0,.476-.462.484.484,0,0,0-.476-.49.484.484,0,0,0-.476.49A.469.469,0,0,0,18.228-8.344ZM17.92-.182A.163.163,0,0,0,18.074,0h.28a.163.163,0,0,0,.182-.182V-5.418a.185.185,0,0,0-.182-.182H18.1a.185.185,0,0,0-.182.182Zm4-2.618A2.922,2.922,0,0,0,24.864.14a2.789,2.789,0,0,0,2.2-1.078c.056-.084.028-.154-.042-.224l-.154-.14c-.084-.084-.168-.084-.266.028a2.262,2.262,0,0,1-1.75.826,2.313,2.313,0,0,1-2.3-2.366,2.289,2.289,0,0,1,2.31-2.324,2.307,2.307,0,0,1,1.61.644c.084.084.2.126.294.028l.14-.14a.168.168,0,0,0,.028-.252,2.706,2.706,0,0,0-2.072-.882A2.93,2.93,0,0,0,21.924-2.8ZM30.45-.182A.163.163,0,0,0,30.6,0h.266a.163.163,0,0,0,.182-.182V-4.158a2.826,2.826,0,0,1,2-.98c1.064,0,1.666.672,1.666,1.96v3A.185.185,0,0,0,34.9,0h.252a.185.185,0,0,0,.182-.182v-3c0-1.666-.8-2.562-2.254-2.562a2.95,2.95,0,0,0-2.03.9V-9.618A.185.185,0,0,0,30.87-9.8h-.224a.189.189,0,0,0-.2.182Zm8.918-8.162a.469.469,0,0,0,.476-.462.484.484,0,0,0-.476-.49.484.484,0,0,0-.476.49A.469.469,0,0,0,39.368-8.344ZM39.06-.182A.163.163,0,0,0,39.214,0h.28a.163.163,0,0,0,.182-.182V-5.418a.185.185,0,0,0-.182-.182h-.252a.185.185,0,0,0-.182.182Zm9.016-.826A4.56,4.56,0,0,0,51.044.14C52.654.14,54.1-.952,54.1-2.352c0-1.624-1.218-2.3-3.136-2.954-1.414-.462-2.324-.98-2.324-2.17,0-.8.644-1.862,2.366-1.862a4.1,4.1,0,0,1,2.058.658.2.2,0,0,0,.308-.07,1.278,1.278,0,0,1,.112-.182.2.2,0,0,0-.056-.294,4.6,4.6,0,0,0-2.408-.714c-2.184,0-3.024,1.428-3.024,2.478,0,1.61,1.078,2.184,2.7,2.758,1.694.574,2.716,1.134,2.716,2.38A2.181,2.181,0,0,1,51.058-.448a4.072,4.072,0,0,1-2.59-1.078c-.112-.1-.21-.056-.308.056l-.126.168C47.922-1.148,47.992-1.078,48.076-1.008Zm8.96-.714A1.764,1.764,0,0,0,58.87.14a2.927,2.927,0,0,0,1.946-.8l.056.5c.028.1.07.154.168.154h.168a.185.185,0,0,0,.182-.182V-3.29c0-1.428-.07-2.45-1.778-2.45a4.053,4.053,0,0,0-1.918.42c-.07.028-.126.084-.084.21l.07.168a.146.146,0,0,0,.21.112,4.11,4.11,0,0,1,1.68-.378c1.106,0,1.232.616,1.232,1.848a4.606,4.606,0,0,0-1.414-.252C57.918-3.612,57.036-2.8,57.036-1.722Zm.574-.014c0-.826.714-1.372,1.778-1.372a3.638,3.638,0,0,1,1.414.294v1.54a2.548,2.548,0,0,1-1.862.868A1.264,1.264,0,0,1,57.61-1.736Zm7.84-6.608a.469.469,0,0,0,.476-.462.484.484,0,0,0-.476-.49.484.484,0,0,0-.476.49A.469.469,0,0,0,65.45-8.344ZM65.142-.182A.163.163,0,0,0,65.3,0h.28a.163.163,0,0,0,.182-.182V-5.418a.185.185,0,0,0-.182-.182h-.252a.185.185,0,0,0-.182.182ZM69.86-8.344a.469.469,0,0,0,.476-.462.484.484,0,0,0-.476-.49.484.484,0,0,0-.476.49A.469.469,0,0,0,69.86-8.344ZM69.566,1.918c0,1.3-.56,1.862-1.442,1.862a2.084,2.084,0,0,1-1.218-.462c-.084-.084-.182-.084-.238,0l-.14.224c-.042.056-.056.112.028.2a2.377,2.377,0,0,0,1.568.6c1.232,0,2.044-.77,2.044-2.422V-5.418a.185.185,0,0,0-.182-.182h-.238a.185.185,0,0,0-.182.182ZM74.284-8.344a.469.469,0,0,0,.476-.462.484.484,0,0,0-.476-.49.484.484,0,0,0-.476.49A.469.469,0,0,0,74.284-8.344ZM73.976-.182A.163.163,0,0,0,74.13,0h.28a.163.163,0,0,0,.182-.182V-5.418A.185.185,0,0,0,74.41-5.6h-.252a.185.185,0,0,0-.182.182Z" transform="translate(0.067 9.94)" fill="#333"/></svg>