<svg xmlns="http://www.w3.org/2000/svg" width="87.57" height="10.08" viewBox="0 0 87.57 10.08"><path d="M1.484-.182A.185.185,0,0,0,1.666,0H1.96a.176.176,0,0,0,.182-.182v-4.55H8.428v4.55A.185.185,0,0,0,8.61,0H8.9a.176.176,0,0,0,.182-.182V-9.618A.176.176,0,0,0,8.9-9.8H8.61a.185.185,0,0,0-.182.182v4.3H2.142v-4.3A.176.176,0,0,0,1.96-9.8H1.666a.185.185,0,0,0-.182.182Zm11.144-1.54A1.764,1.764,0,0,0,14.462.14a2.927,2.927,0,0,0,1.946-.8l.056.5c.028.1.07.154.168.154H16.8a.185.185,0,0,0,.182-.182V-3.29c0-1.428-.07-2.45-1.778-2.45a4.053,4.053,0,0,0-1.918.42c-.07.028-.126.084-.084.21l.07.168a.146.146,0,0,0,.21.112,4.11,4.11,0,0,1,1.68-.378c1.106,0,1.232.616,1.232,1.848a4.606,4.606,0,0,0-1.414-.252C13.51-3.612,12.628-2.8,12.628-1.722Zm.574-.014c0-.826.714-1.372,1.778-1.372a3.638,3.638,0,0,1,1.414.294v1.54a2.548,2.548,0,0,1-1.862.868A1.264,1.264,0,0,1,13.2-1.736ZM20.734-.182A.163.163,0,0,0,20.888,0h.28a.163.163,0,0,0,.182-.182v-3.99a1.967,1.967,0,0,1,1.666-.966,1.781,1.781,0,0,1,.728.168c.1.042.182.028.224-.07l.112-.28c.042-.112-.028-.21-.154-.252a2.317,2.317,0,0,0-.868-.168,2.148,2.148,0,0,0-1.75.868l-.056-.574a.167.167,0,0,0-.168-.154h-.168a.185.185,0,0,0-.182.182Zm6.132-2.226c0,1.582.672,2.548,2.24,2.548a2.551,2.551,0,0,0,1.932-.854l.056.546c.014.084.056.168.168.168h.168a.185.185,0,0,0,.182-.182V-5.418A.185.185,0,0,0,31.43-5.6h-.252A.169.169,0,0,0,31-5.418v3.99a2.332,2.332,0,0,1-1.848.98c-1.064,0-1.666-.658-1.666-1.96v-3.01A.185.185,0,0,0,27.3-5.6h-.252a.185.185,0,0,0-.182.182ZM35.42-.182A.163.163,0,0,0,35.574,0h.266a.163.163,0,0,0,.182-.182V-2.9L39.256-.112a.4.4,0,0,0,.28.112h.434a.13.13,0,0,0,.07-.238l-3.374-2.9,3.01-2.212c.112-.07.1-.252-.042-.252h-.406A.372.372,0,0,0,39-5.516l-2.982,2.17V-9.618A.185.185,0,0,0,35.84-9.8H35.6a.185.185,0,0,0-.182.182Zm7.14-1.54A1.764,1.764,0,0,0,44.394.14a2.927,2.927,0,0,0,1.946-.8l.056.5c.028.1.07.154.168.154h.168a.185.185,0,0,0,.182-.182V-3.29c0-1.428-.07-2.45-1.778-2.45a4.053,4.053,0,0,0-1.918.42c-.07.028-.126.084-.084.21l.07.168a.146.146,0,0,0,.21.112,4.11,4.11,0,0,1,1.68-.378c1.106,0,1.232.616,1.232,1.848a4.606,4.606,0,0,0-1.414-.252C43.442-3.612,42.56-2.8,42.56-1.722Zm.574-.014c0-.826.714-1.372,1.778-1.372a3.638,3.638,0,0,1,1.414.294v1.54a2.548,2.548,0,0,1-1.862.868A1.264,1.264,0,0,1,43.134-1.736ZM57.638.042a.134.134,0,0,0,.126.1h.154a.135.135,0,0,0,.14-.1l2.52-8.526h.028L63.126.042a.135.135,0,0,0,.14.1h.154a.134.134,0,0,0,.126-.1l2.772-9.66c.028-.14-.028-.182-.154-.182h-.336a.179.179,0,0,0-.168.154l-2.338,8.2h-.028L60.816-9.814a.217.217,0,0,0-.21-.126h-.028a.217.217,0,0,0-.21.126L57.9-1.442h-.028l-2.352-8.2a.179.179,0,0,0-.168-.154H55.02c-.126,0-.182.042-.154.182Zm10.92-1.764A1.764,1.764,0,0,0,70.392.14a2.927,2.927,0,0,0,1.946-.8l.056.5c.028.1.07.154.168.154h.168a.185.185,0,0,0,.182-.182V-3.29c0-1.428-.07-2.45-1.778-2.45a4.053,4.053,0,0,0-1.918.42c-.07.028-.126.084-.084.21l.07.168a.146.146,0,0,0,.21.112,4.11,4.11,0,0,1,1.68-.378c1.106,0,1.232.616,1.232,1.848a4.606,4.606,0,0,0-1.414-.252C69.44-3.612,68.558-2.8,68.558-1.722Zm.574-.014c0-.826.714-1.372,1.778-1.372a3.638,3.638,0,0,1,1.414.294v1.54a2.548,2.548,0,0,1-1.862.868A1.264,1.264,0,0,1,69.132-1.736ZM76.258-2.8A2.756,2.756,0,0,0,78.848.14,2.714,2.714,0,0,0,80.78-.672l.042.49a.18.18,0,0,0,.2.182h.14a.185.185,0,0,0,.182-.182V-9.618a.183.183,0,0,0-.168-.182H80.92a.176.176,0,0,0-.182.182V-5.18a2.825,2.825,0,0,0-1.722-.56A2.79,2.79,0,0,0,76.258-2.8Zm.616,0a2.2,2.2,0,0,1,2.2-2.338,2.635,2.635,0,0,1,1.666.588v3.136A2.223,2.223,0,0,1,78.89-.42,2.187,2.187,0,0,1,76.874-2.8ZM84.7-1.722A1.764,1.764,0,0,0,86.534.14a2.927,2.927,0,0,0,1.946-.8l.056.5c.028.1.07.154.168.154h.168a.185.185,0,0,0,.182-.182V-3.29c0-1.428-.07-2.45-1.778-2.45a4.053,4.053,0,0,0-1.918.42c-.07.028-.126.084-.084.21l.07.168a.146.146,0,0,0,.21.112,4.11,4.11,0,0,1,1.68-.378c1.106,0,1.232.616,1.232,1.848a4.606,4.606,0,0,0-1.414-.252C85.582-3.612,84.7-2.8,84.7-1.722Zm.574-.014c0-.826.714-1.372,1.778-1.372a3.638,3.638,0,0,1,1.414.294v1.54A2.548,2.548,0,0,1,86.6-.406,1.264,1.264,0,0,1,85.274-1.736Z" transform="translate(-1.484 9.94)" fill="#333"/></svg>