<svg xmlns="http://www.w3.org/2000/svg" width="147.394" height="56.75" viewBox="0 0 147.394 56.75"><g transform="translate(0 -6.458)"><rect width="147.394" height="56.75" transform="translate(0 6.458)" fill="#16344f"/><path d="M3.6-.442A.45.45,0,0,0,4.046,0h.612C5,0,5.2-.2,5.2-.442V-8.466H11.39a7.72,7.72,0,0,0,7.65-7.718A7.684,7.684,0,0,0,11.356-23.8H4.046a.45.45,0,0,0-.442.442ZM5.2-10.03V-22.2h6.052a6.1,6.1,0,0,1,6.188,5.984,6.2,6.2,0,0,1-6.154,6.188ZM26.18-.442A.4.4,0,0,0,26.554,0h.68a.4.4,0,0,0,.442-.442v-9.69a4.778,4.778,0,0,1,4.046-2.346,4.326,4.326,0,0,1,1.768.408c.238.1.442.068.544-.17l.272-.68c.1-.272-.068-.51-.374-.612a5.628,5.628,0,0,0-2.108-.408,5.217,5.217,0,0,0-4.25,2.108l-.136-1.394a.406.406,0,0,0-.408-.374h-.408a.45.45,0,0,0-.442.442ZM40.154-6.834A6.957,6.957,0,0,0,46.988.34a6.978,6.978,0,0,0,6.834-7.174,6.983,6.983,0,0,0-6.834-7.106A6.961,6.961,0,0,0,40.154-6.834Zm1.462,0a5.5,5.5,0,0,1,5.372-5.678,5.492,5.492,0,0,1,5.338,5.678,5.52,5.52,0,0,1-5.338,5.78A5.526,5.526,0,0,1,41.616-6.834ZM62.9-.442A.45.45,0,0,0,63.342,0h.612A.45.45,0,0,0,64.4-.442V-12.274h5.032a.386.386,0,0,0,.442-.408v-.51a.4.4,0,0,0-.442-.408H64.4v-4.658c0-3.128,1.5-4.522,3.638-4.522a4.765,4.765,0,0,1,2.958,1.156.348.348,0,0,0,.578-.034l.34-.476a.427.427,0,0,0-.068-.544,5.38,5.38,0,0,0-3.808-1.462c-2.958,0-5.134,1.87-5.134,5.882V-13.6H60.86a.45.45,0,0,0-.442.442v.442a.427.427,0,0,0,.442.442H62.9ZM78.166-20.264a1.139,1.139,0,0,0,1.156-1.122,1.176,1.176,0,0,0-1.156-1.19,1.176,1.176,0,0,0-1.156,1.19A1.139,1.139,0,0,0,78.166-20.264ZM77.418-.442A.4.4,0,0,0,77.792,0h.68a.4.4,0,0,0,.442-.442V-13.158a.45.45,0,0,0-.442-.442H77.86a.45.45,0,0,0-.442.442Zm10.744,0A.4.4,0,0,0,88.536,0h.68a.4.4,0,0,0,.442-.442V-23.358a.45.45,0,0,0-.442-.442H88.6a.45.45,0,0,0-.442.442ZM97.92-6.834c0,3.978,2.55,7.174,6.7,7.174a8.222,8.222,0,0,0,4.93-1.6c.2-.2.238-.408.136-.544l-.34-.476c-.17-.238-.306-.2-.612,0A7.258,7.258,0,0,1,104.72-1.02a5.369,5.369,0,0,1-5.3-5.372h10.846c.51,0,.51-.782.51-1.326a5.984,5.984,0,0,0-6.154-6.222C100.47-13.94,97.92-10.71,97.92-6.834Zm1.53-.782a5.059,5.059,0,0,1,5.168-4.964c3.06,0,4.658,2.312,4.658,4.964Z" transform="translate(17.697 46.333)" fill="#fff"/></g></svg>