<svg xmlns="http://www.w3.org/2000/svg" width="109.511" height="11.36" viewBox="0 0 109.511 11.36">
  <path id="パス_913" data-name="パス 913" d="M1.641-5.781,5.016-9.156v2.8h9.156V-5.2H5.016v2.8ZM19.616-.208A.212.212,0,0,0,19.824,0h.288c.16,0,.256-.1.256-.208V-3.984H23.28a3.633,3.633,0,0,0,3.6-3.632A3.616,3.616,0,0,0,23.264-11.2h-3.44a.212.212,0,0,0-.208.208Zm.752-4.512v-5.728h2.848a2.872,2.872,0,0,1,2.912,2.816,2.919,2.919,0,0,1-2.9,2.912ZM30.24-.208A.186.186,0,0,0,30.416,0h.32a.186.186,0,0,0,.208-.208v-4.56a2.248,2.248,0,0,1,1.9-1.1,2.036,2.036,0,0,1,.832.192c.112.048.208.032.256-.08l.128-.32c.048-.128-.032-.24-.176-.288A2.649,2.649,0,0,0,32.9-6.56a2.455,2.455,0,0,0-2,.992l-.064-.656A.191.191,0,0,0,30.64-6.4h-.192a.212.212,0,0,0-.208.208Zm6.592-3.008A3.136,3.136,0,0,0,39.984.16,3.869,3.869,0,0,0,42.3-.592c.1-.1.112-.192.064-.256l-.16-.224c-.08-.112-.144-.1-.288,0a3.415,3.415,0,0,1-1.888.592,2.527,2.527,0,0,1-2.5-2.528h5.1c.24,0,.24-.368.24-.624a2.816,2.816,0,0,0-2.9-2.928A3.136,3.136,0,0,0,36.832-3.216Zm.72-.368A2.381,2.381,0,0,1,39.984-5.92a2.153,2.153,0,0,1,2.192,2.336ZM48.5.016c.048.112.1.144.192.144h.064a.216.216,0,0,0,.192-.144L51.728-6.16c.064-.128.048-.24-.1-.24H51.28a.212.212,0,0,0-.208.144L48.736-.976H48.72L46.4-6.256a.212.212,0,0,0-.208-.144H45.84c-.144,0-.16.112-.1.24ZM61.008-.208A.212.212,0,0,0,61.216,0H61.5c.16,0,.256-.1.256-.208V-3.984h2.912a3.633,3.633,0,0,0,3.6-3.632A3.616,3.616,0,0,0,64.656-11.2h-3.44a.212.212,0,0,0-.208.208ZM61.76-4.72v-5.728h2.848A2.872,2.872,0,0,1,67.52-7.632a2.919,2.919,0,0,1-2.9,2.912Zm9.184,1.5A3.136,3.136,0,0,0,74.1.16a3.869,3.869,0,0,0,2.32-.752c.1-.1.112-.192.064-.256l-.16-.224c-.08-.112-.144-.1-.288,0a3.415,3.415,0,0,1-1.888.592,2.527,2.527,0,0,1-2.5-2.528h5.1c.24,0,.24-.368.24-.624A2.816,2.816,0,0,0,74.1-6.56,3.136,3.136,0,0,0,70.944-3.216Zm.72-.368A2.381,2.381,0,0,1,74.1-5.92a2.153,2.153,0,0,1,2.192,2.336ZM80.8-.208A.186.186,0,0,0,80.976,0h.32A.186.186,0,0,0,81.5-.208v-4.56a2.248,2.248,0,0,1,1.9-1.1,2.036,2.036,0,0,1,.832.192c.112.048.208.032.256-.08l.128-.32c.048-.128-.032-.24-.176-.288a2.648,2.648,0,0,0-.992-.192,2.455,2.455,0,0,0-2,.992l-.064-.656A.191.191,0,0,0,81.2-6.4h-.192a.212.212,0,0,0-.208.208ZM87.6-.56a3.26,3.26,0,0,0,2.1.72,2.069,2.069,0,0,0,2.272-1.776c0-1.168-1.056-1.568-2.256-2.016-.944-.336-1.52-.64-1.52-1.28,0-.432.368-1.024,1.376-1.024a3.025,3.025,0,0,1,1.472.448.215.215,0,0,0,.3-.08l.1-.176a.224.224,0,0,0-.064-.3,3.379,3.379,0,0,0-1.808-.512,1.857,1.857,0,0,0-2.1,1.664c0,.992.832,1.488,1.968,1.888,1.072.4,1.792.7,1.792,1.44,0,.624-.624,1.136-1.536,1.136a2.842,2.842,0,0,1-1.712-.624.186.186,0,0,0-.288.016l-.16.256A.177.177,0,0,0,87.6-.56Zm7.664-2.656A3.274,3.274,0,0,0,98.48.16,3.284,3.284,0,0,0,101.7-3.216,3.286,3.286,0,0,0,98.48-6.56,3.276,3.276,0,0,0,95.264-3.216Zm.688,0A2.587,2.587,0,0,1,98.48-5.888a2.585,2.585,0,0,1,2.512,2.672A2.6,2.6,0,0,1,98.48-.5,2.6,2.6,0,0,1,95.952-3.216Zm9.616,3.008a.186.186,0,0,0,.176.208h.3a.186.186,0,0,0,.208-.208v-4.56a3.28,3.28,0,0,1,2.288-1.1c1.216,0,1.9.768,1.9,2.24V-.208a.212.212,0,0,0,.208.208h.288a.212.212,0,0,0,.208-.208V-3.632c0-1.792-.784-2.928-2.576-2.928a3.419,3.419,0,0,0-2.368,1.008l-.064-.688a.179.179,0,0,0-.192-.16h-.16a.216.216,0,0,0-.224.208Z" transform="translate(-1.641 11.2)" fill="#333"/>
</svg>
