<svg xmlns="http://www.w3.org/2000/svg" width="54.925" height="69.1" viewBox="0 0 54.925 69.1">
  <path id="パス_548" data-name="パス 548" d="M2.625-26.175A26.761,26.761,0,0,0,29.55.75c.525,0,1.425,0,2.325-.075L39.825,14.1a1.384,1.384,0,0,0,1.2.75H51.15a1.431,1.431,0,0,0,1.2-2.25L42.675-2.55C50.925-7.575,56.55-16.425,56.55-26.175a26.951,26.951,0,0,0-27-27.075A26.888,26.888,0,0,0,2.625-26.175Zm12,0A15.093,15.093,0,0,1,29.55-41.25a15.109,15.109,0,0,1,15,15.075,15.029,15.029,0,0,1-15,14.925A15.013,15.013,0,0,1,14.625-26.175Z" transform="translate(-2.125 53.75)" fill="#fff" stroke="#16344f" stroke-width="1"/>
</svg>
