<svg xmlns="http://www.w3.org/2000/svg" width="137.92" height="30.112" viewBox="0 0 137.92 30.112">
  <path id="パス_909" data-name="パス 909" d="M-39.9-25.28H-55.456v3.616H-39.9ZM-61.6-27.1a28.468,28.468,0,0,1-7.232,6.816,22.125,22.125,0,0,1,2.112,3.1,42.96,42.96,0,0,0,8.8-8.416Zm1.216,6.912a31.179,31.179,0,0,1-8.8,9.568,37.494,37.494,0,0,1,2.592,3.3c.864-.7,1.728-1.5,2.624-2.368V2.816h3.808v-16.7a42.443,42.443,0,0,0,3.424-4.9ZM-39.1-16.48H-56.8v3.616h9.44V-1.728c0,.48-.224.608-.8.608-.576.032-2.688.032-4.512-.064A16.181,16.181,0,0,1-51.52,2.688c2.848,0,4.9-.064,6.24-.64,1.408-.576,1.792-1.632,1.792-3.68V-12.864H-39.1ZM-22.912-3.84h5.792V-6.528h-5.792V-7.776h5.664v-9.888h-5.664v-1.248h6.144v2.5h2.912c-.224,5.728-.992,10.3-3.488,13.76-1.856.16-3.744.32-5.568.448Zm-5.952-6.3v-1.44h2.5v1.44Zm8.448-1.44v1.44h-2.5v-1.44Zm-2.5-2.272v-1.408h2.5v1.408Zm-5.952-1.408h2.5v1.408h-2.5Zm18.72-4.64c.064-2.112.064-4.352.064-6.688h-3.648c0,2.368,0,4.576-.032,6.688h-3.008v-1.76h-6.144v-1.568c2.08-.224,4.064-.512,5.76-.864l-1.664-2.848a99.146,99.146,0,0,1-13.792,1.568,11.852,11.852,0,0,1,.832,2.688c1.728-.032,3.552-.128,5.408-.256v1.28h-6.3v2.752h6.3v1.248h-5.5v9.888h5.5v1.248H-32V-3.84h5.632v1.92c-2.464.16-4.7.32-6.5.448l.448,3.2C-28.96,1.44-24.352.96-19.744.48A12.468,12.468,0,0,1-17.5,3.008c5.376-4.256,6.848-10.848,7.264-19.424h2.88c-.192,10.336-.512,14.24-1.184,15.1a1.163,1.163,0,0,1-1.088.544c-.608,0-1.824-.032-3.232-.16a8.909,8.909,0,0,1,1.12,3.648,21.466,21.466,0,0,0,3.968-.128A3.571,3.571,0,0,0-5.248.992C-4.224-.48-3.968-5.12-3.68-18.208c0-.448.032-1.7.032-1.7Zm24.352,6.272c-1.088.288-2.208.576-3.328.864v-4.8h3.264v-3.52H10.88v-5.984H7.136v5.984H3.168v3.52H7.136v5.7c-1.632.384-3.168.736-4.448.992l.9,3.648L7.136-8.16v6.848c0,.448-.16.576-.608.608-.416,0-1.7,0-2.944-.064A13.564,13.564,0,0,1,4.64,2.72c2.24,0,3.776-.1,4.832-.672C10.56,1.44,10.88.544,10.88-1.344V-9.12c1.28-.352,2.528-.7,3.776-1.056ZM27.52-8.672V-6.72H19.36V-8.672Zm-8.16,7.04V-3.744h8.16v2.112ZM15.744,2.784H19.36V1.408h8.16V2.656H31.3V-11.808H15.744Zm6.048-19.84c-1.856,0-2.176-.16-2.176-1.376v-1.344a68.88,68.88,0,0,0,11.328-3.168L28.128-25.7a50.9,50.9,0,0,1-8.512,2.816v-4.192H15.808V-18.4c0,3.68,1.152,4.768,5.6,4.768h6.208c3.648,0,4.768-1.216,5.248-5.728a10.3,10.3,0,0,1-3.456-1.376c-.224,3.168-.48,3.68-2.08,3.68Zm21.632-1.792a32.572,32.572,0,0,0,3.392-4.64,30.341,30.341,0,0,1,4.288,4.64Zm25.312,1.76h-5.92v-9.76H58.88v9.76H52.96v3.68H48.288v-2.24H51.68v-2.4l.064.1,2.592-2.976a40.394,40.394,0,0,0-6.368-6.144h-3.36a21.8,21.8,0,0,1-6.336,8.288,11.722,11.722,0,0,1,2.4,2.624,11.467,11.467,0,0,0,.928-.832v1.344h3.136v2.24H39.744v3.264h4.992v8.128c-2.08.288-4,.512-5.568.7l.8,3.52C43.68,1.632,48.736.9,53.408.128l-.16-3.392c-1.632.256-3.328.512-4.96.736v-7.616h4.9v-3.168h5.7V2.752h3.936V-13.312h5.92ZM51.3-3.36c.576-1.344,1.152-3.328,1.792-5.216l-3.04-.736A47.213,47.213,0,0,1,48.7-4.032ZM40.1-8.32A30,30,0,0,1,41.28-2.752l2.784-.8a32.546,32.546,0,0,0-1.312-5.44Z" transform="translate(69.184 27.104)" fill="#1c2349"/>
</svg>
